<svg xmlns="http://www.w3.org/2000/svg" viewBox="0 0 700.42 379.69"><defs><style>.cls-1{isolation:isolate;}</style></defs><g id="Layer_2" data-name="Layer 2"><g id="Layer_1-2" data-name="Layer 1"><g id="Component_1_1" data-name="Component 1 1"><g id="Inventory_Management_System-2" data-name="Inventory Management System-2" class="cls-1"><g class="cls-1"><path d="M5.3,145.15V65.65H22.2v79.5Z"/><path d="M40.71,145.15V85.6H55.53l.27,6.69A31.92,31.92,0,0,1,61,88.84a36.46,36.46,0,0,1,7-2.91A27.07,27.07,0,0,1,75.7,84.7q9.31-.23,13.7,4.94t4.38,18.11v37.4H77.41v-35.1c0-4.63-.6-7.88-1.82-9.73S72,97.61,68.48,97.75a17.42,17.42,0,0,0-3.61.56,21.68,21.68,0,0,0-4.07,1.5A19,19,0,0,0,57,102.24v42.91Z"/><path d="M124.6,146,101.7,85.55h17.5l9.25,29.05,5.78,21.4h-3.37l5.3-21.4,8.93-29h17.23L139.74,146Z"/><path d="M195,146q-13.75,0-21.08-8.19t-7.33-22.63a34.85,34.85,0,0,1,3.34-15.51,26,26,0,0,1,9.71-10.84q6.38-4,15.57-4A30.57,30.57,0,0,1,204.1,86a20.91,20.91,0,0,1,7.55,4A19.69,19.69,0,0,1,217,97.24,27.82,27.82,0,0,1,219,108.29c0,2.17,0,4.19-.11,6a32.68,32.68,0,0,1-.48,4.77H175.37l1.07-8.83h27.39a27.86,27.86,0,0,0-.45-7.63,9.27,9.27,0,0,0-2.81-5.13,8.58,8.58,0,0,0-5.88-1.85,10.54,10.54,0,0,0-6.45,2q-2.76,2-4.23,7t-1.25,13.61a19.85,19.85,0,0,0,2.27,9.34,11.75,11.75,0,0,0,5.62,5,20.92,20.92,0,0,0,8.26,1.52,40,40,0,0,0,5.62-.43,46.91,46.91,0,0,0,5.78-1.15,21,21,0,0,0,4.17-1.47l2.73,8.88a20.84,20.84,0,0,1-5.43,3,43.11,43.11,0,0,1-7.81,2.2A48.17,48.17,0,0,1,195,146Z"/><path d="M232.14,145.15V85.6H247l.26,6.69a32.83,32.83,0,0,1,5.19-3.45,36.73,36.73,0,0,1,7-2.91,27.07,27.07,0,0,1,7.73-1.23q9.31-.23,13.7,4.94t4.39,18.11v37.4H268.84v-35.1c0-4.63-.61-7.88-1.82-9.73s-3.59-2.71-7.12-2.57a17.42,17.42,0,0,0-3.61.56,21.94,21.94,0,0,0-4.07,1.5,19.31,19.31,0,0,0-3.82,2.43v42.91Z"/><path d="M319.29,146a19.92,19.92,0,0,1-9-1.8,11.2,11.2,0,0,1-5.29-5.69,25.73,25.73,0,0,1-1.74-10.33V96.73H296V88a54.06,54.06,0,0,0,6.34-2.14,6.33,6.33,0,0,0,3.45-3.53c.36-.82.74-1.78,1.16-2.89l1.31-3.58c.46-1.29.94-2.59,1.44-3.91h9.84V85.55h16V96.73h-16v24.56a41.33,41.33,0,0,0,.59,8.26c.39,1.74,1.07,2.84,2,3.32a9.58,9.58,0,0,0,4.17.72,17.38,17.38,0,0,0,3.21-.34,30.52,30.52,0,0,0,3.48-.89,10.87,10.87,0,0,0,2.56-1.12l2.14,9.15a17.17,17.17,0,0,1-4.33,2.59,34.78,34.78,0,0,1-6.58,2.17A33.34,33.34,0,0,1,319.29,146Z"/><path d="M372.73,146a31.19,31.19,0,0,1-13.27-2.55,22.89,22.89,0,0,1-8.8-7,28.77,28.77,0,0,1-4.84-10.19,46.3,46.3,0,0,1-1.44-12.17q.15-9.53,4-16.05a25.17,25.17,0,0,1,10.43-9.9,32.67,32.67,0,0,1,15-3.37q10.49,0,16.75,4.39a24.26,24.26,0,0,1,9,11.64,42,42,0,0,1,2.57,15.75q-.11,9.58-3.9,16.13a25,25,0,0,1-10.38,9.93A32.75,32.75,0,0,1,372.73,146Zm.43-11.4q6.36.06,9.26-4.76t2.88-14a38.62,38.62,0,0,0-1.17-9.85,15.73,15.73,0,0,0-3.78-7.11,9.26,9.26,0,0,0-6.87-2.73q-6.42-.06-9.31,4.68t-2.89,13.67a39.94,39.94,0,0,0,1.18,10,16.18,16.18,0,0,0,3.77,7.3A9.11,9.11,0,0,0,373.16,134.61Z"/><path d="M413.77,145.15V85.6h14.12l.91,9.31,1.28,2.84v47.4Zm15.35-38.84-.75-11.45A12.85,12.85,0,0,1,431.9,90a21.06,21.06,0,0,1,6.1-3.79,19.14,19.14,0,0,1,7.44-1.47,24.88,24.88,0,0,1,3,.16,5.2,5.2,0,0,1,2,.53v15.89a9.77,9.77,0,0,0-2.3-1,17.07,17.07,0,0,0-4.71-.48,17.48,17.48,0,0,0-11.31,3.71A23.15,23.15,0,0,0,429.12,106.31Z"/><path d="M459.83,170.72V157.88a18,18,0,0,0,2.86.65,20.65,20.65,0,0,0,3.08.32,19.65,19.65,0,0,0,5.64-.94,12.24,12.24,0,0,0,5.75-4.17q2.67-3.24,4.07-10.09l.75,1.5h-7.06l-20.87-59.6h17.39l10.22,34.51,4.81,18.3h-2.25l4.34-18.3,8.34-34.51h17.28L495,146.7q-3.42,10.7-8.37,16.21A24.78,24.78,0,0,1,476,170.29a18.66,18.66,0,0,1-4.1,1,29.79,29.79,0,0,1-4.36.38c-.53,0-1.37-.06-2.51-.16s-2.24-.24-3.29-.38A5.88,5.88,0,0,1,459.83,170.72Z"/></g><g class="cls-1"><path d="M0,249.15l8.77-79.5h22.9l11.5,42.48L47,230.05l3.21-17.92,10.64-42.48H82.93l9.73,79.5H76.34l-3.9-44.57-1.28-22.52L66,205,53.13,249.74H39.86L26.16,205l-5.46-22.9-1.49,22.52-3.53,44.57Z"/><path d="M121.12,250a20.76,20.76,0,0,1-10-2.3,16.73,16.73,0,0,1-6.66-6.42,18.78,18.78,0,0,1-2.38-9.58,15,15,0,0,1,3-9.36,19.54,19.54,0,0,1,8.05-6.1,39.85,39.85,0,0,1,7.63-2.25,73.31,73.31,0,0,1,8.29-1.12c2.76-.22,5.34-.32,7.73-.32l2.73,3.37-2.73,5.24a39.18,39.18,0,0,0-4.33.27,43.4,43.4,0,0,0-4.63.77,23,23,0,0,0-3.72,1.15,13.3,13.3,0,0,0-3.72,2.57,6.62,6.62,0,0,0-1.63,4.92q0,4.34,2.41,6.4a9.21,9.21,0,0,0,6.2,2.06,14.79,14.79,0,0,0,3.94-.54,19.18,19.18,0,0,0,3.45-1.26,6.32,6.32,0,0,0,2-1.36l2.83,3.37-2,4.6a25.5,25.5,0,0,1-6.61,4A24.2,24.2,0,0,1,121.12,250Zm32-.86H137.66v-8.88h-.86v-32.1q0-4.54-2.41-6a13.78,13.78,0,0,0-6.9-1.41,43.61,43.61,0,0,0-7,.59,53.64,53.64,0,0,0-6.92,1.55,31.55,31.55,0,0,0-5.46,2.08l-3.53-10.27a38.82,38.82,0,0,1,5.67-2.51,64.15,64.15,0,0,1,8.83-2.54,45.73,45.73,0,0,1,10-1.1,40.54,40.54,0,0,1,13.56,1.92,14.35,14.35,0,0,1,7.92,6.53q2.59,4.61,2.6,12.73Z"/><path d="M169.17,249.15V189.6H184l.26,6.69a32.83,32.83,0,0,1,5.19-3.45,36.73,36.73,0,0,1,7-2.91,27.07,27.07,0,0,1,7.73-1.23q9.32-.22,13.7,4.94t4.39,18.11v37.4H205.87v-35.1c0-4.63-.61-7.88-1.82-9.73s-3.59-2.71-7.12-2.57a17.42,17.42,0,0,0-3.61.56,21.94,21.94,0,0,0-4.07,1.5,19.31,19.31,0,0,0-3.82,2.43v42.91Z"/><path d="M251.93,250a20.73,20.73,0,0,1-10-2.3,16.73,16.73,0,0,1-6.66-6.42,18.78,18.78,0,0,1-2.38-9.58,15,15,0,0,1,3-9.36,19.54,19.54,0,0,1,8.05-6.1,40,40,0,0,1,7.62-2.25,73.79,73.79,0,0,1,8.3-1.12c2.76-.22,5.34-.32,7.73-.32l2.72,3.37-2.72,5.24a39.35,39.35,0,0,0-4.34.27,43.63,43.63,0,0,0-4.62.77,23,23,0,0,0-3.72,1.15,13.3,13.3,0,0,0-3.72,2.57,6.62,6.62,0,0,0-1.63,4.92q0,4.34,2.4,6.4a9.25,9.25,0,0,0,6.21,2.06,14.66,14.66,0,0,0,3.93-.54,19.18,19.18,0,0,0,3.45-1.26,6.27,6.27,0,0,0,2-1.36l2.83,3.37-2,4.6a25.42,25.42,0,0,1-6.6,4A24.2,24.2,0,0,1,251.93,250Zm32-.86H268.46v-8.88h-.85v-32.1c0-3-.81-5-2.41-6a13.83,13.83,0,0,0-6.9-1.41,43.61,43.61,0,0,0-7,.59,54.17,54.17,0,0,0-6.93,1.55,31.73,31.73,0,0,0-5.45,2.08l-3.53-10.27a38.82,38.82,0,0,1,5.67-2.51,64,64,0,0,1,8.82-2.54,45.89,45.89,0,0,1,10-1.1,40.54,40.54,0,0,1,13.56,1.92,14.35,14.35,0,0,1,7.92,6.53q2.6,4.61,2.59,12.73Z"/><path d="M322.82,276.11q-14.07-.11-20.95-4.73A14.92,14.92,0,0,1,295,258.25a11,11,0,0,1,1.5-5.7,13.61,13.61,0,0,1,4.09-4.34,20.32,20.32,0,0,1,5.91-2.75l9.31.85c-.61.5-1.31,1.13-2.11,1.88a10.36,10.36,0,0,0-2.12,2.89,9.82,9.82,0,0,0-.91,4.49,13.29,13.29,0,0,0,1.15,5.56,8.64,8.64,0,0,0,4,4,17,17,0,0,0,7.84,1.49,29.24,29.24,0,0,0,7.62-.93,12.31,12.31,0,0,0,5.46-2.89,6.74,6.74,0,0,0,2-5.06,10.89,10.89,0,0,0-.94-4.68,6.52,6.52,0,0,0-3.69-3.13,22.48,22.48,0,0,0-8.1-1.12h-9.9a20.06,20.06,0,0,1-3.59-.29l-3.05-.62a4.64,4.64,0,0,1-1.41-.56,4,4,0,0,0-1.53-.51,10.79,10.79,0,0,1-5.72-3.29,8.36,8.36,0,0,1-1.72-5.38,13.5,13.5,0,0,1,.91-4.36,12.64,12.64,0,0,1,2.95-4.38,17.15,17.15,0,0,1,5.67-3.62l9.2,1.66a6.93,6.93,0,0,0-3.34,2.54,6,6,0,0,0-1.21,3.45,3.9,3.9,0,0,0,1.63,3.62q1.63,1,5.65,1h10.75a40.88,40.88,0,0,1,11.4,1.33,18.19,18.19,0,0,1,7.06,3.67,12.91,12.91,0,0,1,3.61,5.24,17.77,17.77,0,0,1,1,6.07,17.42,17.42,0,0,1-2.56,9.45,21.39,21.39,0,0,1-7,6.82,35.23,35.23,0,0,1-10.11,4.12A48.15,48.15,0,0,1,322.82,276.11ZM322,229a34,34,0,0,1-13.08-2.35,20.2,20.2,0,0,1-8.91-6.8,17.59,17.59,0,0,1-3.21-10.59,18.2,18.2,0,0,1,12-18.08,36,36,0,0,1,13.3-2.36,36.46,36.46,0,0,1,13.45,2.2,19.49,19.49,0,0,1,9.05,6.71,18.38,18.38,0,0,1,3.23,11,19.64,19.64,0,0,1-3,11.05,18.4,18.4,0,0,1-8.78,6.84A37.53,37.53,0,0,1,322,229Zm.22-9.15a12.27,12.27,0,0,0,7.57-2.16c1.9-1.45,2.86-4.31,2.86-8.59q0-5.19-2.49-7.84c-1.66-1.76-4.18-2.65-7.57-2.65a14.23,14.23,0,0,0-5.24.89,6.76,6.76,0,0,0-3.51,3.13,13.13,13.13,0,0,0-1.25,6.31,13.38,13.38,0,0,0,2.19,7.68Q316.93,219.83,322.18,219.83Zm18.61-18.67-2.56-6.74a13.82,13.82,0,0,1,4.33-3.24,15.72,15.72,0,0,1,7.65-1.79h7v11.77Z"/><path d="M390.66,250q-13.76,0-21.08-8.19t-7.33-22.63a34.85,34.85,0,0,1,3.34-15.51,26,26,0,0,1,9.71-10.84q6.38-4,15.57-4a30.57,30.57,0,0,1,8.88,1.18,20.79,20.79,0,0,1,7.54,4,19.61,19.61,0,0,1,5.33,7.28,27.82,27.82,0,0,1,2.06,11c0,2.17,0,4.19-.11,6a32.68,32.68,0,0,1-.48,4.77H371l1.07-8.83h27.39a27.86,27.86,0,0,0-.45-7.63,9.27,9.27,0,0,0-2.81-5.13,8.58,8.58,0,0,0-5.88-1.85,10.54,10.54,0,0,0-6.45,2q-2.76,2-4.23,7t-1.25,13.61a19.85,19.85,0,0,0,2.27,9.34,11.75,11.75,0,0,0,5.62,5,20.92,20.92,0,0,0,8.26,1.52,40,40,0,0,0,5.62-.43A46.91,46.91,0,0,0,406,236.6a21,21,0,0,0,4.17-1.47l2.73,8.88a20.84,20.84,0,0,1-5.43,3,43.11,43.11,0,0,1-7.81,2.2A48.17,48.17,0,0,1,390.66,250Z"/><path d="M427.79,249.15V189.6H442.6l.27,6.37a35.56,35.56,0,0,1,5.27-3.26,40.78,40.78,0,0,1,6.93-2.81,26.91,26.91,0,0,1,7.65-1.2,20.06,20.06,0,0,1,10.11,2,13.1,13.1,0,0,1,5.89,7.25q1.92,5.12,1.92,13.73v37.5H464.38v-35.1a28.36,28.36,0,0,0-.75-7.3,6.31,6.31,0,0,0-2.65-3.88,9.69,9.69,0,0,0-5.37-1.07,17.71,17.71,0,0,0-5.62,1.13,19.07,19.07,0,0,0-5.94,3.31v42.91ZM480,206.51l-3-10.11a29.55,29.55,0,0,1,4.9-3.29,38.5,38.5,0,0,1,7.35-3.1A29.16,29.16,0,0,1,498,188.7a22.51,22.51,0,0,1,10.33,2,13.43,13.43,0,0,1,6.31,7.17q2.15,5.08,2.14,13.8v37.45H500.44V214a29.43,29.43,0,0,0-.72-7.3,6.08,6.08,0,0,0-2.62-3.85,10,10,0,0,0-5.43-1,15.15,15.15,0,0,0-6.29,1.47A25.55,25.55,0,0,0,480,206.51Z"/><path d="M557.68,250q-13.74,0-21.08-8.19t-7.33-22.63a34.85,34.85,0,0,1,3.35-15.51,25.92,25.92,0,0,1,9.71-10.84q6.36-4,15.57-4a30.57,30.57,0,0,1,8.88,1.18,20.79,20.79,0,0,1,7.54,4,19.59,19.59,0,0,1,5.32,7.28,27.65,27.65,0,0,1,2.06,11c0,2.17,0,4.19-.1,6a35.72,35.72,0,0,1-.48,4.77H538.05l1.07-8.83h27.39a27.86,27.86,0,0,0-.45-7.63,9.33,9.33,0,0,0-2.81-5.13,8.61,8.61,0,0,0-5.89-1.85,10.51,10.51,0,0,0-6.44,2q-2.76,2-4.23,7t-1.26,13.61a19.85,19.85,0,0,0,2.27,9.34,11.84,11.84,0,0,0,5.62,5,21,21,0,0,0,8.27,1.52,40.08,40.08,0,0,0,5.62-.43A46.37,46.37,0,0,0,573,236.6a21.42,21.42,0,0,0,4.18-1.47l2.73,8.88a20.75,20.75,0,0,1-5.44,3,42.88,42.88,0,0,1-7.81,2.2A48,48,0,0,1,557.68,250Z"/><path d="M594.81,249.15V189.6h14.82l.27,6.69a31.92,31.92,0,0,1,5.19-3.45,36.46,36.46,0,0,1,7-2.91,27.07,27.07,0,0,1,7.73-1.23q9.32-.22,13.7,4.94t4.38,18.11v37.4H631.51v-35.1c0-4.63-.6-7.88-1.82-9.73s-3.58-2.71-7.11-2.57a17.32,17.32,0,0,0-3.61.56,21.68,21.68,0,0,0-4.07,1.5,19,19,0,0,0-3.82,2.43v42.91Z"/><path d="M682,250a19.88,19.88,0,0,1-9-1.8,11.26,11.26,0,0,1-5.3-5.69,25.73,25.73,0,0,1-1.74-10.33V200.73h-7.22V192a54.72,54.72,0,0,0,6.34-2.14,6.33,6.33,0,0,0,3.45-3.53c.36-.82.74-1.78,1.15-2.89s.85-2.3,1.31-3.58.95-2.59,1.45-3.91h9.84v13.59h16v11.18h-16v24.56a41.33,41.33,0,0,0,.59,8.26c.39,1.74,1.07,2.84,2,3.32a9.61,9.61,0,0,0,4.17.72,17.38,17.38,0,0,0,3.21-.34,29.48,29.48,0,0,0,3.48-.89,11,11,0,0,0,2.57-1.12l2.14,9.15a17.35,17.35,0,0,1-4.33,2.59,34.78,34.78,0,0,1-6.58,2.17A33.36,33.36,0,0,1,682,250Z"/></g><g class="cls-1"><path d="M25.57,354a64.23,64.23,0,0,1-10.43-.81,61.57,61.57,0,0,1-8.51-1.92,25.67,25.67,0,0,1-5.08-2L4.07,336a29.89,29.89,0,0,0,5.21,2.32,51.2,51.2,0,0,0,7.14,1.93,40.16,40.16,0,0,0,7.87.78q6.36,0,9.47-2c2.07-1.32,3.1-3.45,3.1-6.37a8,8,0,0,0-1.71-5.22,18.25,18.25,0,0,0-5.38-4.14q-3.66-2-9.49-4.82a55.63,55.63,0,0,1-9.37-5.72,27.37,27.37,0,0,1-7.11-7.92,20.68,20.68,0,0,1-2.73-10.75,20,20,0,0,1,2.17-9.61,18.51,18.51,0,0,1,6-6.63A26.81,26.81,0,0,1,18,274a44.86,44.86,0,0,1,10.73-1.23,49.46,49.46,0,0,1,13.54,1.55,31.59,31.59,0,0,1,7.38,2.89L46.81,290a25.51,25.51,0,0,0-7-3.29,32.32,32.32,0,0,0-10.17-1.47,21.35,21.35,0,0,0-6.6.91,9.55,9.55,0,0,0-4.36,2.64A6.15,6.15,0,0,0,17.17,293a8.68,8.68,0,0,0,1.48,5.11,15.19,15.19,0,0,0,4.68,4.06q3.21,1.95,8.34,4.47,4.65,2.19,8.62,4.57a40.82,40.82,0,0,1,7,5.22,20.73,20.73,0,0,1,4.66,6.47,20,20,0,0,1,1.65,8.35,21.78,21.78,0,0,1-3.37,12.28,21.06,21.06,0,0,1-9.65,7.78A38,38,0,0,1,25.57,354Z"/><path d="M64.52,378.72V365.88a18.23,18.23,0,0,0,2.86.65,20.65,20.65,0,0,0,3.08.32,19.65,19.65,0,0,0,5.64-.94,12.24,12.24,0,0,0,5.75-4.17q2.69-3.24,4.07-10.09l.75,1.5H79.61l-20.87-59.6H76.13l10.22,34.51,4.81,18.3H88.92l4.33-18.3,8.35-34.51h17.28L99.72,354.7q-3.42,10.69-8.37,16.21a24.78,24.78,0,0,1-10.67,7.38,18.66,18.66,0,0,1-4.1,1,29.68,29.68,0,0,1-4.36.38c-.53,0-1.37-.06-2.51-.16s-2.24-.24-3.29-.38A5.88,5.88,0,0,1,64.52,378.72Z"/><path d="M124.06,349.35l1.82-11.5a16.89,16.89,0,0,0,3.48,1.82,44.62,44.62,0,0,0,6.26,2.06,30.14,30.14,0,0,0,7.49.93q4.88.06,7.17-1.31a4.46,4.46,0,0,0,2.3-4.09,4.28,4.28,0,0,0-1.52-3.26,16.31,16.31,0,0,0-4.15-2.6q-2.62-1.2-5.83-2.48a44.45,44.45,0,0,1-9.55-5,18.21,18.21,0,0,1-5.62-6.24,16.88,16.88,0,0,1-1.79-8.21,13.8,13.8,0,0,1,3.24-9.25,19.17,19.17,0,0,1,8.5-5.54,35.84,35.84,0,0,1,11.8-1.85A44.74,44.74,0,0,1,158.87,294a27.54,27.54,0,0,1,6.34,2.22l-1.77,11.71a14.16,14.16,0,0,0-3.21-1.82,26.92,26.92,0,0,0-4.95-1.57,25.61,25.61,0,0,0-5.59-.62q-5.19,0-7.57,1.26a3.92,3.92,0,0,0-2.38,3.61,4.81,4.81,0,0,0,2.38,4.52,53.47,53.47,0,0,0,6.77,3.29,82.19,82.19,0,0,1,10.78,5.22,20,20,0,0,1,6.58,5.93,14.43,14.43,0,0,1,2.22,8.16q0,8.88-6.37,13.49T144.93,354a50.73,50.73,0,0,1-8.75-.73,48.75,48.75,0,0,1-7.38-1.79A19.57,19.57,0,0,1,124.06,349.35Z"/><path d="M198.91,354a19.88,19.88,0,0,1-9-1.8,11.22,11.22,0,0,1-5.3-5.69,25.73,25.73,0,0,1-1.74-10.33V304.73h-7.22V296a54.72,54.72,0,0,0,6.34-2.14,6.33,6.33,0,0,0,3.45-3.53c.36-.82.74-1.78,1.15-2.89s.85-2.3,1.31-3.58,1-2.59,1.44-3.91h9.85v13.59h16v11.18h-16v24.56a40.58,40.58,0,0,0,.59,8.26c.39,1.74,1.07,2.84,2,3.32a9.58,9.58,0,0,0,4.17.72,17.38,17.38,0,0,0,3.21-.34,29.48,29.48,0,0,0,3.48-.89,11,11,0,0,0,2.57-1.12l2.14,9.15A17.35,17.35,0,0,1,213,351a34.78,34.78,0,0,1-6.58,2.17A33.43,33.43,0,0,1,198.91,354Z"/><path d="M253.27,354q-13.76,0-21.08-8.19t-7.33-22.63a34.85,34.85,0,0,1,3.34-15.51,26,26,0,0,1,9.71-10.84q6.38-4,15.57-4a30.57,30.57,0,0,1,8.88,1.18,20.79,20.79,0,0,1,7.54,4,19.61,19.61,0,0,1,5.33,7.28,27.82,27.82,0,0,1,2.06,11.05c0,2.17,0,4.19-.11,6a32.68,32.68,0,0,1-.48,4.77H233.63l1.07-8.83h27.39a27.86,27.86,0,0,0-.45-7.63,9.27,9.27,0,0,0-2.81-5.13,8.59,8.59,0,0,0-5.89-1.85,10.51,10.51,0,0,0-6.44,2q-2.76,2-4.23,7T241,326.29a19.84,19.84,0,0,0,2.28,9.34,11.75,11.75,0,0,0,5.62,5,20.92,20.92,0,0,0,8.26,1.52,40,40,0,0,0,5.62-.43,46.91,46.91,0,0,0,5.78-1.15,21,21,0,0,0,4.17-1.47l2.73,8.88a20.84,20.84,0,0,1-5.43,3,43.11,43.11,0,0,1-7.81,2.2A48.17,48.17,0,0,1,253.27,354Z"/><path d="M290.4,353.15V293.6h14.81l.27,6.37a35.56,35.56,0,0,1,5.27-3.26,40.78,40.78,0,0,1,6.93-2.81,26.91,26.91,0,0,1,7.65-1.2,20.06,20.06,0,0,1,10.11,2,13.1,13.1,0,0,1,5.89,7.25q1.92,5.11,1.92,13.73v37.5H327v-35.1a28.36,28.36,0,0,0-.75-7.3,6.31,6.31,0,0,0-2.65-3.88,9.7,9.7,0,0,0-5.38-1.07,17.7,17.7,0,0,0-5.61,1.13,19.07,19.07,0,0,0-5.94,3.31v42.91Zm52.16-42.64-3-10.11a29.13,29.13,0,0,1,4.9-3.29,38.5,38.5,0,0,1,7.35-3.1,29.16,29.16,0,0,1,8.83-1.31,22.51,22.51,0,0,1,10.33,2,13.43,13.43,0,0,1,6.31,7.17q2.13,5.09,2.14,13.8v37.45H363.05V318a29.43,29.43,0,0,0-.72-7.3,6.09,6.09,0,0,0-2.63-3.85,9.91,9.91,0,0,0-5.43-1.05,15.15,15.15,0,0,0-6.28,1.47A25.55,25.55,0,0,0,342.56,310.51Z"/></g></g><g id="University_of_Colombo" data-name="University of Colombo" class="cls-1"><g class="cls-1"><path d="M18.68,40.81A15.23,15.23,0,0,1,14,40.1a10,10,0,0,1-3.93-2.4,11.6,11.6,0,0,1-2.75-4.53,21.37,21.37,0,0,1-1-7.1V4h3V25.85a17.54,17.54,0,0,0,1.29,7.43A7.88,7.88,0,0,0,14,37.07a10.15,10.15,0,0,0,4.68,1.1,10.5,10.5,0,0,0,4.73-1.1,8,8,0,0,0,3.52-3.79,17.19,17.19,0,0,0,1.32-7.43V4h2.8V26.07a21.37,21.37,0,0,1-1,7.1,11.41,11.41,0,0,1-2.78,4.53,10.3,10.3,0,0,1-4,2.4A15,15,0,0,1,18.68,40.81Z"/><path d="M41.11,40.15V13.7h2.37l.33,4h.11a25.63,25.63,0,0,1,4.18-3.33A9,9,0,0,1,53,13q4.13,0,6.08,2.53t2,7.64V40.15H58.16V23.6c0-2.75-.44-4.79-1.34-6.11a5,5,0,0,0-4.49-2,7.37,7.37,0,0,0-4.15,1.21A27.06,27.06,0,0,0,44,20.35v19.8Z"/><path d="M72,7.48a2.14,2.14,0,0,1-1.6-.69,2.39,2.39,0,0,1-.66-1.73,2.24,2.24,0,0,1,.66-1.65A2.19,2.19,0,0,1,72,2.75a2.14,2.14,0,0,1,1.62.66,2.3,2.3,0,0,1,.63,1.65,2.46,2.46,0,0,1-.63,1.73A2.09,2.09,0,0,1,72,7.48ZM70.48,40.15V13.7h2.86V40.15Z"/><path d="M88.8,40.15,79,13.7h3L87.75,30c.41,1.24.84,2.53,1.3,3.85s.9,2.58,1.34,3.79h.22c.41-1.21.84-2.47,1.3-3.79s.9-2.61,1.34-3.85L99,13.7h2.86L92.15,40.15Z"/><path d="M117.51,40.81a12,12,0,0,1-6.22-1.65,11.78,11.78,0,0,1-4.45-4.76A15.67,15.67,0,0,1,105.19,27a15.71,15.71,0,0,1,1.65-7.42,12.31,12.31,0,0,1,4.32-4.82A10.35,10.35,0,0,1,116.79,13a10,10,0,0,1,5.48,1.45,9.48,9.48,0,0,1,3.52,4.21A16.07,16.07,0,0,1,127,25.3c0,.33,0,.68,0,1.05a6.86,6.86,0,0,1-.14,1H107.33V25.14h17q0-4.84-2-7.29a6.86,6.86,0,0,0-5.56-2.45,7.92,7.92,0,0,0-4.18,1.24,9.27,9.27,0,0,0-3.35,3.79A14.19,14.19,0,0,0,107.94,27a13.09,13.09,0,0,0,1.35,6.22,10.08,10.08,0,0,0,3.54,3.9,9.14,9.14,0,0,0,5,1.38,10.57,10.57,0,0,0,3.85-.66,16.88,16.88,0,0,0,3.19-1.65l1.1,2A24.78,24.78,0,0,1,122.35,40,12.62,12.62,0,0,1,117.51,40.81Z"/><path d="M134,40.15V13.7h2.36l.33,4.89h.11a13.36,13.36,0,0,1,3.3-4A6.63,6.63,0,0,1,144.35,13a7.68,7.68,0,0,1,1.37.11,4.24,4.24,0,0,1,1.27.43l-.61,2.54a4.81,4.81,0,0,0-1.13-.36,7.33,7.33,0,0,0-1.29-.08,6.1,6.1,0,0,0-3.68,1.48,12.07,12.07,0,0,0-3.41,5.17V40.15Z"/><path d="M158.21,40.81a13.69,13.69,0,0,1-5.42-1.07,17.24,17.24,0,0,1-4.32-2.61l1.54-2a20.54,20.54,0,0,0,3.63,2.33,10.28,10.28,0,0,0,4.68,1,6.24,6.24,0,0,0,4.56-1.52,4.74,4.74,0,0,0,1.54-3.49,3.87,3.87,0,0,0-1-2.67A7.71,7.71,0,0,0,161,29c-1-.48-2-.9-3-1.27q-2-.72-3.9-1.59A9.4,9.4,0,0,1,151,23.82a5.36,5.36,0,0,1-1.27-3.69,6.56,6.56,0,0,1,2.26-5A9,9,0,0,1,158.32,13a11.51,11.51,0,0,1,4.23.79,13.38,13.38,0,0,1,3.47,2l-1.43,2a19.47,19.47,0,0,0-2.86-1.71,7.73,7.73,0,0,0-3.41-.71,5.91,5.91,0,0,0-4.43,1.45,4.57,4.57,0,0,0-1.4,3.22,3.27,3.27,0,0,0,.91,2.37A7.71,7.71,0,0,0,155.73,24c1,.44,2,.84,3,1.21q2,.82,4,1.68A8.68,8.68,0,0,1,166,29.21a6,6,0,0,1,1.27,4.07,7,7,0,0,1-1,3.74,7.58,7.58,0,0,1-3.05,2.75A10.65,10.65,0,0,1,158.21,40.81Z"/><path d="M175.59,7.48a2.13,2.13,0,0,1-1.6-.69,2.39,2.39,0,0,1-.66-1.73A2.24,2.24,0,0,1,174,3.41a2.17,2.17,0,0,1,1.6-.66,2.14,2.14,0,0,1,1.62.66,2.3,2.3,0,0,1,.63,1.65,2.46,2.46,0,0,1-.63,1.73A2.09,2.09,0,0,1,175.59,7.48ZM174.1,40.15V13.7H177V40.15Z"/><path d="M194.29,40.81q-3.91,0-5.34-2.25a10.91,10.91,0,0,1-1.43-5.89V16.12h-4.07v-2.2l4.18-.22L188,6.05h2.37V13.7h7.59v2.42h-7.59V32.83a7.9,7.9,0,0,0,.9,4c.61,1,1.79,1.54,3.55,1.54a6.28,6.28,0,0,0,1.68-.25,8.37,8.37,0,0,0,1.57-.57l.71,2.25c-.77.26-1.56.49-2.36.69A9,9,0,0,1,194.29,40.81Z"/><path d="M203.53,52.08a6.61,6.61,0,0,1-1.49-.16,12.33,12.33,0,0,1-1.32-.38l.66-2.37,1,.25a4.92,4.92,0,0,0,1.13.14,5.12,5.12,0,0,0,4-1.93,13.94,13.94,0,0,0,2.59-4.84l.71-2.25L200,13.7h3l6.16,16.22c.44,1.14.91,2.37,1.4,3.69s1,2.58,1.46,3.79h.22c.4-1.21.82-2.47,1.24-3.79s.81-2.55,1.18-3.69l5.45-16.22H223L212.6,43.29a22.84,22.84,0,0,1-1.95,4.26,10.56,10.56,0,0,1-2.94,3.27A7,7,0,0,1,203.53,52.08Z"/><path d="M249.4,40.81a11.39,11.39,0,0,1-5.92-1.62,11.8,11.8,0,0,1-4.37-4.73A15.84,15.84,0,0,1,237.46,27a16,16,0,0,1,1.65-7.53,11.76,11.76,0,0,1,4.37-4.76,11.61,11.61,0,0,1,11.83,0,12,12,0,0,1,4.4,4.76A15.74,15.74,0,0,1,261.38,27a15.6,15.6,0,0,1-1.67,7.51,12,12,0,0,1-4.4,4.73A11.38,11.38,0,0,1,249.4,40.81Zm0-2.48A8,8,0,0,0,254,36.91a9.5,9.5,0,0,0,3.22-4,14.42,14.42,0,0,0,1.15-6,14.55,14.55,0,0,0-1.15-6A9.56,9.56,0,0,0,254,16.91a8.13,8.13,0,0,0-9.27,0A9.93,9.93,0,0,0,241.56,21a14.23,14.23,0,0,0-1.18,6,14.1,14.1,0,0,0,1.18,6,9.87,9.87,0,0,0,3.21,4A7.88,7.88,0,0,0,249.4,38.33Z"/><path d="M265.84,16.12v-2.2l3.74-.22h8.75v2.42Zm3.63,24v-32a11,11,0,0,1,.8-4.48A6,6,0,0,1,272.55.94,6.73,6.73,0,0,1,276.23,0a8.56,8.56,0,0,1,2,.25,10.65,10.65,0,0,1,1.93.63l-.72,2.26a6.71,6.71,0,0,0-1.57-.56,8.17,8.17,0,0,0-1.51-.16,3.42,3.42,0,0,0-3.08,1.51,7.89,7.89,0,0,0-1,4.32v31.9Z"/><path d="M308.08,40.81a14.08,14.08,0,0,1-7.92-2.28A15.19,15.19,0,0,1,294.74,32a23.74,23.74,0,0,1-1.95-10,24.93,24.93,0,0,1,1.13-7.78,17.52,17.52,0,0,1,3.21-5.91,13.71,13.71,0,0,1,4.95-3.74,15.39,15.39,0,0,1,6.33-1.27A11.51,11.51,0,0,1,314,4.62a14,14,0,0,1,3.9,3l-1.7,1.92a11.42,11.42,0,0,0-3.38-2.67,9.45,9.45,0,0,0-4.43-1,11.18,11.18,0,0,0-6.66,2,12.82,12.82,0,0,0-4.34,5.55A21.42,21.42,0,0,0,295.87,22a22.59,22.59,0,0,0,1.48,8.58,12.55,12.55,0,0,0,4.27,5.63,11,11,0,0,0,6.62,2A10.57,10.57,0,0,0,313.17,37a14,14,0,0,0,4-3.27l1.7,1.87a17.15,17.15,0,0,1-4.67,3.77A12.8,12.8,0,0,1,308.08,40.81Z"/><path d="M335.69,40.81a11.33,11.33,0,0,1-5.91-1.62,11.75,11.75,0,0,1-4.38-4.73A15.84,15.84,0,0,1,323.75,27a16,16,0,0,1,1.65-7.53,11.71,11.71,0,0,1,4.38-4.76,11.59,11.59,0,0,1,11.82,0,11.89,11.89,0,0,1,4.4,4.76A15.74,15.74,0,0,1,347.68,27,15.6,15.6,0,0,1,346,34.46a11.93,11.93,0,0,1-4.4,4.73A11.35,11.35,0,0,1,335.69,40.81Zm0-2.48a8,8,0,0,0,4.65-1.42,9.55,9.55,0,0,0,3.21-4,14.42,14.42,0,0,0,1.16-6,14.55,14.55,0,0,0-1.16-6,9.61,9.61,0,0,0-3.21-4.05,7.89,7.89,0,0,0-4.65-1.45,7.71,7.71,0,0,0-4.62,1.45A9.87,9.87,0,0,0,327.85,21a14.23,14.23,0,0,0-1.18,6,14.1,14.1,0,0,0,1.18,6,9.81,9.81,0,0,0,3.22,4A7.83,7.83,0,0,0,335.69,38.33Z"/><path d="M358.9,40.81a3.62,3.62,0,0,1-1.95-.49,2.93,2.93,0,0,1-1.19-1.52,7.41,7.41,0,0,1-.38-2.55V.66h2.86V36.58a2.14,2.14,0,0,0,.33,1.34,1,1,0,0,0,.82.41,2.82,2.82,0,0,0,.39,0l.6-.08.44,2.25-.82.22A4.85,4.85,0,0,1,358.9,40.81Z"/><path d="M378.37,40.81a11.33,11.33,0,0,1-5.91-1.62,11.75,11.75,0,0,1-4.38-4.73A15.84,15.84,0,0,1,366.43,27a16,16,0,0,1,1.65-7.53,11.71,11.71,0,0,1,4.38-4.76,11.59,11.59,0,0,1,11.82,0,11.89,11.89,0,0,1,4.4,4.76A15.74,15.74,0,0,1,390.36,27a15.6,15.6,0,0,1-1.68,7.51,11.93,11.93,0,0,1-4.4,4.73A11.35,11.35,0,0,1,378.37,40.81Zm0-2.48A8,8,0,0,0,383,36.91a9.55,9.55,0,0,0,3.21-4,14.42,14.42,0,0,0,1.16-6,14.55,14.55,0,0,0-1.16-6A9.61,9.61,0,0,0,383,16.91a7.89,7.89,0,0,0-4.65-1.45,7.71,7.71,0,0,0-4.62,1.45A9.87,9.87,0,0,0,370.53,21a14.23,14.23,0,0,0-1.18,6,14.1,14.1,0,0,0,1.18,6,9.81,9.81,0,0,0,3.22,4A7.83,7.83,0,0,0,378.37,38.33Z"/><path d="M398.06,40.15V13.7h2.36l.33,4h.11a18,18,0,0,1,3.94-3.33A8.25,8.25,0,0,1,409.22,13a7.23,7.23,0,0,1,4.84,1.45,8.31,8.31,0,0,1,2.48,3.88,21.75,21.75,0,0,1,4.4-3.9A8.11,8.11,0,0,1,425.45,13q4,0,6,2.53t1.95,7.64V40.15h-2.81V23.6q0-4.12-1.37-6.11a4.93,4.93,0,0,0-4.35-2,6.7,6.7,0,0,0-3.68,1.21,20.58,20.58,0,0,0-4,3.63v19.8h-2.8V23.6q0-4.12-1.4-6.11a5,5,0,0,0-4.38-2q-3.4,0-7.64,4.84v19.8Z"/><path d="M453.5,40.81a9.73,9.73,0,0,1-3.94-.91,17.05,17.05,0,0,1-3.93-2.44h-.11l-.27,2.69h-2.37V.66h2.86V12l-.16,5.06a25.21,25.21,0,0,1,4.31-2.83,10.59,10.59,0,0,1,10.54.47,9.86,9.86,0,0,1,3.54,4.7,19.6,19.6,0,0,1,1.19,7.12,16.71,16.71,0,0,1-1.63,7.7,12.29,12.29,0,0,1-4.26,4.9A10.47,10.47,0,0,1,453.5,40.81Zm-.22-2.48a7.52,7.52,0,0,0,4.59-1.48A9.92,9.92,0,0,0,461,32.73a15.44,15.44,0,0,0,1.16-6.22,18,18,0,0,0-.83-5.64,8.18,8.18,0,0,0-2.61-3.93,7.32,7.32,0,0,0-4.7-1.43,9,9,0,0,0-4,1,17.87,17.87,0,0,0-4.32,3.13V35a13.45,13.45,0,0,0,4.1,2.55A10.07,10.07,0,0,0,453.28,38.33Z"/><path d="M482.59,40.81a11.33,11.33,0,0,1-5.91-1.62,11.73,11.73,0,0,1-4.37-4.73A15.84,15.84,0,0,1,470.66,27a16,16,0,0,1,1.65-7.53,11.69,11.69,0,0,1,4.37-4.76,11.59,11.59,0,0,1,11.82,0,11.89,11.89,0,0,1,4.4,4.76A15.74,15.74,0,0,1,494.58,27a15.6,15.6,0,0,1-1.68,7.51,11.93,11.93,0,0,1-4.4,4.73A11.33,11.33,0,0,1,482.59,40.81Zm0-2.48a8,8,0,0,0,4.65-1.42,9.57,9.57,0,0,0,3.22-4,14.42,14.42,0,0,0,1.15-6,14.55,14.55,0,0,0-1.15-6,9.63,9.63,0,0,0-3.22-4.05,7.89,7.89,0,0,0-4.65-1.45A7.76,7.76,0,0,0,478,16.91,9.87,9.87,0,0,0,474.75,21a14.39,14.39,0,0,0-1.18,6,14.26,14.26,0,0,0,1.18,6,9.81,9.81,0,0,0,3.22,4A7.87,7.87,0,0,0,482.59,38.33Z"/></g></g></g></g></g></svg>