<svg xmlns="http://www.w3.org/2000/svg" width="56.144" height="72.5" viewBox="0 0 56.144 72.5">
  <g id="Group_1" data-name="Group 1" transform="translate(-48 -859)">
    <g id="Ellipse_1" data-name="Ellipse 1" transform="translate(57 859)" fill="none" stroke="#fff" stroke-width="6">
      <circle cx="19" cy="19" r="19" stroke="none"/>
      <circle cx="19" cy="19" r="16" fill="none"/>
    </g>
    <g id="Path_1" data-name="Path 1" transform="translate(48 892.402)" fill="none">
      <path d="M28.072,0A28.072,28.072,0,0,1,56.144,28.072c0,13.876-56.144,15.5-56.144,0A28.072,28.072,0,0,1,28.072,0Z" stroke="none"/>
      <path d="M 28.0720329284668 6 C 15.90147399902344 6 5.999992370605469 15.90146636962891 6.001312255859375 28.10034561157227 C 6.382579803466797 29.52273368835449 13.16151428222656 33.09782791137695 26.90841865539551 33.09782791137695 C 40.47169876098633 33.09782791137695 49.164794921875 29.63928031921387 50.14405822753906 28.07202529907227 C 50.14405822753906 15.90146636962891 40.24259185791016 6 28.0720329284668 6 M 28.0720329284668 0 C 43.57577896118164 0 56.14405822753906 12.56827926635742 56.14405822753906 28.07202529907227 C 56.14405822753906 41.94789123535156 -7.62939453125e-06 43.57578659057617 -7.62939453125e-06 28.07202529907227 C -7.62939453125e-06 12.56827926635742 12.56827163696289 0 28.0720329284668 0 Z" stroke="none" fill="#fff"/>
    </g>
  </g>
</svg>
