<?xml version="1.0" encoding="utf-8"?>
<!-- Generator: Adobe Illustrator 24.2.0, SVG Export Plug-In . SVG Version: 6.00 Build 0)  -->
<svg version="1.1" id="Layer_1" xmlns="http://www.w3.org/2000/svg" xmlns:xlink="http://www.w3.org/1999/xlink" x="0px" y="0px"
	 viewBox="0 0 500 373" style="enable-background:new 0 0 500 373;" xml:space="preserve">
<style type="text/css">
	.st0{fill:#EBEBEB;}
	.st1{fill:#C7C7C7;}
	.st2{fill:#DBDBDB;}
	.st3{fill:#FFFFFF;}
	.st4{fill:#263238;}
	.st5{fill:#455A64;}
	.st6{fill:#37474F;}
	.st7{fill:#8A2BE2;}
	.st8{fill:#AD6359;}
	.st9{fill:#A6A6A6;}
	.st10{opacity:0.1;enable-background:new    ;}
	.st11{fill:#FF9BBC;}
</style>
<g id="freepik--background-complete--inject-4">
	<path class="st0" d="M229.4,93.7l13.1-0.3l6.7-0.1c2.2-0.1,4.5,0,6.7-0.1h0.5v0.4l0,11.2v0.5h-0.5l-13.2-0.1
		c-4.4,0-8.8-0.1-13.2-0.2h-0.3v-0.3c0-1.9,0.1-3.8,0.1-5.6L229.4,93.7z M229.4,93.7l0.1,5.6c0,1.9,0.1,3.7,0.1,5.5l-0.3-0.3
		c4.4-0.1,8.8-0.2,13.2-0.2l13.2-0.1l-0.5,0.5V93.7l0.4,0.4c-2.2,0-4.4,0-6.5-0.1l-6.6-0.1L229.4,93.7z"/>
	<path class="st0" d="M244.1,79.6l13.1-0.3l6.7-0.1c2.2-0.1,4.5,0,6.7-0.1h0.4v0.4l0.1,11.2v0.5h-0.5l-13.2-0.1
		c-4.4,0-8.8-0.1-13.2-0.2h-0.3v-0.3c0-1.9,0.1-3.8,0.1-5.6L244.1,79.6z M244.1,79.6l0.1,5.6c0,1.9,0.1,3.7,0.1,5.5l-0.3-0.3
		c4.4-0.1,8.8-0.2,13.2-0.2l13.2-0.1l-0.5,0.5l0-11.2l0.5,0.4c-2.2,0-4.4,0-6.5-0.1l-6.6-0.1L244.1,79.6z"/>
	<path class="st0" d="M258.8,93.7l13.1-0.3l6.7-0.1c2.2-0.1,4.5,0,6.7-0.1h0.4v0.4l0,11.2v0.5h-0.5l-13.2-0.1
		c-4.4,0-8.8-0.1-13.2-0.2h-0.3v-0.3c0-1.9,0.1-3.8,0.1-5.6L258.8,93.7z M258.8,93.7l0.1,5.6c0,1.9,0.1,3.7,0.1,5.5l-0.3-0.3
		c4.4-0.1,8.8-0.2,13.2-0.2l13.2-0.1l-0.5,0.5l0-11.2l0.5,0.4c-2.2,0-4.4,0-6.5-0.1l-6.6-0.1L258.8,93.7z"/>
	<path class="st0" d="M56.1,247.9l13.1-0.3l6.7-0.1c2.2,0,4.5,0,6.7-0.1H83v0.5V259v0.5h-0.5l-13.2-0.1c-4.4,0-8.8-0.1-13.2-0.2
		h-0.3V259c0-1.9,0.1-3.8,0.1-5.7L56.1,247.9z M56.1,247.9l0.1,5.6c0,1.9,0.1,3.7,0.1,5.5l-0.3-0.3c4.4,0,8.8-0.1,13.2-0.2l13.2-0.1
		l-0.5,0.5l0.1-11.2l0.4,0.4c-2.2,0-4.3,0-6.5,0l-6.6-0.1L56.1,247.9z"/>
	<path class="st0" d="M41.3,233.7l13.1-0.3l6.7-0.1c2.2,0,4.5,0,6.7-0.1h0.4v0.5v11.2v0.5h-0.5l-13.2-0.1c-4.4,0-8.8-0.1-13.2-0.2
		H41v-0.3c0-1.9,0.1-3.8,0.1-5.7L41.3,233.7z M41.3,233.7l0.1,5.6c0,1.9,0.1,3.7,0.1,5.5l-0.3-0.3c4.4,0,8.8-0.1,13.2-0.2l13.2-0.1
		l-0.5,0.5l0.1-11.2l0.4,0.4c-2.2,0-4.4,0-6.5,0l-6.6-0.1L41.3,233.7z"/>
	<path class="st0" d="M417.4,247.9l13.1-0.3l6.7-0.1c2.2,0,4.5,0,6.7-0.1h0.4v0.5l0.1,11.2v0.5h-0.5l-13.2-0.1
		c-4.4,0-8.8-0.1-13.2-0.2h-0.3V259c0-1.9,0.1-3.8,0.1-5.7L417.4,247.9z M417.4,247.9l0.1,5.6c0,1.9,0.1,3.7,0.1,5.5l-0.3-0.3
		c4.4,0,8.8-0.1,13.2-0.2l13.2-0.1l-0.5,0.5l0-11.2l0.5,0.4c-2.2,0-4.4,0-6.5,0l-6.6-0.1L417.4,247.9z"/>
	<polygon class="st0" points="378.8,360.5 377.8,360.5 377.8,235 351,198.5 351,130 352,130 352,198.2 378.8,234.6 	"/>
	<path class="st0" d="M351.5,130.5c-1.6,0-2.9-1.3-2.9-2.9c0-1.6,1.3-2.9,2.9-2.9c1.6,0,2.9,1.3,2.9,2.9c0,0,0,0,0,0
		C354.4,129.2,353.1,130.5,351.5,130.5z M351.5,125.8c-1,0-1.9,0.8-1.9,1.9s0.8,1.9,1.9,1.9s1.9-0.8,1.9-1.9c0,0,0,0,0,0
		C353.4,126.6,352.6,125.8,351.5,125.8z"/>
	<polygon class="st0" points="371.9,360.5 370.9,360.5 370.9,239.4 344.2,202.9 344.2,155 345.2,155 345.2,202.6 371.9,239.1 	"/>
	<path class="st0" d="M344.7,155.5c-1.6,0-2.9-1.3-2.9-2.9s1.3-2.9,2.9-2.9c1.6,0,2.9,1.3,2.9,2.9S346.3,155.5,344.7,155.5
		L344.7,155.5z M344.7,150.8c-1,0-1.9,0.8-1.9,1.9c0,1,0.8,1.9,1.9,1.9s1.9-0.8,1.9-1.9c0,0,0,0,0,0
		C346.5,151.6,345.7,150.8,344.7,150.8C344.7,150.8,344.7,150.8,344.7,150.8z"/>
	<rect x="384.4" y="194.1" class="st0" width="1" height="166.4"/>
	<path class="st0" d="M384.9,194.6c-1.6,0-2.9-1.3-2.9-2.9s1.3-2.9,2.9-2.9s2.9,1.3,2.9,2.9S386.5,194.6,384.9,194.6L384.9,194.6z
		 M384.9,189.8c-1,0-1.9,0.8-1.9,1.9c0,1,0.8,1.9,1.9,1.9c1,0,1.9-0.8,1.9-1.9c0,0,0,0,0,0C386.8,190.7,386,189.8,384.9,189.8
		C384.9,189.8,384.9,189.8,384.9,189.8z"/>
	<polygon class="st0" points="391.8,360.5 390.8,360.5 390.8,275.8 408.9,241.5 408.9,180.3 409.9,180.3 409.9,241.8 391.8,276 	"/>
	<path class="st0" d="M409.4,180.8c-1.6,0-2.9-1.3-2.9-2.9c0-1.6,1.3-2.9,2.9-2.9c1.6,0,2.9,1.3,2.9,2.9c0,0,0,0,0,0
		C412.3,179.5,411,180.8,409.4,180.8z M409.4,176.1c-1,0-1.9,0.8-1.9,1.9s0.8,1.9,1.9,1.9s1.9-0.8,1.9-1.9S410.5,176.1,409.4,176.1
		L409.4,176.1z"/>
	<polygon class="st0" points="398.1,360.5 397.1,360.5 397.1,279.4 418.5,241.6 418.5,201.3 419.5,201.3 419.5,241.9 398.1,279.7 	
		"/>
	<path class="st0" d="M419,201.8c-1.6,0-2.9-1.3-2.9-2.9c0-1.6,1.3-2.9,2.9-2.9c1.6,0,2.9,1.3,2.9,2.9c0,0,0,0,0,0
		C421.9,200.5,420.6,201.8,419,201.8z M419,197c-1,0-1.9,0.8-1.9,1.9s0.8,1.9,1.9,1.9s1.9-0.8,1.9-1.9S420,197,419,197L419,197z"/>
	<path class="st0" d="M438.5,141.8l7-11.3l-3.5-2.1c-1-0.6-1.6-1.8-1.5-3c0.1-0.7,0.1-1.3,0.1-2c0-1.2,0.6-2.3,1.6-2.9l3.6-1.9
		l-6.3-11.6l-3.6,1.9c-1,0.6-2.3,0.5-3.3-0.2c-0.5-0.4-1.1-0.7-1.7-1c-1-0.6-1.7-1.7-1.6-2.9l0.1-4.1l-13.2-0.4l-0.1,4.1
		c-0.1,1.2-0.8,2.2-1.9,2.7c-0.3,0.1-0.6,0.3-0.9,0.4l-0.9,0.5c-1,0.6-2.3,0.6-3.3,0l-3.4-2.1l-7,11.3l3.5,2.1c1,0.6,1.6,1.8,1.5,3
		c-0.1,0.7-0.1,1.3-0.1,2c0,1.2-0.6,2.3-1.6,2.9l-3.6,1.9l6.3,11.7l3.6-1.9c1-0.6,2.3-0.5,3.3,0.2c0.5,0.4,1.1,0.7,1.7,1
		c1.1,0.6,1.7,1.7,1.7,2.9l-0.1,4.1l13.2,0.4l0.1-4.1c0.1-1.2,0.8-2.2,1.8-2.7c0.3-0.1,0.6-0.3,0.9-0.4s0.6-0.3,0.9-0.5
		c1-0.6,2.3-0.6,3.3,0L438.5,141.8z M427.3,133.4c-5.3,2.8-11.8,0.8-14.7-4.4c-2.8-5.3-0.8-11.8,4.4-14.7c5.3-2.8,11.8-0.8,14.7,4.4
		C434.6,124,432.6,130.6,427.3,133.4C427.3,133.4,427.3,133.4,427.3,133.4z"/>
	<path class="st0" d="M74.6,45.2l8-4.6l-1.4-2.5c-0.4-0.7-0.4-1.6,0.1-2.3c0.3-0.4,0.5-0.8,0.7-1.2c0.4-0.8,1.2-1.2,2-1.2h2.8v-9.3
		H84c-0.8,0-1.6-0.5-2-1.2c-0.2-0.4-0.4-0.8-0.7-1.2c-0.5-0.7-0.5-1.6-0.1-2.3l1.4-2.4l-8-4.6l-1.4,2.5c-0.4,0.7-1.2,1.1-2,1.1h-0.7
		h-0.7c-0.8,0-1.6-0.4-2-1.1l-1.4-2.5l-8,4.6l1.4,2.5c0.4,0.7,0.4,1.6-0.1,2.3c-0.2,0.4-0.5,0.8-0.7,1.2c-0.4,0.8-1.2,1.2-2,1.2
		h-2.9v9.3H57c0.8,0,1.6,0.5,2,1.2c0.2,0.4,0.4,0.8,0.7,1.2c0.5,0.7,0.5,1.6,0.1,2.3l-1.4,2.5l8,4.6l1.4-2.5c0.4-0.7,1.2-1.1,2-1.1
		h0.7h0.7c0.8,0,1.6,0.4,2,1.1L74.6,45.2z M70.5,36.3c-4.2,0-7.6-3.4-7.6-7.6s3.4-7.6,7.6-7.6s7.6,3.4,7.6,7.6l0,0
		C78.1,32.9,74.7,36.3,70.5,36.3z"/>
	<path class="st0" d="M397.6,149.9l-4.6-8l-2.5,1.4c-0.7,0.4-1.6,0.4-2.3-0.1c-0.4-0.3-0.8-0.5-1.2-0.7c-0.8-0.4-1.2-1.2-1.2-2v-2.8
		h-9.3v2.8c0,0.8-0.5,1.6-1.2,2c-0.4,0.2-0.8,0.4-1.2,0.7c-0.7,0.5-1.6,0.5-2.3,0.1l-2.5-1.4l-4.6,8l2.5,1.4c0.7,0.4,1.1,1.2,1.1,2
		c0,0.2,0,0.4,0,0.7s0,0.5,0,0.7c0,0.8-0.4,1.6-1.1,2l-2.5,1.4l4.6,8l2.5-1.4c0.7-0.4,1.6-0.4,2.3,0.1c0.4,0.3,0.8,0.5,1.2,0.7
		c0.8,0.4,1.2,1.2,1.2,2v2.8h9.3v-2.8c0-0.8,0.5-1.6,1.2-2c0.4-0.2,0.8-0.4,1.2-0.7c0.7-0.5,1.6-0.5,2.3-0.1l2.5,1.4l4.6-8l-2.5-1.4
		c-0.7-0.4-1.1-1.2-1.1-2c0-0.2,0-0.5,0-0.7s0-0.5,0-0.7c0-0.8,0.4-1.6,1.1-2L397.6,149.9z M388.8,154.1c0,4.2-3.4,7.6-7.6,7.6
		s-7.6-3.4-7.6-7.6c0-4.2,3.4-7.6,7.6-7.6S388.8,149.9,388.8,154.1C388.8,154.1,388.8,154.1,388.8,154.1L388.8,154.1z"/>
	<rect x="155.2" y="119.8" class="st1" width="56.4" height="240.8"/>
	<rect x="51.4" y="119.8" class="st0" width="103.9" height="240.8"/>
	<rect x="57.9" y="333" class="st2" width="89.6" height="20.7"/>
	<rect x="92.7" y="336.4" class="st0" width="51" height="1.8"/>
	<rect x="92.7" y="339.4" class="st0" width="51" height="1.8"/>
	<rect x="92.7" y="342.4" class="st0" width="51" height="1.8"/>
	<rect x="92.7" y="345.5" class="st0" width="51" height="1.8"/>
	<rect x="92.7" y="348.5" class="st0" width="51" height="1.8"/>
	<path class="st3" d="M83.4,338.1c0,1,0.8,1.7,1.7,1.7s1.7-0.8,1.7-1.7c0-1-0.8-1.7-1.7-1.7C84.1,336.4,83.4,337.2,83.4,338.1
		L83.4,338.1z"/>
	<path class="st3" d="M77.7,338.1c0,1,0.8,1.7,1.7,1.7s1.7-0.8,1.7-1.7c0-1-0.8-1.7-1.7-1.7C78.4,336.4,77.7,337.2,77.7,338.1
		L77.7,338.1z"/>
	<path class="st3" d="M72,338.1c0,1,0.8,1.7,1.7,1.7s1.7-0.8,1.7-1.7c0-1-0.8-1.7-1.7-1.7C72.8,336.4,72,337.2,72,338.1z"/>
	<path class="st3" d="M66.2,338.1c0,1,0.8,1.7,1.7,1.7c1,0,1.7-0.8,1.7-1.7c0-0.9-0.8-1.7-1.7-1.7C67,336.4,66.3,337.1,66.2,338.1
		C66.2,338.1,66.2,338.1,66.2,338.1z"/>
	<path class="st3" d="M60.5,338.1c0,1,0.8,1.7,1.7,1.7s1.7-0.8,1.7-1.7c0-1-0.8-1.7-1.7-1.7c0,0,0,0,0,0
		C61.3,336.4,60.5,337.2,60.5,338.1z"/>
	<path class="st3" d="M83.4,343.3c0,1,0.8,1.7,1.7,1.7s1.7-0.8,1.7-1.7c0-1-0.8-1.7-1.7-1.7C84.2,341.6,83.4,342.3,83.4,343.3
		C83.4,343.3,83.4,343.3,83.4,343.3z"/>
	<path class="st3" d="M77.7,343.3c0,1,0.8,1.7,1.7,1.7s1.7-0.8,1.7-1.7c0-1-0.8-1.7-1.7-1.7C78.4,341.6,77.7,342.3,77.7,343.3
		C77.7,343.3,77.7,343.3,77.7,343.3z"/>
	<path class="st3" d="M72,343.3c0,1,0.8,1.7,1.7,1.7s1.7-0.8,1.7-1.7c0-1-0.8-1.7-1.7-1.7C72.8,341.6,72,342.4,72,343.3L72,343.3z"
		/>
	<path class="st3" d="M66.2,343.3c0,1,0.8,1.7,1.7,1.7s1.7-0.8,1.7-1.7c0-0.9-0.8-1.7-1.7-1.7C67,341.6,66.3,342.3,66.2,343.3
		C66.2,343.3,66.2,343.3,66.2,343.3z"/>
	<path class="st3" d="M60.5,343.3c0,1,0.8,1.7,1.7,1.7s1.7-0.8,1.7-1.7c0-1-0.8-1.7-1.7-1.7c0,0,0,0,0,0
		C61.3,341.6,60.5,342.4,60.5,343.3L60.5,343.3z"/>
	<path class="st3" d="M83.4,348.5c0,1,0.8,1.7,1.7,1.7s1.7-0.8,1.7-1.7c0-1-0.8-1.7-1.7-1.7C84.1,346.8,83.4,347.6,83.4,348.5
		L83.4,348.5z"/>
	<path class="st3" d="M77.7,348.5c0,1,0.8,1.7,1.7,1.7s1.7-0.8,1.7-1.7c0-1-0.8-1.7-1.7-1.7C78.4,346.8,77.7,347.6,77.7,348.5
		L77.7,348.5z"/>
	<path class="st3" d="M72,348.5c0,1,0.8,1.7,1.7,1.7s1.7-0.8,1.7-1.7c0-1-0.8-1.7-1.7-1.7C72.8,346.8,72,347.6,72,348.5z"/>
	<path class="st3" d="M66.2,348.5c0,1,0.8,1.7,1.7,1.7s1.7-0.8,1.7-1.7c0-0.9-0.8-1.7-1.7-1.7C67,346.8,66.3,347.5,66.2,348.5
		C66.2,348.5,66.2,348.5,66.2,348.5z"/>
	<path class="st3" d="M60.5,348.5c0,1,0.8,1.7,1.7,1.7s1.7-0.8,1.7-1.7c0-1-0.8-1.7-1.7-1.7c0,0,0,0,0,0
		C61.3,346.8,60.5,347.6,60.5,348.5z"/>
	<rect x="89.1" y="336.4" class="st1" width="1" height="13.9"/>
	<rect x="57.9" y="308" class="st2" width="89.6" height="20.7"/>
	<rect x="92.7" y="311.5" class="st0" width="51" height="1.8"/>
	<rect x="92.7" y="314.5" class="st0" width="51" height="1.8"/>
	<rect x="92.7" y="317.5" class="st0" width="51" height="1.8"/>
	<rect x="92.7" y="320.5" class="st0" width="51" height="1.8"/>
	<rect x="92.7" y="323.6" class="st0" width="51" height="1.8"/>
	<circle class="st3" cx="85.1" cy="313.2" r="1.7"/>
	<circle class="st3" cx="79.4" cy="313.2" r="1.7"/>
	<path class="st3" d="M72,313.2c0,1,0.8,1.7,1.7,1.7s1.7-0.8,1.7-1.7c0-1-0.8-1.7-1.7-1.7C72.8,311.5,72,312.2,72,313.2z"/>
	<path class="st3" d="M66.2,313.2c0,1,0.8,1.7,1.7,1.7c1,0,1.7-0.8,1.7-1.7c0-0.9-0.8-1.7-1.7-1.7C67,311.4,66.3,312.2,66.2,313.2
		C66.2,313.2,66.2,313.2,66.2,313.2z"/>
	<path class="st3" d="M60.5,313.2c0,1,0.8,1.7,1.7,1.7s1.7-0.8,1.7-1.7c0-1-0.8-1.7-1.7-1.7c0,0,0,0,0,0
		C61.3,311.5,60.5,312.2,60.5,313.2z"/>
	<circle class="st3" cx="85.1" cy="318.4" r="1.7"/>
	<circle class="st3" cx="79.4" cy="318.4" r="1.7"/>
	<path class="st3" d="M72,318.4c0,1,0.8,1.7,1.7,1.7s1.7-0.8,1.7-1.7c0-1-0.8-1.7-1.7-1.7C72.8,316.6,72,317.4,72,318.4L72,318.4z"
		/>
	<path class="st3" d="M66.2,318.4c0,1,0.8,1.7,1.7,1.7s1.7-0.8,1.7-1.7c0-0.9-0.8-1.7-1.7-1.7C67,316.6,66.3,317.4,66.2,318.4
		C66.2,318.4,66.2,318.4,66.2,318.4z"/>
	<path class="st3" d="M60.5,318.4c0,1,0.8,1.7,1.7,1.7s1.7-0.8,1.7-1.7c0-1-0.8-1.7-1.7-1.7c0,0,0,0,0,0
		C61.3,316.6,60.5,317.4,60.5,318.4L60.5,318.4z"/>
	<circle class="st3" cx="85.1" cy="323.6" r="1.7"/>
	<circle class="st3" cx="79.4" cy="323.6" r="1.7"/>
	<path class="st3" d="M72,323.6c0,1,0.8,1.7,1.7,1.7s1.7-0.8,1.7-1.7c0-1-0.8-1.7-1.7-1.7C72.8,321.8,72,322.6,72,323.6z"/>
	<path class="st3" d="M66.2,323.6c0,1,0.8,1.7,1.7,1.7s1.7-0.8,1.7-1.7c0-0.9-0.8-1.7-1.7-1.7C67,321.8,66.3,322.6,66.2,323.6
		C66.2,323.6,66.2,323.6,66.2,323.6z"/>
	<path class="st3" d="M60.5,323.6c0,1,0.8,1.7,1.7,1.7s1.7-0.8,1.7-1.7c0-1-0.8-1.7-1.7-1.7c0,0,0,0,0,0
		C61.3,321.8,60.5,322.6,60.5,323.6z"/>
	<rect x="89.1" y="311.5" class="st1" width="1" height="13.9"/>
	<rect x="57.9" y="283.1" class="st2" width="89.6" height="20.7"/>
	<rect x="92.7" y="286.5" class="st0" width="51" height="1.8"/>
	<rect x="92.7" y="289.5" class="st0" width="51" height="1.8"/>
	<rect x="92.7" y="292.6" class="st0" width="51" height="1.8"/>
	<rect x="92.7" y="295.6" class="st0" width="51" height="1.8"/>
	<rect x="92.7" y="298.6" class="st0" width="51" height="1.8"/>
	<path class="st3" d="M83.4,288.3c0,1,0.8,1.7,1.7,1.7s1.7-0.8,1.7-1.7c0-1-0.8-1.7-1.7-1.7C84.2,286.5,83.4,287.3,83.4,288.3
		C83.4,288.2,83.4,288.2,83.4,288.3z"/>
	<path class="st3" d="M77.7,288.3c0,1,0.8,1.7,1.7,1.7s1.7-0.8,1.7-1.7c0-1-0.8-1.7-1.7-1.7C78.4,286.5,77.7,287.3,77.7,288.3
		C77.7,288.2,77.7,288.2,77.7,288.3z"/>
	<path class="st3" d="M72,288.3c0,1,0.8,1.7,1.7,1.7s1.7-0.8,1.7-1.7c0-1-0.8-1.7-1.7-1.7C72.8,286.5,72,287.3,72,288.3L72,288.3z"
		/>
	<path class="st3" d="M66.2,288.3c0,1,0.8,1.7,1.7,1.7s1.7-0.8,1.7-1.7c0-0.9-0.8-1.7-1.7-1.7C67,286.5,66.3,287.3,66.2,288.3
		C66.2,288.2,66.2,288.2,66.2,288.3z"/>
	<path class="st3" d="M60.5,288.3c0,1,0.8,1.7,1.7,1.7s1.7-0.8,1.7-1.7c0-1-0.8-1.7-1.7-1.7c0,0,0,0,0,0
		C61.3,286.5,60.5,287.3,60.5,288.3L60.5,288.3z"/>
	<path class="st3" d="M83.4,293.5c0,1,0.8,1.7,1.7,1.7c1,0,1.7-0.8,1.7-1.7c0-1-0.8-1.7-1.7-1.7C84.1,291.7,83.4,292.5,83.4,293.5
		C83.4,293.4,83.4,293.4,83.4,293.5z"/>
	<path class="st3" d="M77.7,293.5c0,1,0.8,1.7,1.7,1.7c1,0,1.7-0.8,1.7-1.7c0-1-0.8-1.7-1.7-1.7C78.4,291.7,77.7,292.5,77.7,293.5
		C77.7,293.4,77.7,293.4,77.7,293.5z"/>
	<path class="st3" d="M72,293.5c0,1,0.8,1.7,1.7,1.7c1,0,1.7-0.8,1.7-1.7c0-1-0.8-1.7-1.7-1.7C72.8,291.7,72,292.5,72,293.5z"/>
	<path class="st3" d="M66.2,293.5c0,1,0.8,1.7,1.7,1.7s1.7-0.8,1.7-1.7c0-0.9-0.8-1.7-1.7-1.7C67,291.7,66.3,292.5,66.2,293.5
		C66.2,293.4,66.2,293.4,66.2,293.5z"/>
	<path class="st3" d="M60.5,293.5c0,1,0.8,1.7,1.7,1.7c1,0,1.7-0.8,1.7-1.7c0-1-0.8-1.7-1.7-1.7c0,0,0,0,0,0
		C61.3,291.7,60.5,292.5,60.5,293.5z"/>
	<path class="st3" d="M83.4,298.6c0,1,0.8,1.7,1.7,1.7s1.7-0.8,1.7-1.7c0-1-0.8-1.7-1.7-1.7C84.2,296.9,83.4,297.7,83.4,298.6
		C83.4,298.6,83.4,298.6,83.4,298.6z"/>
	<path class="st3" d="M77.7,298.6c0,1,0.8,1.7,1.7,1.7s1.7-0.8,1.7-1.7c0-1-0.8-1.7-1.7-1.7C78.4,296.9,77.7,297.7,77.7,298.6
		C77.7,298.6,77.7,298.6,77.7,298.6z"/>
	<path class="st3" d="M72,298.6c0,1,0.8,1.7,1.7,1.7s1.7-0.8,1.7-1.7c0-1-0.8-1.7-1.7-1.7C72.8,296.9,72,297.7,72,298.6L72,298.6z"
		/>
	<path class="st3" d="M66.2,298.6c0,1,0.8,1.7,1.7,1.7s1.7-0.8,1.7-1.7c0-0.9-0.8-1.7-1.7-1.7C67,296.9,66.3,297.7,66.2,298.6
		C66.2,298.6,66.2,298.6,66.2,298.6z"/>
	<path class="st3" d="M60.5,298.6c0,1,0.8,1.7,1.7,1.7s1.7-0.8,1.7-1.7c0-1-0.8-1.7-1.7-1.7c0,0,0,0,0,0
		C61.3,296.9,60.5,297.7,60.5,298.6L60.5,298.6z"/>
	<rect x="89.1" y="286.5" class="st1" width="1" height="13.9"/>
	<rect x="57.9" y="258.2" class="st2" width="89.6" height="20.7"/>
	<rect x="92.7" y="261.6" class="st0" width="51" height="1.8"/>
	<rect x="92.7" y="264.6" class="st0" width="51" height="1.8"/>
	<rect x="92.7" y="267.6" class="st0" width="51" height="1.8"/>
	<rect x="92.7" y="270.7" class="st0" width="51" height="1.8"/>
	<rect x="92.7" y="273.7" class="st0" width="51" height="1.8"/>
	<path class="st3" d="M83.4,263.3c0,1,0.8,1.7,1.7,1.7s1.7-0.8,1.7-1.7c0-1-0.8-1.7-1.7-1.7C84.1,261.6,83.4,262.4,83.4,263.3
		L83.4,263.3z"/>
	<path class="st3" d="M77.7,263.3c0,1,0.8,1.7,1.7,1.7s1.7-0.8,1.7-1.7c0-1-0.8-1.7-1.7-1.7C78.4,261.6,77.7,262.4,77.7,263.3
		L77.7,263.3z"/>
	<path class="st3" d="M72,263.3c0,1,0.8,1.7,1.7,1.7s1.7-0.8,1.7-1.7c0-1-0.8-1.7-1.7-1.7C72.8,261.6,72,262.4,72,263.3z"/>
	<path class="st3" d="M66.2,263.3c0,1,0.8,1.7,1.7,1.7s1.7-0.8,1.7-1.7c0-0.9-0.8-1.7-1.7-1.7C67,261.6,66.3,262.3,66.2,263.3
		C66.2,263.3,66.2,263.3,66.2,263.3z"/>
	<path class="st3" d="M60.5,263.3c0,1,0.8,1.7,1.7,1.7s1.7-0.8,1.7-1.7c0-1-0.8-1.7-1.7-1.7c0,0,0,0,0,0
		C61.3,261.6,60.5,262.4,60.5,263.3z"/>
	<path class="st3" d="M83.4,268.5c0,1,0.8,1.7,1.7,1.7s1.7-0.8,1.7-1.7c0-1-0.8-1.7-1.7-1.7C84.2,266.8,83.4,267.5,83.4,268.5
		C83.4,268.5,83.4,268.5,83.4,268.5z"/>
	<path class="st3" d="M77.7,268.5c0,1,0.8,1.7,1.7,1.7s1.7-0.8,1.7-1.7c0-1-0.8-1.7-1.7-1.7C78.4,266.8,77.7,267.5,77.7,268.5
		C77.7,268.5,77.7,268.5,77.7,268.5z"/>
	<path class="st3" d="M72,268.5c0,1,0.8,1.7,1.7,1.7s1.7-0.8,1.7-1.7c0-1-0.8-1.7-1.7-1.7C72.8,266.8,72,267.6,72,268.5L72,268.5z"
		/>
	<path class="st3" d="M66.2,268.5c0,1,0.8,1.7,1.7,1.7s1.7-0.8,1.7-1.7c0-0.9-0.8-1.7-1.7-1.7C67,266.8,66.3,267.5,66.2,268.5
		C66.2,268.5,66.2,268.5,66.2,268.5z"/>
	<path class="st3" d="M60.5,268.5c0,1,0.8,1.7,1.7,1.7s1.7-0.8,1.7-1.7c0-1-0.8-1.7-1.7-1.7c0,0,0,0,0,0
		C61.3,266.8,60.5,267.6,60.5,268.5L60.5,268.5z"/>
	<path class="st3" d="M83.4,273.7c0,1,0.8,1.7,1.7,1.7c1,0,1.7-0.8,1.7-1.7c0-1-0.8-1.7-1.7-1.7c0,0,0,0,0,0
		C84.2,272,83.4,272.8,83.4,273.7z"/>
	<path class="st3" d="M77.7,273.7c0,1,0.8,1.7,1.7,1.7c1,0,1.7-0.8,1.7-1.7c0-1-0.8-1.7-1.7-1.7c0,0,0,0,0,0
		C78.4,272,77.7,272.8,77.7,273.7z"/>
	<path class="st3" d="M72,273.7c0,1,0.8,1.7,1.7,1.7c1,0,1.7-0.8,1.7-1.7s-0.8-1.7-1.7-1.7c0,0,0,0-0.1,0
		C72.8,272,72,272.8,72,273.7z"/>
	<path class="st3" d="M66.2,273.7c0,1,0.8,1.7,1.7,1.7s1.7-0.8,1.7-1.7c0-1-0.7-1.7-1.7-1.7C67,272,66.3,272.8,66.2,273.7z"/>
	<path class="st3" d="M60.5,273.7c0,1,0.7,1.8,1.7,1.8c1,0,1.8-0.7,1.8-1.7c0-1-0.7-1.8-1.7-1.8c0,0,0,0,0,0
		C61.3,272,60.5,272.8,60.5,273.7z"/>
	<rect x="89.1" y="261.6" class="st1" width="1" height="13.9"/>
	<rect x="57.9" y="233.2" class="st2" width="89.6" height="20.7"/>
	<rect x="92.7" y="236.6" class="st0" width="51" height="1.8"/>
	<rect x="92.7" y="239.7" class="st0" width="51" height="1.8"/>
	<rect x="92.7" y="242.7" class="st0" width="51" height="1.8"/>
	<rect x="92.7" y="245.7" class="st0" width="51" height="1.8"/>
	<rect x="92.7" y="248.8" class="st0" width="51" height="1.8"/>
	<path class="st3" d="M83.4,238.4c0,1,0.8,1.7,1.7,1.7s1.7-0.8,1.7-1.7c0-1-0.8-1.7-1.7-1.7C84.1,236.6,83.4,237.4,83.4,238.4
		L83.4,238.4z"/>
	<path class="st3" d="M77.7,238.4c0,1,0.8,1.7,1.7,1.7s1.7-0.8,1.7-1.7c0-1-0.8-1.7-1.7-1.7C78.4,236.6,77.7,237.4,77.7,238.4
		L77.7,238.4z"/>
	<path class="st3" d="M72,238.4c0,1,0.8,1.7,1.7,1.7s1.7-0.8,1.7-1.7c0-1-0.8-1.7-1.7-1.7C72.8,236.7,72,237.4,72,238.4z"/>
	<path class="st3" d="M66.2,238.4c0,1,0.8,1.7,1.7,1.7s1.7-0.8,1.7-1.7c0-0.9-0.8-1.7-1.7-1.7C67,236.6,66.3,237.4,66.2,238.4
		C66.2,238.4,66.2,238.4,66.2,238.4z"/>
	<path class="st3" d="M60.5,238.4c0,1,0.8,1.7,1.7,1.7s1.7-0.8,1.7-1.7c0-1-0.8-1.7-1.7-1.7c0,0,0,0,0,0
		C61.3,236.7,60.5,237.4,60.5,238.4z"/>
	<path class="st3" d="M83.4,243.6c0,1,0.8,1.7,1.7,1.7s1.7-0.8,1.7-1.7c0-1-0.8-1.7-1.7-1.7C84.2,241.8,83.4,242.6,83.4,243.6
		C83.4,243.6,83.4,243.6,83.4,243.6z"/>
	<path class="st3" d="M77.7,243.6c0,1,0.8,1.7,1.7,1.7s1.7-0.8,1.7-1.7c0-1-0.8-1.7-1.7-1.7C78.4,241.8,77.7,242.6,77.7,243.6
		C77.7,243.6,77.7,243.6,77.7,243.6z"/>
	<path class="st3" d="M72,243.6c0,1,0.8,1.7,1.7,1.7s1.7-0.8,1.7-1.7c0-1-0.8-1.7-1.7-1.7C72.8,241.8,72,242.6,72,243.6L72,243.6z"
		/>
	<path class="st3" d="M66.2,243.6c0,1,0.8,1.7,1.7,1.7c1,0,1.7-0.8,1.7-1.7c0-0.9-0.8-1.7-1.7-1.7C67,241.8,66.3,242.6,66.2,243.6
		C66.2,243.6,66.2,243.6,66.2,243.6z"/>
	<path class="st3" d="M60.5,243.6c0,1,0.8,1.7,1.7,1.7s1.7-0.8,1.7-1.7c0-1-0.8-1.7-1.7-1.7c0,0,0,0,0,0
		C61.3,241.8,60.5,242.6,60.5,243.6L60.5,243.6z"/>
	<path class="st3" d="M83.4,248.8c0,1,0.8,1.7,1.8,1.7c1,0,1.7-0.8,1.7-1.8c0-0.9-0.8-1.7-1.7-1.7C84.1,247,83.4,247.8,83.4,248.8
		C83.4,248.7,83.4,248.8,83.4,248.8z"/>
	<path class="st3" d="M77.7,248.8c0,1,0.8,1.7,1.8,1.7c1,0,1.7-0.8,1.7-1.8c0-0.9-0.8-1.7-1.7-1.7C78.4,247,77.7,247.8,77.7,248.8
		C77.7,248.7,77.7,248.8,77.7,248.8z"/>
	<path class="st3" d="M72,248.8c0,1,0.8,1.7,1.8,1.7c1,0,1.7-0.8,1.7-1.8c0-1-0.8-1.7-1.8-1.7c0,0,0,0,0,0
		C72.7,247,72,247.8,72,248.8z"/>
	<path class="st3" d="M66.2,248.8c0,1,0.8,1.7,1.8,1.7c1,0,1.7-0.8,1.7-1.8c0-0.9-0.8-1.7-1.7-1.7C67,247,66.3,247.8,66.2,248.8
		C66.2,248.7,66.2,248.8,66.2,248.8z"/>
	<path class="st3" d="M60.5,248.8c0,1,0.8,1.7,1.8,1.7c1,0,1.7-0.8,1.7-1.8c0-1-0.8-1.7-1.7-1.7C61.3,247,60.5,247.8,60.5,248.8
		C60.5,248.8,60.5,248.8,60.5,248.8z"/>
	<rect x="89.1" y="236.7" class="st1" width="1" height="13.9"/>
	<rect x="57.9" y="208.3" class="st2" width="89.6" height="20.7"/>
	<rect x="92.7" y="211.7" class="st0" width="51" height="1.8"/>
	<rect x="92.7" y="214.7" class="st0" width="51" height="1.8"/>
	<rect x="92.7" y="217.8" class="st0" width="51" height="1.8"/>
	<rect x="92.7" y="220.8" class="st0" width="51" height="1.8"/>
	<rect x="92.7" y="223.8" class="st0" width="51" height="1.8"/>
	<path class="st3" d="M83.4,213.5c0,1,0.8,1.7,1.7,1.7s1.7-0.8,1.7-1.7c0-1-0.8-1.7-1.7-1.7C84.2,211.7,83.4,212.5,83.4,213.5
		C83.4,213.4,83.4,213.4,83.4,213.5z"/>
	<path class="st3" d="M77.7,213.5c0,1,0.8,1.7,1.7,1.7s1.7-0.8,1.7-1.7c0-1-0.8-1.7-1.7-1.7C78.4,211.7,77.7,212.5,77.7,213.5
		C77.7,213.4,77.7,213.4,77.7,213.5z"/>
	<path class="st3" d="M72,213.5c0,1,0.8,1.7,1.7,1.7s1.7-0.8,1.7-1.7c0-1-0.8-1.7-1.7-1.7C72.8,211.7,72,212.5,72,213.5L72,213.5z"
		/>
	<path class="st3" d="M66.2,213.5c0,1,0.8,1.7,1.7,1.7s1.7-0.8,1.7-1.7c0-0.9-0.8-1.7-1.7-1.7C67,211.7,66.3,212.5,66.2,213.5
		C66.2,213.4,66.2,213.4,66.2,213.5z"/>
	<path class="st3" d="M60.5,213.5c0,1,0.8,1.7,1.7,1.7s1.7-0.8,1.7-1.7c0-1-0.8-1.7-1.7-1.7c0,0,0,0,0,0
		C61.3,211.7,60.5,212.5,60.5,213.5L60.5,213.5z"/>
	<path class="st3" d="M83.4,218.6c0,1,0.8,1.7,1.7,1.7c1,0,1.7-0.8,1.7-1.7c0-1-0.8-1.7-1.7-1.7C84.1,216.9,83.4,217.7,83.4,218.6
		C83.4,218.6,83.4,218.6,83.4,218.6z"/>
	<path class="st3" d="M77.7,218.6c0,1,0.8,1.7,1.7,1.7c1,0,1.7-0.8,1.7-1.7c0-1-0.8-1.7-1.7-1.7C78.4,216.9,77.7,217.7,77.7,218.6
		C77.7,218.6,77.7,218.6,77.7,218.6z"/>
	<path class="st3" d="M72,218.6c0,1,0.8,1.7,1.7,1.7c1,0,1.7-0.8,1.7-1.7c0-1-0.8-1.7-1.7-1.7C72.8,216.9,72,217.7,72,218.6z"/>
	<path class="st3" d="M66.2,218.6c0,1,0.8,1.7,1.7,1.7c1,0,1.7-0.8,1.7-1.7c0-0.9-0.8-1.7-1.7-1.7C67,216.9,66.3,217.7,66.2,218.6
		C66.2,218.6,66.2,218.6,66.2,218.6z"/>
	<path class="st3" d="M60.5,218.6c0,1,0.8,1.7,1.7,1.7c1,0,1.7-0.8,1.7-1.7c0-1-0.8-1.7-1.7-1.7c0,0,0,0,0,0
		C61.3,216.9,60.5,217.7,60.5,218.6z"/>
	<path class="st3" d="M83.4,223.8c0,1,0.8,1.7,1.7,1.7s1.7-0.8,1.7-1.7c0-1-0.8-1.7-1.7-1.7C84.2,222.1,83.4,222.9,83.4,223.8
		C83.4,223.8,83.4,223.8,83.4,223.8z"/>
	<path class="st3" d="M77.7,223.8c0,1,0.8,1.7,1.7,1.7s1.7-0.8,1.7-1.7c0-1-0.8-1.7-1.7-1.7C78.4,222.1,77.7,222.9,77.7,223.8
		C77.7,223.8,77.7,223.8,77.7,223.8z"/>
	<path class="st3" d="M72,223.8c0,1,0.8,1.7,1.7,1.7s1.7-0.8,1.7-1.7c0-1-0.8-1.7-1.7-1.7C72.8,222.1,72,222.9,72,223.8L72,223.8z"
		/>
	<path class="st3" d="M66.2,223.8c0,1,0.8,1.7,1.7,1.7s1.7-0.8,1.7-1.7c0-0.9-0.8-1.7-1.7-1.7C67,222.1,66.3,222.9,66.2,223.8
		C66.2,223.8,66.2,223.8,66.2,223.8z"/>
	<path class="st3" d="M60.5,223.8c0,1,0.8,1.7,1.7,1.7s1.7-0.8,1.7-1.7c0-1-0.8-1.7-1.7-1.7c0,0,0,0,0,0
		C61.3,222.1,60.5,222.9,60.5,223.8L60.5,223.8z"/>
	<rect x="89.1" y="211.7" class="st1" width="1" height="13.9"/>
	<rect x="57.9" y="183.4" class="st2" width="89.6" height="20.7"/>
	<rect x="92.7" y="186.8" class="st0" width="51" height="1.8"/>
	<rect x="92.7" y="189.8" class="st0" width="51" height="1.8"/>
	<rect x="92.7" y="192.8" class="st0" width="51" height="1.8"/>
	<rect x="92.7" y="195.9" class="st0" width="51" height="1.8"/>
	<rect x="92.7" y="198.9" class="st0" width="51" height="1.8"/>
	<circle class="st3" cx="85.1" cy="188.5" r="1.7"/>
	<circle class="st3" cx="79.4" cy="188.5" r="1.7"/>
	<path class="st3" d="M72,188.5c0,1,0.8,1.7,1.7,1.7s1.7-0.8,1.7-1.7c0-1-0.8-1.7-1.7-1.7C72.8,186.8,72,187.6,72,188.5z"/>
	<path class="st3" d="M66.2,188.5c0,1,0.8,1.7,1.7,1.7c1,0,1.7-0.8,1.7-1.7c0-0.9-0.8-1.7-1.7-1.7C67,186.8,66.3,187.5,66.2,188.5
		C66.2,188.5,66.2,188.5,66.2,188.5z"/>
	<path class="st3" d="M60.5,188.5c0,1,0.8,1.7,1.7,1.7s1.7-0.8,1.7-1.7c0-1-0.8-1.7-1.7-1.7c0,0,0,0,0,0
		C61.3,186.8,60.5,187.6,60.5,188.5z"/>
	<circle class="st3" cx="85.1" cy="193.7" r="1.7"/>
	<circle class="st3" cx="79.4" cy="193.7" r="1.7"/>
	<path class="st3" d="M72,193.7c0,1,0.8,1.7,1.7,1.7c1,0,1.7-0.8,1.7-1.7s-0.8-1.7-1.7-1.7c0,0,0,0-0.1,0
		C72.8,192,72,192.8,72,193.7z"/>
	<path class="st3" d="M66.2,193.7c0,1,0.8,1.7,1.7,1.7s1.7-0.8,1.7-1.7c0-1-0.7-1.7-1.7-1.7C67,192,66.3,192.7,66.2,193.7
		C66.2,193.7,66.2,193.7,66.2,193.7z"/>
	<path class="st3" d="M60.5,193.7c0,1,0.7,1.8,1.7,1.8c1,0,1.8-0.7,1.8-1.7c0-1-0.7-1.8-1.7-1.8c0,0,0,0,0,0
		C61.3,192,60.5,192.8,60.5,193.7z"/>
	<circle class="st3" cx="85.1" cy="198.9" r="1.7"/>
	<circle class="st3" cx="79.4" cy="198.9" r="1.7"/>
	<path class="st3" d="M72,198.9c0,1,0.8,1.7,1.7,1.7s1.7-0.8,1.7-1.7c0-1-0.8-1.7-1.7-1.7C72.8,197.2,72,198,72,198.9z"/>
	<path class="st3" d="M66.2,198.9c0,1,0.8,1.7,1.7,1.7s1.7-0.8,1.7-1.7c0-0.9-0.8-1.7-1.7-1.7C67,197.2,66.3,197.9,66.2,198.9
		C66.2,198.9,66.2,198.9,66.2,198.9z"/>
	<path class="st3" d="M60.5,198.9c0,1,0.8,1.7,1.7,1.7s1.7-0.8,1.7-1.7c0-1-0.8-1.7-1.7-1.7c0,0,0,0,0,0
		C61.3,197.2,60.5,198,60.5,198.9z"/>
	<rect x="89.1" y="186.8" class="st1" width="1" height="13.9"/>
	<rect x="57.9" y="158.4" class="st2" width="89.6" height="20.7"/>
	<rect x="92.7" y="161.9" class="st0" width="51" height="1.8"/>
	<rect x="92.7" y="164.9" class="st0" width="51" height="1.8"/>
	<rect x="92.7" y="167.9" class="st0" width="51" height="1.8"/>
	<rect x="92.7" y="170.9" class="st0" width="51" height="1.8"/>
	<rect x="92.7" y="174" class="st0" width="51" height="1.8"/>
	<circle class="st3" cx="85.1" cy="163.6" r="1.7"/>
	<circle class="st3" cx="79.4" cy="163.6" r="1.7"/>
	<path class="st3" d="M72,163.6c0,1,0.8,1.7,1.7,1.7s1.7-0.8,1.7-1.7c0-1-0.8-1.7-1.7-1.7C72.8,161.9,72,162.6,72,163.6z"/>
	<path class="st3" d="M66.2,163.6c0,1,0.8,1.7,1.7,1.7c1,0,1.7-0.8,1.7-1.7c0-0.9-0.8-1.7-1.7-1.7C67,161.8,66.3,162.6,66.2,163.6
		C66.2,163.6,66.2,163.6,66.2,163.6z"/>
	<path class="st3" d="M60.5,163.6c0,1,0.8,1.7,1.7,1.7c1,0,1.7-0.8,1.7-1.7c0-1-0.8-1.7-1.7-1.7c0,0,0,0,0,0
		C61.3,161.9,60.5,162.6,60.5,163.6z"/>
	<path class="st3" d="M83.4,168.8c0,1,0.8,1.7,1.7,1.7c1,0,1.7-0.8,1.7-1.7c0-1-0.8-1.7-1.7-1.7l0,0C84.2,167,83.4,167.8,83.4,168.8
		C83.4,168.8,83.4,168.8,83.4,168.8z"/>
	<path class="st3" d="M77.7,168.8c0,1,0.8,1.7,1.7,1.7c1,0,1.7-0.8,1.7-1.7c0-1-0.8-1.7-1.7-1.7l0,0C78.4,167,77.7,167.8,77.7,168.8
		C77.7,168.8,77.7,168.8,77.7,168.8z"/>
	<path class="st3" d="M72,168.8c0,1,0.8,1.7,1.7,1.7c1,0,1.7-0.8,1.7-1.7c0-1-0.8-1.7-1.7-1.7l0,0C72.8,167.1,72,167.8,72,168.8z"/>
	<path class="st3" d="M66.2,168.8c0,1,0.8,1.7,1.7,1.7c1,0,1.7-0.8,1.7-1.7c0-0.9-0.8-1.7-1.7-1.7C67,167,66.3,167.8,66.2,168.8
		C66.2,168.8,66.2,168.8,66.2,168.8z"/>
	<path class="st3" d="M60.5,168.8c0,1,0.8,1.7,1.7,1.7c1,0,1.7-0.8,1.7-1.7c0-1-0.8-1.7-1.7-1.7c0,0,0,0,0,0
		C61.3,167.1,60.5,167.8,60.5,168.8z"/>
	<path class="st3" d="M83.4,174c0,1,0.8,1.7,1.7,1.7s1.7-0.8,1.7-1.7c0-1-0.8-1.7-1.7-1.7C84.1,172.3,83.4,173,83.4,174
		C83.4,174,83.4,174,83.4,174z"/>
	<path class="st3" d="M77.7,174c0,1,0.8,1.7,1.7,1.7s1.7-0.8,1.7-1.7c0-1-0.8-1.7-1.7-1.7C78.4,172.3,77.7,173,77.7,174
		C77.7,174,77.7,174,77.7,174z"/>
	<path class="st3" d="M72,174c0,1,0.8,1.7,1.7,1.7s1.7-0.8,1.7-1.7c0-1-0.8-1.7-1.7-1.7C72.8,172.3,72,173,72,174z"/>
	<path class="st3" d="M66.2,174c0,1,0.8,1.7,1.8,1.7c1,0,1.7-0.8,1.7-1.8c0-0.9-0.8-1.7-1.7-1.7C67,172.2,66.3,173,66.2,174
		C66.2,174,66.2,174,66.2,174z"/>
	<path class="st3" d="M60.5,174c0,1,0.8,1.7,1.7,1.7c1,0,1.7-0.8,1.7-1.7c0-1-0.8-1.7-1.7-1.7c0,0,0,0,0,0
		C61.3,172.3,60.5,173,60.5,174z"/>
	<rect x="89.1" y="161.9" class="st1" width="1" height="13.9"/>
	<rect x="57.9" y="133.5" class="st2" width="89.6" height="20.7"/>
	<rect x="92.7" y="136.9" class="st0" width="51" height="1.8"/>
	<rect x="92.7" y="139.9" class="st0" width="51" height="1.8"/>
	<rect x="92.7" y="143" class="st0" width="51" height="1.8"/>
	<rect x="92.7" y="146" class="st0" width="51" height="1.8"/>
	<rect x="92.7" y="149" class="st0" width="51" height="1.8"/>
	<path class="st3" d="M83.4,138.6c0,1,0.8,1.7,1.7,1.7c1,0,1.7-0.8,1.7-1.7c0-1-0.8-1.7-1.7-1.7l0,0
		C84.2,136.9,83.4,137.7,83.4,138.6C83.4,138.6,83.4,138.6,83.4,138.6z"/>
	<path class="st3" d="M77.7,138.6c0,1,0.8,1.7,1.7,1.7c1,0,1.7-0.8,1.7-1.7c0-1-0.8-1.7-1.7-1.7l0,0
		C78.4,136.9,77.7,137.7,77.7,138.6C77.7,138.6,77.7,138.6,77.7,138.6z"/>
	<path class="st3" d="M72,138.6c0,1,0.8,1.7,1.7,1.7c1,0,1.7-0.8,1.7-1.7c0-1-0.8-1.7-1.7-1.7l0,0C72.8,136.9,72,137.7,72,138.6z"/>
	<path class="st3" d="M66.2,138.6c0,1,0.8,1.7,1.7,1.7c1,0,1.7-0.8,1.7-1.7c0-0.9-0.8-1.7-1.7-1.7C67,136.9,66.3,137.7,66.2,138.6
		C66.2,138.6,66.2,138.6,66.2,138.6z"/>
	<path class="st3" d="M60.5,138.6c0,1,0.8,1.7,1.7,1.7c1,0,1.7-0.8,1.7-1.7c0-1-0.8-1.7-1.7-1.7c0,0,0,0,0,0
		C61.3,136.9,60.5,137.7,60.5,138.6z"/>
	<path class="st3" d="M83.4,143.9c0,1,0.8,1.7,1.7,1.7c1,0,1.7-0.8,1.7-1.7c0-1-0.8-1.7-1.7-1.7l0,0
		C84.1,142.1,83.4,142.9,83.4,143.9z"/>
	<path class="st3" d="M77.7,143.9c0,1,0.8,1.7,1.7,1.7c1,0,1.7-0.8,1.7-1.7c0-1-0.8-1.7-1.7-1.7l0,0
		C78.4,142.1,77.7,142.9,77.7,143.9z"/>
	<path class="st3" d="M72,143.9c0,1,0.8,1.7,1.7,1.7c1,0,1.7-0.8,1.7-1.7c0-1-0.8-1.7-1.7-1.7l0,0C72.8,142.1,72,142.9,72,143.9z"/>
	<path class="st3" d="M66.2,143.9c0,1,0.8,1.7,1.7,1.7c1,0,1.7-0.8,1.7-1.7c0-0.9-0.8-1.7-1.7-1.7C67,142.1,66.3,142.9,66.2,143.9
		C66.2,143.8,66.2,143.8,66.2,143.9z"/>
	<path class="st3" d="M60.5,143.9c0,1,0.8,1.7,1.7,1.7c1,0,1.7-0.8,1.7-1.7c0-1-0.8-1.7-1.7-1.7c0,0,0,0,0,0
		C61.3,142.1,60.5,142.9,60.5,143.9z"/>
	<path class="st3" d="M83.4,149c0,1,0.8,1.7,1.7,1.7c1,0,1.7-0.8,1.7-1.7c0-1-0.8-1.7-1.7-1.7l0,0C84.2,147.3,83.4,148,83.4,149
		C83.4,149,83.4,149,83.4,149z"/>
	<path class="st3" d="M77.7,149c0,1,0.8,1.7,1.7,1.7c1,0,1.7-0.8,1.7-1.7c0-1-0.8-1.7-1.7-1.7l0,0C78.4,147.3,77.7,148,77.7,149
		C77.7,149,77.7,149,77.7,149z"/>
	<path class="st3" d="M72,149c0,1,0.8,1.7,1.7,1.7c1,0,1.7-0.8,1.7-1.7c0-1-0.8-1.7-1.7-1.7l0,0C72.8,147.3,72,148,72,149z"/>
	<path class="st3" d="M66.2,149c0,1,0.7,1.7,1.7,1.8s1.7-0.7,1.8-1.7s-0.7-1.7-1.7-1.8c0,0,0,0,0,0C67,147.3,66.3,148,66.2,149z"/>
	<path class="st3" d="M60.5,149c0,1,0.8,1.7,1.7,1.7c1,0,1.7-0.8,1.7-1.7c0-1-0.8-1.7-1.7-1.7c0,0,0,0,0,0
		C61.3,147.3,60.5,148,60.5,149z"/>
	<rect x="89.1" y="136.9" class="st1" width="1" height="13.9"/>
	<rect x="72.5" y="113.2" class="st2" width="118.1" height="6.6"/>
</g>
<g id="freepik--Server--inject-4">
	<rect x="216.9" y="142.2" class="st4" width="57.9" height="218.3"/>
	<rect x="110.4" y="142.2" class="st5" width="106.6" height="218.3"/>
	<rect x="117" y="332.2" class="st6" width="91.9" height="21.2"/>
	<rect x="152.8" y="335.7" class="st5" width="52.3" height="1.8"/>
	<rect x="152.8" y="338.8" class="st5" width="52.3" height="1.8"/>
	<rect x="152.8" y="341.9" class="st5" width="52.3" height="1.8"/>
	<rect x="152.8" y="345" class="st5" width="52.3" height="1.8"/>
	<rect x="152.8" y="348.1" class="st5" width="52.3" height="1.8"/>
	<path class="st7" d="M143.2,337.4c0,1,0.8,1.8,1.8,1.8s1.8-0.8,1.8-1.8c0-1-0.8-1.8-1.8-1.8c0,0,0,0,0,0
		C144,335.7,143.2,336.5,143.2,337.4z"/>
	<path class="st7" d="M137.4,337.4c0,1,0.8,1.8,1.8,1.8c1,0,1.8-0.8,1.8-1.8c0-1-0.8-1.8-1.8-1.8c0,0,0,0,0,0
		C138.2,335.7,137.4,336.5,137.4,337.4z"/>
	<path class="st7" d="M131.5,337.4c0,1,0.8,1.8,1.8,1.8s1.8-0.8,1.8-1.8c0-1-0.8-1.8-1.8-1.8c0,0,0,0,0,0
		C132.3,335.7,131.5,336.5,131.5,337.4C131.5,337.4,131.5,337.4,131.5,337.4z"/>
	<path class="st7" d="M125.6,337.4c0,1,0.8,1.8,1.8,1.8s1.8-0.8,1.8-1.8c0-1-0.8-1.8-1.8-1.8c0,0,0,0,0,0
		C126.4,335.7,125.6,336.5,125.6,337.4z"/>
	<path class="st7" d="M119.8,337.4c0,1,0.8,1.8,1.8,1.8c1,0,1.8-0.8,1.8-1.8s-0.8-1.8-1.8-1.8c0,0,0,0,0,0
		C120.6,335.7,119.8,336.5,119.8,337.4z"/>
	<path class="st7" d="M143.2,342.8c0,1,0.8,1.8,1.8,1.8c1,0,1.8-0.8,1.8-1.8c0-1-0.8-1.8-1.8-1.8C144,341,143.2,341.8,143.2,342.8
		L143.2,342.8z"/>
	<path class="st7" d="M137.4,342.8c0,1,0.8,1.8,1.8,1.8c1,0,1.8-0.8,1.8-1.8c0-1-0.8-1.8-1.8-1.8c0,0,0,0,0,0
		C138.2,341,137.4,341.8,137.4,342.8z"/>
	<path class="st7" d="M131.5,342.8c0,1,0.8,1.8,1.8,1.8s1.8-0.8,1.8-1.8c0-1-0.8-1.8-1.8-1.8c0,0,0,0,0,0
		C132.3,341,131.5,341.8,131.5,342.8C131.5,342.8,131.5,342.8,131.5,342.8z"/>
	<path class="st7" d="M125.6,342.8c0,1,0.8,1.8,1.8,1.8s1.8-0.8,1.8-1.8c0-1-0.8-1.8-1.8-1.8c0,0,0,0,0,0
		C126.4,341,125.6,341.8,125.6,342.8z"/>
	<path class="st7" d="M119.8,342.8c0,1,0.8,1.8,1.8,1.8c1,0,1.8-0.8,1.8-1.8s-0.8-1.8-1.8-1.8c0,0,0,0,0,0
		C120.6,341,119.8,341.8,119.8,342.8z"/>
	<path class="st7" d="M143.2,348.1c0,1,0.8,1.8,1.8,1.8s1.8-0.8,1.8-1.8c0-1-0.8-1.8-1.8-1.8c0,0,0,0,0,0
		C144,346.3,143.2,347.1,143.2,348.1z"/>
	<path class="st7" d="M137.4,348.1c0,1,0.8,1.8,1.8,1.8c1,0,1.8-0.8,1.8-1.8c0-1-0.8-1.8-1.8-1.8c0,0,0,0,0,0
		C138.2,346.3,137.4,347.1,137.4,348.1z"/>
	<path class="st7" d="M131.5,348.1c0,1,0.8,1.8,1.8,1.8s1.8-0.8,1.8-1.8c0-1-0.8-1.8-1.8-1.8c0,0,0,0,0,0
		C132.3,346.3,131.5,347.1,131.5,348.1C131.5,348.1,131.5,348.1,131.5,348.1z"/>
	<path class="st7" d="M125.6,348.1c0,1,0.8,1.8,1.8,1.8s1.8-0.8,1.8-1.8c0-1-0.8-1.8-1.8-1.8c0,0,0,0,0,0
		C126.4,346.3,125.6,347.1,125.6,348.1z"/>
	<path class="st7" d="M119.8,348.1c0,1,0.8,1.8,1.8,1.8c1,0,1.8-0.8,1.8-1.8s-0.8-1.8-1.8-1.8c0,0,0,0,0,0
		C120.6,346.3,119.8,347.1,119.8,348.1z"/>
	<rect x="149.1" y="335.7" class="st4" width="1" height="14.2"/>
	<rect x="117" y="306.6" class="st6" width="91.9" height="21.2"/>
	<rect x="152.8" y="310.1" class="st5" width="52.3" height="1.8"/>
	<rect x="152.8" y="313.2" class="st5" width="52.3" height="1.8"/>
	<rect x="152.8" y="316.3" class="st5" width="52.3" height="1.8"/>
	<rect x="152.8" y="319.4" class="st5" width="52.3" height="1.8"/>
	<rect x="152.8" y="322.5" class="st5" width="52.3" height="1.8"/>
	<path class="st7" d="M143.2,311.9c0,1,0.8,1.8,1.8,1.8s1.8-0.8,1.8-1.8c0-1-0.8-1.8-1.8-1.8c0,0,0,0,0,0
		C144,310.1,143.2,310.9,143.2,311.9z"/>
	<path class="st7" d="M137.4,311.9c0,1,0.8,1.8,1.8,1.8c1,0,1.8-0.8,1.8-1.8c0-1-0.8-1.8-1.8-1.8c0,0,0,0,0,0
		C138.2,310.1,137.4,310.9,137.4,311.9z"/>
	<path class="st7" d="M131.5,311.9c0,1,0.8,1.8,1.8,1.8s1.8-0.8,1.8-1.8c0-1-0.8-1.8-1.8-1.8c0,0,0,0,0,0
		C132.3,310.1,131.5,310.9,131.5,311.9z"/>
	<path class="st7" d="M125.6,311.9c0,1,0.8,1.8,1.8,1.8s1.8-0.8,1.8-1.8c0-1-0.8-1.8-1.8-1.8c0,0,0,0,0,0
		C126.4,310.1,125.6,310.9,125.6,311.9z"/>
	<path class="st7" d="M119.8,311.9c0,1,0.8,1.8,1.8,1.8c1,0,1.8-0.8,1.8-1.8s-0.8-1.8-1.8-1.8c0,0,0,0,0,0
		C120.6,310.1,119.8,310.9,119.8,311.9z"/>
	<path class="st7" d="M143.2,317.2c0,1,0.8,1.8,1.8,1.8s1.8-0.8,1.8-1.8c0-1-0.8-1.8-1.8-1.8c0,0,0,0,0,0
		C144,315.4,143.2,316.2,143.2,317.2z"/>
	<path class="st7" d="M137.4,317.2c0,1,0.8,1.8,1.8,1.8c1,0,1.8-0.8,1.8-1.8c0-1-0.8-1.8-1.8-1.8c0,0,0,0,0,0
		C138.2,315.4,137.4,316.2,137.4,317.2z"/>
	<path class="st7" d="M131.5,317.2c0,1,0.8,1.8,1.8,1.8s1.8-0.8,1.8-1.8c0-1-0.8-1.8-1.8-1.8c0,0,0,0,0,0
		C132.3,315.4,131.5,316.2,131.5,317.2z"/>
	<path class="st7" d="M125.6,317.2c0,1,0.8,1.8,1.8,1.8s1.8-0.8,1.8-1.8c0-1-0.8-1.8-1.8-1.8c0,0,0,0,0,0
		C126.4,315.4,125.6,316.2,125.6,317.2z"/>
	<path class="st7" d="M119.8,317.2c0,1,0.8,1.8,1.8,1.8c1,0,1.8-0.8,1.8-1.8s-0.8-1.8-1.8-1.8c0,0,0,0,0,0
		C120.6,315.4,119.8,316.2,119.8,317.2z"/>
	<path class="st7" d="M143.2,322.5c0,1,0.8,1.8,1.8,1.8s1.8-0.8,1.8-1.8c0-1-0.8-1.8-1.8-1.8c0,0,0,0,0,0
		C144,320.8,143.2,321.5,143.2,322.5z"/>
	<path class="st7" d="M137.4,322.5c0,1,0.8,1.8,1.8,1.8c1,0,1.8-0.8,1.8-1.8c0-1-0.8-1.8-1.8-1.8c0,0,0,0,0,0
		C138.2,320.8,137.4,321.5,137.4,322.5z"/>
	<path class="st7" d="M131.5,322.5c0,1,0.8,1.8,1.8,1.8s1.8-0.8,1.8-1.8c0-1-0.8-1.8-1.8-1.8c0,0,0,0,0,0
		C132.3,320.8,131.5,321.5,131.5,322.5z"/>
	<path class="st7" d="M125.6,322.5c0,1,0.8,1.8,1.8,1.8s1.8-0.8,1.8-1.8c0-1-0.8-1.8-1.8-1.8c0,0,0,0,0,0
		C126.4,320.8,125.6,321.5,125.6,322.5z"/>
	<path class="st7" d="M119.8,322.5c0,1,0.8,1.8,1.8,1.8c1,0,1.8-0.8,1.8-1.8s-0.8-1.8-1.8-1.8c0,0,0,0,0,0
		C120.6,320.8,119.8,321.5,119.8,322.5z"/>
	<rect x="149.1" y="310.1" class="st4" width="1" height="14.2"/>
	<rect x="117" y="281" class="st6" width="91.9" height="21.2"/>
	<rect x="152.8" y="284.5" class="st5" width="52.3" height="1.8"/>
	<rect x="152.8" y="287.6" class="st5" width="52.3" height="1.8"/>
	<rect x="152.8" y="290.7" class="st5" width="52.3" height="1.8"/>
	<rect x="152.8" y="293.8" class="st5" width="52.3" height="1.8"/>
	<rect x="152.8" y="296.9" class="st5" width="52.3" height="1.8"/>
	<path class="st7" d="M143.2,286.3c0,1,0.8,1.8,1.8,1.8c1,0,1.8-0.8,1.8-1.8c0-1-0.8-1.8-1.8-1.8C144,284.5,143.2,285.3,143.2,286.3
		C143.2,286.3,143.2,286.3,143.2,286.3z"/>
	<path class="st7" d="M137.4,286.3c0,1,0.8,1.8,1.8,1.8c1,0,1.8-0.8,1.8-1.8s-0.8-1.8-1.8-1.8c0,0,0,0,0,0
		C138.2,284.5,137.4,285.3,137.4,286.3z"/>
	<path class="st7" d="M131.5,286.3c0,1,0.8,1.8,1.8,1.8s1.8-0.8,1.8-1.8s-0.8-1.8-1.8-1.8l0,0C132.3,284.5,131.5,285.3,131.5,286.3z
		"/>
	<path class="st7" d="M125.6,286.3c0,1,0.8,1.8,1.8,1.8c1,0,1.8-0.8,1.8-1.8s-0.8-1.8-1.8-1.8l0,0
		C126.4,284.5,125.6,285.3,125.6,286.3z"/>
	<path class="st7" d="M119.8,286.3c0,1,0.8,1.8,1.8,1.8s1.8-0.8,1.8-1.8s-0.8-1.8-1.8-1.8l0,0C120.6,284.5,119.8,285.3,119.8,286.3z
		"/>
	<path class="st7" d="M143.2,291.6c0,1,0.8,1.8,1.8,1.8s1.8-0.8,1.8-1.8s-0.8-1.8-1.8-1.8l0,0C144,289.8,143.2,290.6,143.2,291.6z"
		/>
	<path class="st7" d="M137.4,291.6c0,1,0.8,1.8,1.8,1.8c1,0,1.8-0.8,1.8-1.8s-0.8-1.8-1.8-1.8c0,0,0,0,0,0
		C138.2,289.8,137.4,290.6,137.4,291.6z"/>
	<path class="st7" d="M131.5,291.6c0,1,0.8,1.8,1.8,1.8s1.8-0.8,1.8-1.8s-0.8-1.8-1.8-1.8l0,0C132.3,289.8,131.5,290.6,131.5,291.6z
		"/>
	<path class="st7" d="M125.6,291.6c0,1,0.8,1.8,1.8,1.8c1,0,1.8-0.8,1.8-1.8s-0.8-1.8-1.8-1.8l0,0
		C126.4,289.8,125.6,290.6,125.6,291.6z"/>
	<path class="st7" d="M119.8,291.6c0,1,0.8,1.8,1.8,1.8s1.8-0.8,1.8-1.8s-0.8-1.8-1.8-1.8l0,0C120.6,289.8,119.8,290.6,119.8,291.6z
		"/>
	<path class="st7" d="M143.2,296.9c0,1,0.8,1.8,1.8,1.8s1.8-0.8,1.8-1.8s-0.8-1.8-1.8-1.8l0,0C144,295.2,143.2,296,143.2,296.9z"/>
	<path class="st7" d="M137.4,296.9c0,1,0.8,1.8,1.8,1.8c1,0,1.8-0.8,1.8-1.8s-0.8-1.8-1.8-1.8c0,0,0,0,0,0
		C138.2,295.2,137.4,296,137.4,296.9z"/>
	<path class="st7" d="M131.5,296.9c0,1,0.8,1.8,1.8,1.8s1.8-0.8,1.8-1.8s-0.8-1.8-1.8-1.8l0,0C132.3,295.2,131.5,296,131.5,296.9z"
		/>
	<path class="st7" d="M125.6,296.9c0,1,0.8,1.8,1.8,1.8c1,0,1.8-0.8,1.8-1.8s-0.8-1.8-1.8-1.8l0,0
		C126.4,295.2,125.6,296,125.6,296.9z"/>
	<path class="st7" d="M119.8,296.9c0,1,0.8,1.8,1.8,1.8s1.8-0.8,1.8-1.8s-0.8-1.8-1.8-1.8l0,0C120.6,295.2,119.8,296,119.8,296.9z"
		/>
	<rect x="149.1" y="284.5" class="st4" width="1" height="14.2"/>
	<rect x="117" y="255.4" class="st6" width="91.9" height="21.2"/>
	<rect x="152.8" y="258.9" class="st5" width="52.3" height="1.8"/>
	<rect x="152.8" y="262" class="st5" width="52.3" height="1.8"/>
	<rect x="152.8" y="265.1" class="st5" width="52.3" height="1.8"/>
	<rect x="152.8" y="268.2" class="st5" width="52.3" height="1.8"/>
	<rect x="152.8" y="271.3" class="st5" width="52.3" height="1.8"/>
	<path class="st7" d="M143.2,260.7c0,1,0.8,1.8,1.8,1.8s1.8-0.8,1.8-1.8s-0.8-1.8-1.8-1.8l0,0C144,258.9,143.2,259.7,143.2,260.7z"
		/>
	<path class="st7" d="M137.4,260.7c0,1,0.8,1.8,1.8,1.8c1,0,1.8-0.8,1.8-1.8s-0.8-1.8-1.8-1.8c0,0,0,0,0,0
		C138.2,258.9,137.4,259.7,137.4,260.7C137.4,260.7,137.4,260.7,137.4,260.7z"/>
	<path class="st7" d="M131.5,260.7c0,1,0.8,1.8,1.8,1.8s1.8-0.8,1.8-1.8s-0.8-1.8-1.8-1.8l0,0C132.3,258.9,131.5,259.7,131.5,260.7
		C131.5,260.7,131.5,260.7,131.5,260.7z"/>
	<path class="st7" d="M125.6,260.7c0,1,0.8,1.8,1.8,1.8c1,0,1.8-0.8,1.8-1.8s-0.8-1.8-1.8-1.8l0,0
		C126.4,258.9,125.6,259.7,125.6,260.7z"/>
	<path class="st7" d="M119.8,260.7c0,1,0.8,1.8,1.8,1.8s1.8-0.8,1.8-1.8s-0.8-1.8-1.8-1.8l0,0C120.6,258.9,119.8,259.7,119.8,260.7z
		"/>
	<path class="st7" d="M143.2,266c0,1,0.8,1.8,1.8,1.8s1.8-0.8,1.8-1.8s-0.8-1.8-1.8-1.8l0,0C144,264.2,143.2,265,143.2,266z"/>
	<path class="st7" d="M137.4,266c0,1,0.8,1.8,1.8,1.8c1,0,1.8-0.8,1.8-1.8s-0.8-1.8-1.8-1.8c0,0,0,0,0,0
		C138.2,264.2,137.4,265,137.4,266z"/>
	<path class="st7" d="M131.5,266c0,1,0.8,1.8,1.8,1.8s1.8-0.8,1.8-1.8s-0.8-1.8-1.8-1.8l0,0C132.3,264.2,131.5,265,131.5,266z"/>
	<path class="st7" d="M125.6,266c0,1,0.8,1.8,1.8,1.8c1,0,1.8-0.8,1.8-1.8s-0.8-1.8-1.8-1.8l0,0C126.4,264.2,125.6,265,125.6,266z"
		/>
	<path class="st7" d="M119.8,266c0,1,0.8,1.8,1.8,1.8s1.8-0.8,1.8-1.8s-0.8-1.8-1.8-1.8l0,0C120.6,264.2,119.8,265,119.8,266z"/>
	<path class="st7" d="M143.2,271.4c0,1,0.8,1.8,1.8,1.8s1.8-0.8,1.8-1.8s-0.8-1.8-1.8-1.8l0,0C144,269.6,143.2,270.4,143.2,271.4z"
		/>
	<path class="st7" d="M137.4,271.4c0,1,0.8,1.8,1.8,1.8c1,0,1.8-0.8,1.8-1.8s-0.8-1.8-1.8-1.8c0,0,0,0,0,0
		C138.2,269.6,137.4,270.4,137.4,271.4z"/>
	<path class="st7" d="M131.5,271.4c0,1,0.8,1.8,1.8,1.8s1.8-0.8,1.8-1.8s-0.8-1.8-1.8-1.8l0,0C132.3,269.6,131.5,270.4,131.5,271.4z
		"/>
	<path class="st7" d="M125.6,271.4c0,1,0.8,1.8,1.8,1.8c1,0,1.8-0.8,1.8-1.8s-0.8-1.8-1.8-1.8l0,0
		C126.4,269.6,125.6,270.4,125.6,271.4z"/>
	<path class="st7" d="M119.8,271.4c0,1,0.8,1.8,1.8,1.8s1.8-0.8,1.8-1.8s-0.8-1.8-1.8-1.8l0,0C120.6,269.6,119.8,270.4,119.8,271.4z
		"/>
	<rect x="149.1" y="258.9" class="st4" width="1" height="14.2"/>
	<rect x="117" y="229.8" class="st6" width="91.9" height="21.2"/>
	<rect x="152.8" y="233.3" class="st5" width="52.3" height="1.8"/>
	<rect x="152.8" y="236.4" class="st5" width="52.3" height="1.8"/>
	<rect x="152.8" y="239.6" class="st5" width="52.3" height="1.8"/>
	<rect x="152.8" y="242.6" class="st5" width="52.3" height="1.8"/>
	<rect x="152.8" y="245.8" class="st5" width="52.3" height="1.8"/>
	<path class="st7" d="M143.2,235.1c0,1,0.8,1.8,1.8,1.8s1.8-0.8,1.8-1.8s-0.8-1.8-1.8-1.8l0,0C144,233.3,143.2,234.1,143.2,235.1z"
		/>
	<path class="st7" d="M137.4,235.1c0,1,0.8,1.8,1.8,1.8c1,0,1.8-0.8,1.8-1.8s-0.8-1.8-1.8-1.8c0,0,0,0,0,0
		C138.2,233.3,137.4,234.1,137.4,235.1C137.4,235.1,137.4,235.1,137.4,235.1z"/>
	<path class="st7" d="M131.5,235.1c0,1,0.8,1.8,1.8,1.8s1.8-0.8,1.8-1.8s-0.8-1.8-1.8-1.8l0,0C132.3,233.3,131.5,234.1,131.5,235.1
		C131.5,235.1,131.5,235.1,131.5,235.1z"/>
	<path class="st7" d="M125.6,235.1c0,1,0.8,1.8,1.8,1.8c1,0,1.8-0.8,1.8-1.8s-0.8-1.8-1.8-1.8l0,0
		C126.4,233.3,125.6,234.1,125.6,235.1z"/>
	<path class="st7" d="M119.8,235.1c0,1,0.8,1.8,1.8,1.8s1.8-0.8,1.8-1.8s-0.8-1.8-1.8-1.8l0,0C120.6,233.3,119.8,234.1,119.8,235.1z
		"/>
	<path class="st7" d="M143.2,240.5c0,1,0.8,1.8,1.8,1.8s1.8-0.8,1.8-1.8s-0.8-1.8-1.8-1.8l0,0C144,238.7,143.2,239.5,143.2,240.5z"
		/>
	<path class="st7" d="M137.4,240.5c0,1,0.8,1.8,1.8,1.8c1,0,1.8-0.8,1.8-1.8s-0.8-1.8-1.8-1.8c0,0,0,0,0,0
		C138.2,238.7,137.4,239.5,137.4,240.5C137.4,240.4,137.4,240.4,137.4,240.5z"/>
	<path class="st7" d="M131.5,240.5c0,1,0.8,1.8,1.8,1.8s1.8-0.8,1.8-1.8s-0.8-1.8-1.8-1.8l0,0C132.3,238.7,131.5,239.5,131.5,240.5
		C131.5,240.4,131.5,240.4,131.5,240.5z"/>
	<path class="st7" d="M125.6,240.5c0,1,0.8,1.8,1.8,1.8c1,0,1.8-0.8,1.8-1.8s-0.8-1.8-1.8-1.8l0,0
		C126.4,238.7,125.6,239.5,125.6,240.5z"/>
	<path class="st7" d="M119.8,240.5c0,1,0.8,1.8,1.8,1.8s1.8-0.8,1.8-1.8s-0.8-1.8-1.8-1.8l0,0C120.6,238.7,119.8,239.5,119.8,240.5z
		"/>
	<path class="st7" d="M143.2,245.8c0,1,0.8,1.8,1.8,1.8c1,0,1.8-0.8,1.8-1.8c0-1-0.8-1.8-1.8-1.8C144,244,143.2,244.8,143.2,245.8
		C143.2,245.8,143.2,245.8,143.2,245.8z"/>
	<path class="st7" d="M137.4,245.8c0,1,0.8,1.8,1.8,1.8c1,0,1.8-0.8,1.8-1.8s-0.8-1.8-1.8-1.8c0,0,0,0,0,0
		C138.2,244,137.4,244.8,137.4,245.8C137.4,245.8,137.4,245.8,137.4,245.8z"/>
	<path class="st7" d="M131.5,245.8c0,1,0.8,1.8,1.8,1.8s1.8-0.8,1.8-1.8s-0.8-1.8-1.8-1.8l0,0C132.3,244,131.5,244.8,131.5,245.8
		C131.5,245.8,131.5,245.8,131.5,245.8z"/>
	<path class="st7" d="M125.6,245.8c0,1,0.8,1.8,1.8,1.8c1,0,1.8-0.8,1.8-1.8s-0.8-1.8-1.8-1.8l0,0
		C126.4,244,125.6,244.8,125.6,245.8z"/>
	<path class="st7" d="M119.8,245.8c0,1,0.8,1.8,1.8,1.8s1.8-0.8,1.8-1.8s-0.8-1.8-1.8-1.8l0,0C120.6,244,119.8,244.8,119.8,245.8z"
		/>
	<rect x="149.1" y="233.3" class="st4" width="1" height="14.2"/>
	<rect x="117" y="204.2" class="st6" width="91.9" height="21.2"/>
	<rect x="152.8" y="207.8" class="st5" width="52.3" height="1.8"/>
	<rect x="152.8" y="210.9" class="st5" width="52.3" height="1.8"/>
	<rect x="152.8" y="214" class="st5" width="52.3" height="1.8"/>
	<rect x="152.8" y="217.1" class="st5" width="52.3" height="1.8"/>
	<rect x="152.8" y="220.2" class="st5" width="52.3" height="1.8"/>
	<path class="st7" d="M143.2,209.5c0,1,0.8,1.8,1.8,1.8s1.8-0.8,1.8-1.8c0-1-0.8-1.8-1.8-1.8c0,0,0,0,0,0
		C144,207.8,143.2,208.6,143.2,209.5z"/>
	<path class="st7" d="M137.4,209.5c0,1,0.8,1.8,1.8,1.8c1,0,1.8-0.8,1.8-1.8c0-1-0.8-1.8-1.8-1.8c0,0,0,0,0,0
		C138.2,207.8,137.4,208.6,137.4,209.5z"/>
	<path class="st7" d="M131.5,209.5c0,1,0.8,1.8,1.8,1.8s1.8-0.8,1.8-1.8c0-1-0.8-1.8-1.8-1.8c0,0,0,0,0,0
		C132.3,207.8,131.5,208.5,131.5,209.5C131.5,209.5,131.5,209.5,131.5,209.5z"/>
	<path class="st7" d="M125.6,209.5c0,1,0.8,1.8,1.8,1.8s1.8-0.8,1.8-1.8c0-1-0.8-1.8-1.8-1.8c0,0,0,0,0,0
		C126.4,207.8,125.6,208.6,125.6,209.5z"/>
	<path class="st7" d="M119.8,209.5c0,1,0.8,1.8,1.8,1.8c1,0,1.8-0.8,1.8-1.8s-0.8-1.8-1.8-1.8c0,0,0,0,0,0
		C120.6,207.8,119.8,208.6,119.8,209.5z"/>
	<path class="st7" d="M143.2,214.9c0,1,0.8,1.8,1.8,1.8s1.8-0.8,1.8-1.8c0-1-0.8-1.8-1.8-1.8c0,0,0,0,0,0
		C144,213.1,143.2,213.9,143.2,214.9z"/>
	<path class="st7" d="M137.4,214.9c0,1,0.8,1.8,1.8,1.8c1,0,1.8-0.8,1.8-1.8c0-1-0.8-1.8-1.8-1.8c0,0,0,0,0,0
		C138.2,213.1,137.4,213.9,137.4,214.9z"/>
	<path class="st7" d="M131.5,214.9c0,1,0.8,1.8,1.8,1.8s1.8-0.8,1.8-1.8c0-1-0.8-1.8-1.8-1.8c0,0,0,0,0,0
		C132.3,213.1,131.5,213.9,131.5,214.9C131.5,214.9,131.5,214.9,131.5,214.9z"/>
	<path class="st7" d="M125.6,214.9c0,1,0.8,1.8,1.8,1.8s1.8-0.8,1.8-1.8c0-1-0.8-1.8-1.8-1.8c0,0,0,0,0,0
		C126.4,213.1,125.6,213.9,125.6,214.9z"/>
	<path class="st7" d="M119.8,214.9c0,1,0.8,1.8,1.8,1.8c1,0,1.8-0.8,1.8-1.8s-0.8-1.8-1.8-1.8c0,0,0,0,0,0
		C120.6,213.1,119.8,213.9,119.8,214.9z"/>
	<path class="st7" d="M143.2,220.2c0,1,0.8,1.8,1.8,1.8s1.8-0.8,1.8-1.8c0-1-0.8-1.8-1.8-1.8c0,0,0,0,0,0
		C144,218.4,143.2,219.2,143.2,220.2z"/>
	<path class="st7" d="M137.4,220.2c0,1,0.8,1.8,1.8,1.8c1,0,1.8-0.8,1.8-1.8c0-1-0.8-1.8-1.8-1.8c0,0,0,0,0,0
		C138.2,218.4,137.4,219.2,137.4,220.2z"/>
	<path class="st7" d="M131.5,220.2c0,1,0.8,1.8,1.8,1.8s1.8-0.8,1.8-1.8c0-1-0.8-1.8-1.8-1.8c0,0,0,0,0,0
		C132.3,218.4,131.5,219.2,131.5,220.2C131.5,220.2,131.5,220.2,131.5,220.2z"/>
	<path class="st7" d="M125.6,220.2c0,1,0.8,1.8,1.8,1.8s1.8-0.8,1.8-1.8c0-1-0.8-1.8-1.8-1.8c0,0,0,0,0,0
		C126.4,218.4,125.6,219.2,125.6,220.2z"/>
	<path class="st7" d="M119.8,220.2c0,1,0.8,1.8,1.8,1.8c1,0,1.8-0.8,1.8-1.8s-0.8-1.8-1.8-1.8c0,0,0,0,0,0
		C120.6,218.4,119.8,219.2,119.8,220.2z"/>
	<rect x="149.1" y="207.8" class="st4" width="1" height="14.2"/>
	<rect x="117" y="178.7" class="st6" width="91.9" height="21.2"/>
	<rect x="152.8" y="182.2" class="st5" width="52.3" height="1.8"/>
	<rect x="152.8" y="185.3" class="st5" width="52.3" height="1.8"/>
	<rect x="152.8" y="188.4" class="st5" width="52.3" height="1.8"/>
	<rect x="152.8" y="191.5" class="st5" width="52.3" height="1.8"/>
	<rect x="152.8" y="194.6" class="st5" width="52.3" height="1.8"/>
	<path class="st7" d="M143.2,184c0,1,0.8,1.8,1.8,1.8s1.8-0.8,1.8-1.8s-0.8-1.8-1.8-1.8l0,0C144,182.2,143.2,183,143.2,184z"/>
	<path class="st7" d="M137.4,184c0,1,0.8,1.8,1.8,1.8c1,0,1.8-0.8,1.8-1.8s-0.8-1.8-1.8-1.8c0,0,0,0,0,0
		C138.2,182.2,137.4,183,137.4,184z"/>
	<path class="st7" d="M131.5,184c0,1,0.8,1.8,1.8,1.8s1.8-0.8,1.8-1.8s-0.8-1.8-1.8-1.8l0,0C132.3,182.2,131.5,183,131.5,184z"/>
	<path class="st7" d="M125.6,184c0,1,0.8,1.8,1.8,1.8c1,0,1.8-0.8,1.8-1.8s-0.8-1.8-1.8-1.8l0,0C126.4,182.2,125.6,183,125.6,184z"
		/>
	<path class="st7" d="M119.8,184c0,1,0.8,1.8,1.8,1.8s1.8-0.8,1.8-1.8s-0.8-1.8-1.8-1.8l0,0C120.6,182.2,119.8,183,119.8,184z"/>
	<path class="st7" d="M143.2,189.3c0,1,0.8,1.8,1.8,1.8s1.8-0.8,1.8-1.8c0-1-0.8-1.8-1.8-1.8c0,0,0,0,0,0
		C144,187.5,143.2,188.3,143.2,189.3z"/>
	<path class="st7" d="M137.4,189.3c0,1,0.8,1.8,1.8,1.8c1,0,1.8-0.8,1.8-1.8c0-1-0.8-1.8-1.8-1.8c0,0,0,0,0,0
		C138.2,187.5,137.4,188.3,137.4,189.3z"/>
	<path class="st7" d="M131.5,189.3c0,1,0.8,1.8,1.8,1.8s1.8-0.8,1.8-1.8c0-1-0.8-1.8-1.8-1.8c0,0,0,0,0,0
		C132.3,187.5,131.5,188.3,131.5,189.3z"/>
	<path class="st7" d="M125.6,189.3c0,1,0.8,1.8,1.8,1.8s1.8-0.8,1.8-1.8c0-1-0.8-1.8-1.8-1.8c0,0,0,0,0,0
		C126.4,187.5,125.6,188.3,125.6,189.3z"/>
	<path class="st7" d="M119.8,189.3c0,1,0.8,1.8,1.8,1.8c1,0,1.8-0.8,1.8-1.8s-0.8-1.8-1.8-1.8c0,0,0,0,0,0
		C120.6,187.5,119.8,188.3,119.8,189.3z"/>
	<path class="st7" d="M143.2,194.6c0,1,0.8,1.8,1.8,1.8s1.8-0.8,1.8-1.8c0-1-0.8-1.8-1.8-1.8c0,0,0,0,0,0
		C144,192.8,143.2,193.6,143.2,194.6z"/>
	<path class="st7" d="M137.4,194.6c0,1,0.8,1.8,1.8,1.8c1,0,1.8-0.8,1.8-1.8c0-1-0.8-1.8-1.8-1.8c0,0,0,0,0,0
		C138.2,192.8,137.4,193.6,137.4,194.6z"/>
	<path class="st7" d="M131.5,194.6c0,1,0.8,1.8,1.8,1.8s1.8-0.8,1.8-1.8c0-1-0.8-1.8-1.8-1.8c0,0,0,0,0,0
		C132.3,192.8,131.5,193.6,131.5,194.6z"/>
	<path class="st7" d="M125.6,194.6c0,1,0.8,1.8,1.8,1.8s1.8-0.8,1.8-1.8c0-1-0.8-1.8-1.8-1.8c0,0,0,0,0,0
		C126.4,192.8,125.6,193.6,125.6,194.6z"/>
	<path class="st7" d="M119.8,194.6c0,1,0.8,1.8,1.8,1.8c1,0,1.8-0.8,1.8-1.8s-0.8-1.8-1.8-1.8c0,0,0,0,0,0
		C120.6,192.8,119.8,193.6,119.8,194.6z"/>
	<rect x="149.1" y="182.2" class="st4" width="1" height="14.2"/>
	<rect x="117" y="153.1" class="st6" width="91.9" height="21.2"/>
	<rect x="152.8" y="156.6" class="st5" width="52.3" height="1.8"/>
	<rect x="152.8" y="159.7" class="st5" width="52.3" height="1.8"/>
	<rect x="152.8" y="162.8" class="st5" width="52.3" height="1.8"/>
	<rect x="152.8" y="165.9" class="st5" width="52.3" height="1.8"/>
	<rect x="152.8" y="169" class="st5" width="52.3" height="1.8"/>
	<path class="st7" d="M143.2,158.4c0,1,0.8,1.8,1.8,1.8s1.8-0.8,1.8-1.8s-0.8-1.8-1.8-1.8l0,0C144,156.6,143.2,157.4,143.2,158.4z"
		/>
	<path class="st7" d="M137.4,158.4c0,1,0.8,1.8,1.8,1.8s1.8-0.8,1.8-1.8c0-1-0.8-1.8-1.8-1.8c0,0,0,0,0,0
		C138.2,156.6,137.4,157.4,137.4,158.4z"/>
	<path class="st7" d="M131.5,158.4c0,1,0.8,1.8,1.8,1.8s1.8-0.8,1.8-1.8s-0.8-1.8-1.8-1.8l0,0C132.3,156.6,131.5,157.4,131.5,158.4z
		"/>
	<path class="st7" d="M125.6,158.4c0,1,0.8,1.8,1.8,1.8c1,0,1.8-0.8,1.8-1.8s-0.8-1.8-1.8-1.8l0,0
		C126.4,156.6,125.6,157.4,125.6,158.4z"/>
	<path class="st7" d="M119.8,158.4c0,1,0.8,1.8,1.8,1.8s1.8-0.8,1.8-1.8s-0.8-1.8-1.8-1.8l0,0C120.6,156.6,119.8,157.4,119.8,158.4z
		"/>
	<path class="st7" d="M143.2,163.7c0,1,0.8,1.8,1.8,1.8s1.8-0.8,1.8-1.8s-0.8-1.8-1.8-1.8l0,0C144,161.9,143.2,162.7,143.2,163.7z"
		/>
	<path class="st7" d="M137.4,163.7c0,1,0.8,1.8,1.8,1.8s1.8-0.8,1.8-1.8c0-1-0.8-1.8-1.8-1.8c0,0,0,0,0,0
		C138.2,161.9,137.4,162.7,137.4,163.7z"/>
	<path class="st7" d="M131.5,163.7c0,1,0.8,1.8,1.8,1.8s1.8-0.8,1.8-1.8s-0.8-1.8-1.8-1.8l0,0C132.3,161.9,131.5,162.7,131.5,163.7z
		"/>
	<path class="st7" d="M125.6,163.7c0,1,0.8,1.8,1.8,1.8c1,0,1.8-0.8,1.8-1.8s-0.8-1.8-1.8-1.8l0,0
		C126.4,161.9,125.6,162.7,125.6,163.7z"/>
	<path class="st7" d="M119.8,163.7c0,1,0.8,1.8,1.8,1.8s1.8-0.8,1.8-1.8s-0.8-1.8-1.8-1.8l0,0C120.6,161.9,119.8,162.7,119.8,163.7z
		"/>
	<path class="st7" d="M143.2,169c0,1,0.8,1.8,1.8,1.8s1.8-0.8,1.8-1.8s-0.8-1.8-1.8-1.8l0,0C144,167.2,143.2,168,143.2,169z"/>
	<path class="st7" d="M137.4,169c0,1,0.8,1.8,1.8,1.8s1.8-0.8,1.8-1.8c0-1-0.8-1.8-1.8-1.8c0,0,0,0,0,0
		C138.2,167.2,137.4,168,137.4,169z"/>
	<path class="st7" d="M131.5,169c0,1,0.8,1.8,1.8,1.8s1.8-0.8,1.8-1.8s-0.8-1.8-1.8-1.8l0,0C132.3,167.2,131.5,168,131.5,169z"/>
	<path class="st7" d="M125.6,169c0,1,0.8,1.8,1.8,1.8c1,0,1.8-0.8,1.8-1.8s-0.8-1.8-1.8-1.8l0,0C126.4,167.2,125.6,168,125.6,169z"
		/>
	<path class="st7" d="M119.8,169c0,1,0.8,1.8,1.8,1.8s1.8-0.8,1.8-1.8s-0.8-1.8-1.8-1.8l0,0C120.6,167.2,119.8,168,119.8,169z"/>
	<rect x="149.1" y="156.6" class="st4" width="1" height="14.2"/>
	<rect x="132" y="135.4" class="st6" width="121.2" height="6.7"/>
</g>
<g id="freepik--Floor--inject-4">
	<polygon class="st4" points="40.8,360.5 93.1,360.2 145.4,360.1 250,360 354.6,360.1 406.9,360.2 459.2,360.5 406.9,360.7 
		354.6,360.8 250,361 145.4,360.8 93.1,360.7 	"/>
</g>
<g id="freepik--Character--inject-4">
	<path class="st8" d="M275.4,260.8L245.5,285c-5.7,4.6-10.7,8.7-13,11.1l0,0c-0.9,0.9-1.4,1.5-1.4,1.8c0,0,0,0,0,0.1
		c0.2,2.6,35.5,49.6,37.3,50.8s5.4-3.8,5.5-6.7s-5.4-26.9-5.4-26.9l29.6-24.4L275.4,260.8z"/>
	<path class="st0" d="M251.6,280l-6.1,5c-5.7,4.6-10.7,8.7-13,11.1l0,0c-0.6,0.6-1,1.2-1.4,1.8c0,0,0,0,0,0.1
		c0.2,2.6,35.5,49.6,37.3,50.8s5.4-3.8,5.5-6.7s-5.4-26.9-5.4-26.9l6.3-5L251.6,280z"/>
	<path class="st9" d="M268.3,348.8c-1.8-1.2-37.1-48.1-37.3-50.8c-0.1-1,6.4-6.5,14.5-13l0.3-0.2l23.1,30l-0.5,0.4
		c0,0,5.5,24,5.4,26.9S270,350,268.3,348.8z"/>
	<path class="st4" d="M269.7,346.9c-5.8-8-29.8-40-36.1-47.5c-0.1-0.1-0.1,0-0.1,0c5.5,8.1,29.8,39.9,36,47.6
		C269.7,347.1,269.8,347,269.7,346.9z"/>
	<path class="st4" d="M270.2,317.8c-1.8-3.5-5.1-7-9.1-7.7c-0.2,0-0.2,0.2-0.1,0.3c3.2,2.3,6.2,4.8,8.8,7.7c0.1,0.1,0.3,0.1,0.4,0
		C270.2,318,270.2,317.8,270.2,317.8z"/>
	<path class="st4" d="M270.5,321c-1.8-3.5-5.1-7-9.1-7.7c-0.1,0-0.2,0.2-0.1,0.3c3.2,2.2,6.1,4.8,8.8,7.7c0.1,0.1,0.2,0.1,0.4,0
		C270.5,321.2,270.6,321.1,270.5,321z"/>
	<path class="st4" d="M270.8,324.3c-1.8-3.5-5.1-7-9.1-7.7c-0.2,0-0.2,0.2-0.1,0.3c3.2,2.3,6.1,4.8,8.8,7.7c0.1,0.1,0.3,0.1,0.4,0
		C270.9,324.5,270.9,324.4,270.8,324.3z"/>
	<path class="st6" d="M291.5,232c-2.1,10.5-45.5,52.2-45.5,52.2l30.2,34.9c0,0,61.6-61.5,58.4-84.6c-2.8-20.1-32.9-100.9-32.9-100.9
		H267C267,133.6,293.6,221.7,291.5,232z"/>
	<path class="st6" d="M291.5,232c-2.1,10.5-45.5,52.2-45.5,52.2l30.2,34.9c0,0,61.6-61.5,58.4-84.6c-2.8-20.1-32.9-100.9-32.9-100.9
		H267C267,133.6,293.6,221.7,291.5,232z"/>
	<path class="st4" d="M279.7,310.8c-4-5-2.8-3.6-6.9-8.6c-2-2.4-15.1-18.4-17.4-20.3c-0.1,0-0.1,0-0.1,0.1
		c1.5,2.6,14.9,18.3,16.9,20.6c4.2,4.9,3,3.4,7.3,8.3c0,0,0.1,0,0.1,0C279.7,310.9,279.8,310.8,279.7,310.8L279.7,310.8z"/>
	<path class="st4" d="M295.8,226.9c-0.5-2.6-1.1-5.2-1.6-7.8c-1.1-5.3-2.3-10.6-3.6-15.9c-2.5-10.5-5.2-20.9-8.2-31.2
		c-3-10.4-6.1-20.8-9.7-30.9c-0.5-1.3-0.9-2.5-1.4-3.8c0,0,0-0.1,0-0.1s-0.1,0-0.1,0c0,0,0,0,0,0.1c3.1,10.2,6.3,20.4,9.3,30.6
		c2.9,10.3,5.6,20.5,8.1,30.8c1.3,5.2,2.5,10.4,3.6,15.6c0.6,2.6,1.1,5.1,1.7,7.7c0.7,2.6,1.2,5.2,1.5,7.9c0.1,2.5-0.6,5-2,7.1
		c-1.3,2.1-2.8,4.1-4.3,6.1c-3,4-31.2,35.5-32.1,36.4c-0.1,0.1,0,0.2,0.1,0.1c3.8-3.4,27.8-29.3,30.8-33.4c1.5-2,3-4,4.4-6
		c1.4-1.8,2.6-3.9,3.4-6.1C296.4,231.8,296.4,229.3,295.8,226.9z"/>
	<path class="st4" d="M295.8,133.6l-6.3,82.7c-6-28.3-22.4-82.7-22.4-82.7H295.8z"/>
	<path class="st8" d="M280.9,303.9c0,0,7.5,36.5,7.5,36.5c0.1,7.4,0.3,13.8,0.7,17.1l0,0c0,0.8,0.2,1.6,0.6,2.3l0,0
		c2.2,1.5,60.9,2.4,63,1.7s0.3-6.6-1.9-8.4s-24.6-12.3-24.6-12.3l-7.9-36.5L280.9,303.9z"/>
	<path class="st0" d="M352.7,361.5c-2.1,0.7-60.8-0.3-63-1.7l0,0c-0.4-0.7-0.6-1.5-0.6-2.3c0,0,0,0,0-0.1c-0.4-3.3-0.6-9.8-0.8-17.1
		l-1.3-6.4h37.7l1.5,6.8c0,0,22.3,10.4,24.6,12.3S354.8,360.9,352.7,361.5z"/>
	<path class="st9" d="M352.7,361.5c-2.1,0.7-60.8-0.3-63-1.7c-0.9-0.5-1.2-9.1-1.4-19.5V340l37.9,0.2v0.6c0,0,22.3,10.4,24.6,12.3
		S354.8,360.9,352.7,361.5z"/>
	<path class="st4" d="M352.1,359.3c-9.9-0.4-49.8-1.1-59.6-0.7c-0.1,0-0.1,0.1,0,0.1c9.8,0.6,49.8,1,59.7,0.8
		C352.3,359.4,352.3,359.3,352.1,359.3z"/>
	<path class="st4" d="M329.4,341c-3.9-0.8-8.7-0.3-11.7,2.5c-0.1,0.1,0,0.3,0.2,0.2c3.7-1.1,7.6-1.9,11.5-2.2c0.1,0,0.2-0.1,0.2-0.3
		C329.6,341.1,329.5,341,329.4,341z"/>
	<path class="st4" d="M332.2,342.8c-3.9-0.8-8.6-0.3-11.7,2.5c-0.1,0.1,0,0.3,0.2,0.2c3.7-1.2,7.6-1.9,11.5-2.2
		c0.1,0,0.2-0.1,0.2-0.3C332.4,342.9,332.3,342.8,332.2,342.8z"/>
	<path class="st4" d="M335,344.5c-3.9-0.8-8.7-0.3-11.7,2.5c-0.1,0.1,0,0.3,0.2,0.2c3.8-1.1,7.6-1.9,11.5-2.2c0.1,0,0.3-0.1,0.3-0.3
		S335.1,344.5,335,344.5z"/>
	<path class="st6" d="M298.4,133.6c-1.4,5.7-2.4,11.5-3,17.3c-0.7,7.3-1.6,13.7-2.6,14.5s-6.6,4.4-8.4,5.6c0,0,17.1,51.8,21.5,69.1
		c6.4,25,21.7,100.2,21.7,100.2h-40.8c0,0-12.4-71.6-17.8-95.4c-4.6-20.4-22.5-81.8-22.5-81.8c-3.8-9.6-3.3-20.3,1.5-29.5
		C248,133.6,298.4,133.6,298.4,133.6z"/>
	<path class="st4" d="M326.2,332.3c-6.4,0-4.6-0.1-11-0.1c-3.1,0-23.8,0.2-26.7,0.7c-0.1,0-0.1,0.1,0,0.1c2.9,0.4,23.6-0.1,26.7-0.1
		c6.4-0.2,4.6-0.2,11-0.4C326.2,332.5,326.3,332.5,326.2,332.3C326.2,332.4,326.2,332.3,326.2,332.3z"/>
	<path class="st4" d="M295.7,163.4c-4,2.2-7.7,4.7-11.3,7.5c-0.1,0-0.1,0.1-0.1,0.2c0,0.1,0.1,0.1,0.2,0.1c0,0,0,0,0,0
		c3.8-2.4,7.7-4.7,11.4-7.3c0.1-0.1,0.1-0.3,0-0.4C296,163.4,295.9,163.3,295.7,163.4z"/>
	<path class="st4" d="M292.6,135.2c0-0.1-0.3-0.1-0.3,0c0.7,4.6,1.2,9.2,1.4,13.8c0.1,2.1,0.3,14-3.5,13.8c-0.6-0.1-1-0.6-1.3-1.5
		c-0.2-1.2-0.2-2.4-0.1-3.6c0-2.5,0-5-0.2-7.5c-0.3-4.6-1-9.3-2.3-13.8c0-0.1-0.1-0.1-0.1-0.1c-0.1,0-0.1,0.1-0.1,0.1
		c1.1,6.3,1.7,12.7,1.8,19.2c0,3.1-0.8,7.9,2.4,7.9s4.2-8,4.3-10.1C294.8,147.2,294.1,141.1,292.6,135.2z"/>
	<path class="st4" d="M290.4,163c-0.2,0.8-0.4,1.7-0.5,2.5c-0.1,0.7-0.1,1.3,0,2c0,0.1,0.2,0.1,0.3,0c0.3-0.7,0.5-1.3,0.5-2.1
		c0.2-0.8,0.3-1.6,0.5-2.4c0-0.2-0.1-0.4-0.4-0.5C290.7,162.6,290.4,162.8,290.4,163L290.4,163z"/>
	<path class="st4" d="M252.3,162.8c3.5-0.2,7-0.9,10.3-2c3.8-1.2,7.2-3.3,10-6.2c1.6-1.6,2.9-3.4,3.8-5.4c0-0.1,0.2,0,0.1,0.1
		c-0.6,1.9-1.5,3.8-2.7,5.4c-1.3,1.6-2.7,3-4.4,4.2c-3.3,2.4-7.2,3.9-11.2,4.3c-2,0.3-4,0.3-6-0.1
		C252,163.2,252.1,162.9,252.3,162.8z"/>
	<path class="st4" d="M282.1,309.9c-0.1-0.9-0.2-1.9-0.4-2.8c-0.3-1.8-0.6-3.6-0.8-5.4c-0.6-3.6-1.2-7.3-1.8-10.9
		c-1.3-7.2-2.8-14.4-4.3-21.5c-0.9-4-1.9-8-3-12c-0.1-0.3-0.5-0.1-0.4,0.1c0.7,3.6,1.3,7.3,2,11s1.5,7.3,2.2,10.9
		c1.4,7.2,2.8,14.4,4.2,21.6c0.4,2,0.8,4.1,1.2,6.1c0.2,1,0.4,2,0.6,3s0.5,2,0.7,3c0,0.1,0.2,0,0.1,0
		C282.2,311.8,282.2,310.8,282.1,309.9z"/>
	<path class="st4" d="M310.2,255.6c-1.4-6.8-3.2-13.5-5-20.1c-3.7-13.4-8.1-26.6-12.4-39.8c-1.3-3.8-2.5-7.6-3.8-11.4
		c-0.6-1.9-3.7-12.1-4.1-13.1c0,0,0-0.1-0.1-0.1c0,0-0.1,0-0.1,0.1c0,0,0,0,0,0c0.9,3.5,2.1,8.6,3.1,12s2.1,6.8,3.2,10.2
		c2.1,6.7,4.2,13.4,6.2,20.1c4,13.2,8,26.5,11.2,39.9c0.9,3.8,1.8,7.5,2.6,11.3s1.5,7.6,2.3,11.4c0,0.1,0.2,0.1,0.2,0
		C313,269.2,311.6,262.4,310.2,255.6z"/>
	<path class="st4" d="M284.9,291c-2.3-12.9-4.9-25.8-7.9-38.5s-6.3-25.6-10-38.3s-7.8-25.2-12.1-37.6c-2.2-5.8-4.1-11.8-5.6-17.9
		c-1.3-6-2-12.6-0.6-18.6c0.4-1.5,0.8-3.1,1.4-4.5c0-0.1-0.1-0.2-0.1-0.1c-4.9,11.4-1.7,23.9,2,35.2c2,6.2,4.2,12.3,6.3,18.5
		c2.1,6.4,4.1,12.7,6,19.1c3.8,12.7,7.2,25.5,10.4,38.3c3.2,12.9,6,25.8,8.4,38.8c2.5,13.1,4.5,26.2,6.6,39.3
		c0.3,1.7,0.5,3.4,0.7,5.1c0,0.1,0.2,0.1,0.1,0C288.8,316.9,287.1,304,284.9,291z"/>
	<path class="st8" d="M284,79.4c4.8,17.6,18.6,38.7,25.2,41.6c5.7,2.5,32.3-7.3,42.3-13.7c2.9-1.8-8.9-18.3-12.4-17.1
		c-11.2,3.7-23.4,9.3-24.4,9c-1.9-0.6-13.8-15.3-22.5-25.1C282.6,63.2,282.1,72.4,284,79.4z"/>
	<path class="st8" d="M370.5,92.6c2.3-1,19.6-1.5,19.6-5.3S368,84.6,368,84.6L370.5,92.6z"/>
	<path class="st8" d="M337.2,93c3-3.8,5.7-7.9,8.4-8.6c1.8-0.5,21.5,0.3,24.6,0.1s14.1,0.1,14.3,2.8c0.4,3.8-12.6,3.8-14,5.7
		c-4.8,6.7-23,16.7-23,16.7L337.2,93z"/>
	<path class="st4" d="M384.7,87.4c-0.2-0.7-0.6-1.3-1.3-1.7c-1.3-0.9-3.1-1-4.7-1.1c-2.4-0.2-4.8-0.2-7.2-0.1 M371.6,84.6
		c1.8,0,3.6,0,5.4,0.2c1.6,0.1,3.3,0.3,4.9,0.8c0.7,0.2,1.4,0.6,1.9,1.1c0.4,0.4,0.5,0.9,0.4,1.4c-0.5,1.7-3.8,2.2-5.3,2.5
		c-2,0.4-4,0.8-6,1.2c-0.1,0,0,0.1,0,0.1c2.1-0.4,4.2-0.6,6.3-0.9c1.7-0.2,3.4-0.8,4.8-1.8c0.6-0.4,0.9-1.1,0.8-1.9L371.6,84.6z"/>
	<path class="st7" d="M336.4,90.7l15.6,22.8c0,0-24.2,12.1-33.4,11.9c-8.8-0.2-12-1.5-14.8-4.1c-1.7-1.6-11.5-15.4-19.5-38.4
		c-6.7-19.3,3.2-16.4,12-5.8c4.4,5.3,18.5,21.1,19.2,21.1S336.4,90.7,336.4,90.7z"/>
	<path class="st10" d="M292.1,87.4c-0.5,1.3-0.5,2.8,0,4.1C292.6,90.2,292.6,88.7,292.1,87.4z M304.1,110.9c-0.5,1.3-0.5,2.8,0,4.1
		c0.2-0.7,0.4-1.4,0.4-2.1C304.5,112.3,304.3,111.6,304.1,110.9L304.1,110.9z M337,107.1c-0.5,1.3-0.5,2.8,0,4.1
		C337.5,109.8,337.5,108.4,337,107.1z M340.2,99.1c-0.7,0-1.4,0.1-2.1,0.4c1.3,0.5,2.8,0.5,4.1,0C341.6,99.2,340.9,99,340.2,99.1
		L340.2,99.1z M324.9,114c-0.7,0-1.4,0.1-2.1,0.4c1.3,0.5,2.8,0.5,4.1,0C326.3,114.1,325.6,114,324.9,114z M326.1,100.2
		c-0.5-0.5-1.1-0.9-1.7-1.2c0.3,0.6,0.7,1.2,1.2,1.7c0.5,0.5,1.1,0.9,1.7,1.2C327,101.3,326.6,100.7,326.1,100.2L326.1,100.2z
		 M292.3,73.7c-0.5-0.5-1.1-0.9-1.7-1.2c0.6,1.3,1.6,2.3,2.9,2.9C293.2,74.7,292.8,74.2,292.3,73.7L292.3,73.7z M315.1,121.2
		c-0.5-0.5-1.1-0.9-1.7-1.2c0.3,0.6,0.7,1.2,1.2,1.7c0.5,0.5,1.1,0.9,1.7,1.2C316.1,122.3,315.6,121.7,315.1,121.2L315.1,121.2z
		 M304.6,97.7c-0.5-0.5-1.1-0.9-1.7-1.2c0.6,1.3,1.6,2.3,2.9,2.9C305.5,98.8,305.1,98.2,304.6,97.7L304.6,97.7z M315.7,107.4
		c-0.5,0.5-0.9,1.1-1.2,1.7c1.3-0.6,2.3-1.6,2.9-2.9C316.8,106.5,316.2,106.9,315.7,107.4L315.7,107.4z M347.9,112.7
		c-0.5,0.5-0.9,1.1-1.2,1.7c0.6-0.3,1.2-0.7,1.7-1.2c0.5-0.5,0.9-1.1,1.2-1.7C349,111.8,348.4,112.2,347.9,112.7L347.9,112.7z
		 M331.9,120.7c-0.5,0.5-0.9,1.1-1.2,1.7c0.6-0.3,1.2-0.7,1.7-1.2c0.5-0.5,0.9-1.1,1.2-1.7C333,119.8,332.5,120.2,331.9,120.7
		L331.9,120.7z"/>
	<path class="st4" d="M331.6,94.4c2.3,3.4,4.6,6.8,6.8,10.3c1.1,1.7,5.1,8.6,6.3,10.6c0,0.1-0.2,0.2-0.2,0.1
		c-1.2-1.7-5.6-8.6-6.7-10.4c-2.1-3.5-4.3-7-6.3-10.6C331.5,94.4,331.6,94.3,331.6,94.4z"/>
	<path class="st10" d="M323.3,124.8c-1.5,0.4-3.1,0.6-4.7,0.6c-8.8-0.2-12-1.5-14.7-4.1c-1.7-1.6-11.5-15.4-19.5-38.4
		c-1.5-4.4-2.2-7.7-2.2-9.9c0-0.2,0-0.4,0-0.6c0-0.2,0-0.4,0-0.6c0-0.2,0-0.3,0.1-0.5c0.1-0.7,0.5-1.4,1-1.9
		C288.7,76.6,314.3,111.1,323.3,124.8z"/>
	<rect x="321.4" y="81.3" class="st1" width="59.1" height="3.2"/>
	<polygon class="st9" points="380.5,81.3 380.5,84.5 344.6,84.5 347,81.3 	"/>
	<polygon class="st1" points="349.6,84.5 389.2,84.5 409.7,49.6 370.2,49.6 	"/>
	<path class="st3" d="M378.2,67c-0.7,1.6-0.2,3.3,1.2,3.8c1.6,0.4,3.3-0.5,3.9-2.1c0.7-1.6,0.2-3.3-1.2-3.8
		C380.5,64.6,378.8,65.4,378.2,67z"/>
	<path class="st7" d="M244.2,145.7c0.1,0.2,61.9-0.3,62.4-0.9c0.8-0.9-13.8-67.6-20.3-75.8c-1.4-1.8-5.9-2.2-9.6-1.7
		c-1,0.1-2,0.3-2.9,0.6h-0.1c-0.8,0.2-1.5,0.6-2.1,1.1c-10.5,8.6-19.1,38.1-21.1,47C247.2,130.6,243.6,145.1,244.2,145.7z"/>
	<path class="st10" d="M289,121.2c-0.5,0.5-0.9,1.1-1.2,1.7c1.3-0.6,2.3-1.6,2.9-2.9C290.1,120.3,289.5,120.7,289,121.2z
		 M273.5,72.9c-0.5,0.5-0.9,1.1-1.2,1.7c0.6-0.3,1.2-0.7,1.7-1.2c0.5-0.5,0.9-1.1,1.2-1.7C274.6,71.9,274,72.3,273.5,72.9
		L273.5,72.9z M276.1,143.2c-0.5,0.5-0.9,1.1-1.2,1.7c0.6-0.3,1.2-0.7,1.7-1.2c0.5-0.5,0.9-1.1,1.2-1.7
		C277.2,142.3,276.6,142.7,276.1,143.2L276.1,143.2z M258.9,115.6c-0.5,0.5-0.9,1.1-1.2,1.7c1.3-0.6,2.3-1.6,2.9-2.9
		C260,114.7,259.4,115.1,258.9,115.6L258.9,115.6z M261.3,128.8c-0.5-0.5-1.1-0.9-1.7-1.2c0.3,0.6,0.7,1.2,1.2,1.7
		c0.5,0.5,1.1,0.9,1.7,1.2C262.2,129.8,261.8,129.3,261.3,128.8L261.3,128.8z M278.3,98.8c-0.5-0.5-1.1-0.9-1.7-1.2
		c0.6,1.3,1.6,2.3,2.9,2.9C279.2,99.8,278.8,99.3,278.3,98.8L278.3,98.8z M302.2,144.2c0.1,0.3,0.3,0.5,0.4,0.8l0,0h0.8
		C303.1,144.7,302.7,144.4,302.2,144.2L302.2,144.2z M303.5,128.3c-0.6,0-1.2,0.1-1.8,0.4c0.6,0.2,1.3,0.4,2,0.4L303.5,128.3z
		 M290.7,105.8c-0.7,0-1.4,0.1-2.1,0.4c0.7,0.3,1.4,0.4,2.1,0.4c0.7,0,1.4-0.1,2.1-0.4C292.1,106,291.4,105.8,290.7,105.8
		L290.7,105.8z M248.5,136.9c-0.7,0-1.4,0.1-2.1,0.4c0.7,0.2,1.4,0.4,2.1,0.4c0.7,0,1.4-0.1,2.1-0.4
		C250,137,249.3,136.9,248.5,136.9L248.5,136.9z M263,100.5c-0.7,0-1.4,0.1-2.1,0.4c0.7,0.2,1.4,0.4,2.1,0.4c0.7,0,1.4-0.1,2.1-0.4
		C264.4,100.6,263.7,100.5,263,100.5z M277.2,127.9c-0.7,0-1.4,0.1-2.1,0.4c1.3,0.5,2.8,0.5,4.1,0
		C278.6,128,277.9,127.9,277.2,127.9L277.2,127.9z M279.6,84.1c-0.7,0-1.4,0.1-2.1,0.4c0.7,0.2,1.4,0.4,2.1,0.4
		c0.7,0,1.4-0.1,2.1-0.4C281,84.2,280.2,84.1,279.6,84.1L279.6,84.1z M265.6,83.8c-0.5,1.3-0.5,2.8,0,4.1c0.2-0.7,0.4-1.4,0.4-2.1
		C265.9,85.2,265.8,84.5,265.6,83.8L265.6,83.8z M261,145.3c-0.1,0.1-0.1,0.2-0.1,0.3h0.2C261,145.5,260.9,145.4,261,145.3
		L261,145.3z M289.7,135.6c-0.3,0.7-0.4,1.4-0.4,2.1c0,0.7,0.1,1.4,0.4,2.1C290.2,138.4,290.2,136.9,289.7,135.6z M273.9,111.7
		c-0.5,1.3-0.5,2.8,0,4.1c0.2-0.7,0.4-1.4,0.4-2.1C274.2,113.1,274.1,112.4,273.9,111.7L273.9,111.7z M292.1,87.4
		c-0.5,1.3-0.5,2.8,0,4.1C292.6,90.2,292.6,88.7,292.1,87.4z"/>
	<path class="st8" d="M263.8,75.1c-16.1,16.3-36.3,50.5-32.5,57.5c4.2,7.7,26.6-15.1,26.5-16.4c-0.1-1,7.8-21.8,13.8-36.9
		S267.8,71.1,263.8,75.1z"/>
	<path class="st7" d="M258,116.2c0.7-2.2,11.4-29.6,14.5-38.3s0.2-11.4-8.5-3.4S236,108.9,231.6,123c-4.2,13.6,2.8,13.6,12,7.3
		C251.1,125.2,258,116.2,258,116.2z"/>
	<path class="st10" d="M265.5,83.8c-0.5,1.3-0.5,2.8,0,4.1c0.2-0.7,0.4-1.4,0.4-2.1C265.9,85.2,265.8,84.5,265.5,83.8z M246,121.5
		c-0.3,0.7-0.4,1.4-0.4,2.1c0,0.7,0.1,1.4,0.4,2.1C246.5,124.3,246.5,122.8,246,121.5z M263,100.5c-0.7,0-1.4,0.1-2.1,0.4
		c0.7,0.2,1.4,0.4,2.1,0.4c0.2,0,0.4,0,0.6,0l0,0c0.1-0.2,0.2-0.4,0.2-0.6C263.6,100.5,263.3,100.5,263,100.5z M238,114.7
		c-0.7,0-1.4,0.1-2.1,0.4c0.7,0.3,1.4,0.4,2.1,0.4c0.7,0,1.4-0.1,2.1-0.4C239.4,114.8,238.7,114.7,238,114.7z M248.9,108.9
		c-0.5-0.5-1.1-0.9-1.7-1.2c0.3,0.6,0.7,1.2,1.2,1.7c0.5,0.5,1.1,0.9,1.7,1.2C249.8,109.9,249.3,109.3,248.9,108.9L248.9,108.9z
		 M236.2,130.9c-0.5-0.5-1.1-0.9-1.7-1.2c0.3,0.6,0.7,1.2,1.2,1.7c0.5,0.5,1.1,0.9,1.7,1.2C237.1,132,236.7,131.4,236.2,130.9
		L236.2,130.9z M273.6,72.9c-0.5,0.5-0.9,1.1-1.2,1.7c0.4-0.2,0.8-0.4,1.1-0.7l0,0C273.5,73.5,273.6,73.2,273.6,72.9L273.6,72.9z
		 M252.2,92.9c-0.5,0.5-0.9,1.1-1.2,1.7c1.3-0.6,2.3-1.6,2.9-2.9C253.2,91.9,252.6,92.4,252.2,92.9L252.2,92.9z"/>
	<path class="st4" d="M258,116.2c0.8-2.4,1.6-4.8,2.4-7.2s1.8-4.8,2.6-7.2s1.8-4.8,2.8-7.1s1.9-4.7,3-7c-0.8,2.4-1.6,4.8-2.4,7.3
		s-1.8,4.8-2.6,7.2s-1.8,4.8-2.8,7.1S259,113.8,258,116.2z"/>
	<path class="st4" d="M269.4,89.5c-0.3,0.8-0.6,1.6-1.1,2.4c-0.3,0.4-0.5,0.7-0.8,1c-0.3,0.3-0.6,0.6-1,0.8c0.5-0.7,0.9-1.4,1.4-2.1
		C268.4,90.8,268.9,90.1,269.4,89.5z"/>
	<path class="st8" d="M231.3,132.6c3.6,5.2,13.4,6.2,38,11c3.4,0.7,14.5-22,11-22.9c-4.5-1.1-22.3-4.5-23.6-4.6
		C245.4,115.3,228.9,129.1,231.3,132.6z"/>
	<path class="st8" d="M275.4,119.5c0,0,10.4,1.6,15.6,4.1c5.3,2.8,9.9,6.8,13.4,11.7c3.8,5.3,9.1,20.7,5,23
		c-3.8,2.1-8.5-13.9-8.5-13.9s7.5,15.6,2.5,17.3s-9.4-17.2-9.4-17.2s7.4,16.1,1.9,17.1c-4.1,0.7-9.1-16.2-9.1-16.2s6.2,13.9,2,14.8
		c-4.6,1-10.2-14.3-10.2-14.3c-11.1,0.5-16.5-3.8-20.1-7.3C257.6,137.7,275.4,119.5,275.4,119.5z"/>
	<path class="st4" d="M298.6,138.8c1,1.8,1.9,3.6,2.7,5.5s1.5,3.8,2.1,5.7c0.8,2.5,1.4,5.1,1.6,7.8c-0.8-4.7-3.5-11.4-4.3-13.3
		S299.3,140.7,298.6,138.8C298.5,138.8,298.6,138.8,298.6,138.8z"/>
	<path class="st4" d="M291.8,141.5c1.1,2.4,2.3,4.6,3.3,7s1.7,4.7,2.6,7.2c0.1,0.2-0.1,0.2-0.1,0c-0.9-2.4-2-4.6-2.9-7
		S292.8,143.9,291.8,141.5C291.7,141.5,291.8,141.5,291.8,141.5z"/>
	<path class="st4" d="M285.5,142.8c1.8,3.5,3.2,7.3,4.2,11.1c0.1,0.2-0.1,0.1-0.2-0.1c-1.3-3.7-2.4-6.7-4.2-11
		C285.4,142.8,285.5,142.7,285.5,142.8z"/>
	<path class="st7" d="M277.5,119.5L256,143.4c0,0-21.7-5-24.9-10.6c-2.1-3.7,14.3-18.5,26.7-16.9L277.5,119.5z"/>
	<path class="st10" d="M258.4,116.2c-0.3,0.3-0.5,0.7-0.7,1.1c0.6-0.2,1.1-0.6,1.5-1L258.4,116.2z M261.3,128.8
		c-0.5-0.5-1.1-0.9-1.7-1.2c0.3,0.6,0.7,1.2,1.2,1.7c0.5,0.5,1.1,0.9,1.7,1.2C262.2,129.8,261.8,129.3,261.3,128.8z M236.1,130.9
		c-0.5-0.5-1.1-0.9-1.7-1.2c0.3,0.6,0.7,1.2,1.2,1.7c0.5,0.5,1.1,0.9,1.7,1.2C237.1,132,236.7,131.4,236.1,130.9z M248.6,136.9
		c-0.7,0-1.4,0.1-2.1,0.4c0.7,0.2,1.4,0.4,2.1,0.4c0.7,0,1.4-0.1,2.1-0.4C250,137.1,249.3,136.9,248.6,136.9L248.6,136.9z
		 M246,121.5c-0.3,0.7-0.4,1.4-0.4,2.1c0,0.7,0.1,1.4,0.4,2.1C246.5,124.3,246.5,122.8,246,121.5z"/>
	<path class="st4" d="M243,119.9c4.3-3.1,9.5-4.5,14.7-3.9c0.1,0,0.1,0.1,0,0.1C252.3,116,245,118.8,243,119.9
		C243,120.1,242.9,120,243,119.9z"/>
	<path class="st4" d="M250.1,139.4c2.2-2.8,4.6-5.4,7-8s4.8-5.3,7.2-7.9c1.4-1.4,2.8-2.9,4.2-4.3c0,0,0,0,0.1,0c0,0,0,0,0,0.1
		c-2.2,2.8-4.6,5.4-6.9,8s-4.8,5.3-7.2,7.9c-1.4,1.5-2.8,2.9-4.2,4.3C250.2,139.6,250.1,139.5,250.1,139.4z"/>
	<path class="st4" d="M277.6,119.2c-1.3-0.4-2.6-0.7-4-0.9c-1.4-0.3-2.7-0.5-4.1-0.7c-2.7-0.4-8.4-1.7-13.4-1.7
		c-0.1,0,0.2,0.3,0.3,0.3c2.4-0.1,19.5,3.3,20.9,3.4c-0.1,0.1-0.1,0.2-0.1,0.3c0,0.1,0,0.2,0.1,0.1c0.2-0.1,0.3-0.3,0.5-0.4
		c0.1-0.1,0.1-0.2,0-0.3C277.7,119.2,277.6,119.2,277.6,119.2z"/>
	<path class="st4" d="M245,140.3c3.8,0.8,7.4,2,11.1,2.9l-0.2,0.1c0.7-0.7,1.3-1.3,2.1-1.9c-0.5,0.8-1.1,1.5-1.7,2.2l-0.1,0.1H256
		c-1.9-0.3-3.8-0.7-5.6-1.3C248.5,141.8,246.7,141.1,245,140.3z"/>
	<path class="st8" d="M283.7,77.4c-3,0.3-8.5-3.8-10.1-8.1c-0.1-0.3,0.8-3.1,1.7-6.6c0.5-2.1,1.1-4.5,1.4-6.7
		c0.1-0.4,13.2,5.5,13.2,5.5c-1.2,2.6-2.1,5.4-2.7,8.2c0,0.3-0.1,0.6,0,0.9c0,0,0,0.1,0,0.1C287.3,72.6,286.9,77,283.7,77.4z"/>
	<path class="st4" d="M287.3,70.7c0,0,0,0.1,0,0.1c-0.5,0-1-0.1-1.4-0.1c-8.1-1.5-8.6-11.9-8.6-14.6c2.4,0.7,12.8,5.4,12.8,5.4
		c-1.2,2.6-2.1,5.4-2.7,8.2C287.3,70.1,287.3,70.4,287.3,70.7z"/>
	<path class="st8" d="M276.9,38.5c-2.1,4.7-1.3,19.2,1.8,22.8c4.5,5.2,12.7,6.7,17.3,1.1c4.5-5.4,3.1-24.3-0.4-27.6
		C290.4,29.9,280,31.6,276.9,38.5z"/>
	<path class="st4" d="M287.6,48.8C287.6,48.8,287.5,48.8,287.6,48.8c0,1.1-0.1,2.2-0.9,2.6 M286.6,51.4c1.1-0.2,1.2-1.7,0.9-2.6
		L286.6,51.4z"/>
	<path class="st4" d="M286.6,47.8c-1.6,0-1.5,3.1-0.1,3.1S288,47.9,286.6,47.8z"/>
	<path class="st4" d="M293.6,48.8C293.6,48.8,293.6,48.8,293.6,48.8c0.1,1.1,0.2,2.2,1.1,2.5v0.1C293.6,51.2,293.4,49.7,293.6,48.8z
		"/>
	<path class="st4" d="M294.4,47.7c1.6-0.1,1.7,3,0.3,3.1S293.1,47.8,294.4,47.7z"/>
	<path class="st4" d="M285.4,46.4c0.4-0.1,0.8-0.3,1.2-0.4c0.5-0.1,0.9-0.3,1.1-0.7c0.2-0.3,0.1-0.6-0.1-0.8
		c-0.5-0.4-1.1-0.4-1.7-0.2c-0.6,0.2-1.1,0.5-1.4,1.1c-0.2,0.3-0.1,0.8,0.3,1C285,46.4,285.2,46.4,285.4,46.4z"/>
	<path class="st4" d="M295.6,45.1c-0.4-0.1-0.8-0.2-1.3-0.3c-0.5,0-0.9-0.2-1.2-0.6c-0.2-0.2-0.2-0.6,0-0.8c0.4-0.4,1.1-0.5,1.6-0.3
		c0.6,0.1,1.1,0.4,1.5,0.9c0.2,0.3,0.1,0.8-0.2,1C296,45,295.8,45.1,295.6,45.1z"/>
	<path class="st4" d="M287.2,57.8c0.2,0.2,0.5,0.5,0.8,0.6c0.3,0,0.7-0.1,1-0.3 M289.1,58.2c-0.3,0.4-0.8,0.6-1.2,0.5
		c-0.4-0.1-0.7-0.4-0.8-0.9c0-0.1,0.1-0.1,0.1,0L289.1,58.2z"/>
	<path class="st4" d="M288.2,54.9c0.5,0.8,1.3,1.3,2.2,1.5c0.4,0.1,0.8,0.1,1.2,0c0.1,0,0.1,0,0.2,0h0.2c0.1,0,0.2-0.1,0.2-0.2l0,0
		c0,0,0-0.1,0-0.1l0,0v-0.1c0-0.8-0.1-1.9-0.1-1.9c0.3,0.1,1.7,0.8,1.7,0.4c-0.1-3.4-0.6-6.8-1.4-10.1c0,0-0.1-0.1-0.1-0.1
		c0,0,0,0-0.1,0.1c0.1,3.1,0.8,6.2,0.9,9.4c-0.5-0.2-1-0.4-1.6-0.5c-0.1,0,0.2,2.2,0.2,2.6l0,0c-1.2,0.2-2.5-0.2-3.5-1
		C288.3,54.8,288.2,54.8,288.2,54.9z"/>
	<path class="st4" d="M291.2,56c-0.4,0.5-0.9,1-1.6,1.2c-0.3,0.1-0.7,0.2-1.1,0.1c-0.8-0.2-0.8-0.9-0.7-1.5c0.1-0.3,0.2-0.6,0.3-0.9
		C289.1,55.5,290.1,55.9,291.2,56z"/>
	<path class="st11" d="M289.6,57.3c-0.3,0.1-0.7,0.2-1.1,0.1c-0.8-0.2-0.8-0.9-0.7-1.5C288.7,55.8,289.5,56.4,289.6,57.3z"/>
	<path class="st4" d="M275.7,51.1c0,0-3.5-8.7-2.3-13.2c0.5-2,3.6-3,3.6-3c-0.2-1.8,0.7-3.5,2.2-4.4c2.8-1.9,8.6-0.4,8.6-0.4
		s4.7-4.9,9.8-1.8s0.5,8.7,0.5,8.7s1.5,3.2-3.7,4.6s-14.4-2.3-14.4-2.3c-0.1,3.4-0.7,6.8-1.8,10C277.9,50.2,276.9,50.9,275.7,51.1z"
		/>
	<path class="st4" d="M288.8,30.3c-1.1-0.7-2.4-1.1-3.7-1.3c-1.2-0.2-2.4-0.2-3.5,0c-2.1,0.2-3.9,1.6-4.7,3.6
		c-0.3,1-0.2,2.2,0.3,3.1c0,0,0.1,0,0.1,0c-1-1.8,0-4.1,1.6-5.2c1.8-1.1,4-1.5,6.1-1.2c1.3,0.2,2.7,0.6,3.9,1.1c0,0,0.1,0,0.1-0.1
		S288.8,30.3,288.8,30.3L288.8,30.3z"/>
	<path class="st4" d="M301.1,31.4c-0.3-1.5-1.3-2.9-2.7-3.5c-1.6-0.8-3.4-1-5.2-0.7c-1.8,0.4-3.4,1.2-4.7,2.4c0,0,0,0.1,0,0
		c2.4-2.2,5.8-2.8,8.9-1.8c1.4,0.5,2.6,1.5,3.1,2.9c0.3,1.4,0.1,2.8-0.8,4c-1,1.3-2.5,2.4-4.1,2.9c0,0,0,0.1,0,0.1
		c1.5-0.4,2.9-1.3,4-2.4C300.7,34.4,301.2,32.9,301.1,31.4z"/>
	<path class="st4" d="M295.6,41.9c-2.3,0.5-4.7,0.6-7,0.1c-2.4-0.5-4.8-1.2-7-2.2c-1.3-0.6-2.6-1.2-3.9-1.8c0,0-0.1,0,0,0.1
		c2.2,1.4,4.6,2.6,7,3.5c2.3,0.8,4.7,1.2,7.1,1.1c1.3-0.1,2.6-0.3,3.9-0.7C295.7,41.9,295.7,41.8,295.6,41.9z"/>
	<path class="st8" d="M279,50.7c0,0-2.7-4.9-4.9-4c-2.2,0.9-0.5,7.8,1.9,9c1.2,0.7,2.7,0.3,3.4-0.9c0,0,0-0.1,0.1-0.1L279,50.7z"/>
	<path class="st4" d="M274.6,48.6C274.6,48.6,274.6,48.6,274.6,48.6c1.5,1,2.5,2.6,2.8,4.3c-0.3-0.7-1.1-1-1.8-0.7
		c-0.1,0-0.1,0.1-0.2,0.1c0,0,0,0,0,0.1c0,0,0,0,0,0c0.6-0.1,1.3,0.2,1.6,0.7c0.3,0.5,0.5,0.9,0.7,1.4c0.1,0.2,0.4,0.1,0.3-0.1l0,0
		C278.3,52.4,276.9,49.1,274.6,48.6z"/>
	<path class="st0" d="M287.5,68.6l-3.7,7.9l-9.5-10.7l-3,3.1c0,0,9,16.7,9.1,16l3.7-6.8l4.5,5.1l0.2-12.2L287.5,68.6z"/>
	<path class="st4" d="M289.1,77.2c0-2,0-4-0.1-6c0,0,0-0.1-0.1-0.1s-0.1,0-0.1,0.1c-0.5,1.9-0.3,9.6-0.5,11.4l0,0
		c-0.2-0.2-4.2-4.5-4.3-4.4c-0.8,1.1-3.5,6-3.7,6.5c-1.4-2.7-6.9-12.3-8.6-14.9c0-0.1-0.2,0-0.1,0.1c1.2,2.8,8.4,15.8,8.6,15.8
		c1.4-2.3,2.7-4.7,3.9-7.2c0.7,0.9,4.7,5.7,4.8,5.4C289.1,81.7,289.1,79.4,289.1,77.2z"/>
</g>
<g id="freepik--Plant--inject-4">
	<path class="st7" d="M407.6,284.3c-6.4-13.1-17.6-19.9-30.2-16.1s-14.5,21.3-5.1,25.7s18.8-8.5,23.8-11.2S407.6,284.3,407.6,284.3z
		"/>
	<path class="st4" d="M413.8,319.3c0-1.6-0.1-3.2-0.1-4.7c-0.1-3.2-0.2-6.3-0.3-9.5c-0.2-5.8-0.8-11.5-3.2-16.8
		c-2.1-4.8-5.7-8.9-10.1-11.7c-1.7-1-3.5-1.8-5.3-2.3c-1.7-1.7-3.9-2.9-6.2-3.4c-2.9-0.6-5.9-0.7-8.9-0.2c-0.1,0-0.1,0.2,0,0.2
		c2.8-0.4,5.7-0.2,8.4,0.6c1.2,0.3,2.3,0.8,3.4,1.3c0.7,0.4,1.4,0.8,2,1.2c-2.5-0.5-5.2-0.5-7.7,0.1c-0.9,0.2-1.8,0.5-2.7,0.9
		c-0.7-0.2-1.4-0.2-2.1-0.2c-0.9,0-1.8,0.2-2.7,0.4c-1.8,0.5-3.6,1.3-5.2,2.3c0,0,0,0.1,0,0.1c0,0,0.1,0,0.1,0l0,0
		c1.6-0.9,3.3-1.5,5.1-1.9c0.9-0.2,1.7-0.3,2.6-0.4c0.5,0,1,0,1.5,0c-3.6,1.7-6.5,4.5-8.1,8.1c0,0.1,0.1,0.2,0.1,0.1
		c2-4.2,5.8-7.3,10.4-8.3c0.3-0.1,0.6-0.1,0.8-0.2c-0.1,0.4-0.1,0.8-0.1,1.3c-0.1,0.6-0.2,1.3-0.3,1.9c-0.3,1.3-0.6,2.6-1,3.8
		c-0.4,1.3-0.9,2.5-1.5,3.7c-0.6,1.3-1.3,2.5-2.1,3.6c0,0,0,0.1,0,0.1c0,0,0.1,0,0.1,0c0.8-1.2,1.6-2.3,2.3-3.5
		c1.3-2.4,2.3-4.9,2.8-7.6c0.1-0.7,0.3-1.4,0.3-2.1c0.1-0.4,0.1-0.9,0.1-1.3c1.5-0.2,3-0.3,4.5-0.1c-0.6,3.1-1.2,6.4-2.9,9.1
		c-0.1,0.1,0.1,0.2,0.1,0.1c0.8-1.4,1.6-2.9,2.2-4.5c0.6-1.5,0.9-3.1,1.1-4.7c2.6,0.4,5.1,1.2,7.4,2.5c4.3,2.5,7.7,6.3,9.9,10.8
		c2.2,4.9,3.5,10.1,3.6,15.4c0.4,6.7,0.5,13.5,1.2,20.2c0,0.4,0.7,0.6,0.8,0.1C413.9,322.2,413.9,320.7,413.8,319.3z"/>
	<path class="st4" d="M399,275.5c-0.4-0.5-0.9-1-1.5-1.3c-0.5-0.4-1.1-0.9-1.6-1.2c-1.1-0.8-2.3-1.3-3.6-1.7c0,0-0.1,0-0.1,0.1
		c0,0,0,0.1,0.1,0.1l0,0c1.3,0.3,2.5,0.9,3.6,1.8c0.5,0.4,1,0.8,1.5,1.3c0.4,0.5,0.9,0.9,1.5,1.3C399,275.7,399,275.6,399,275.5
		C399,275.5,399,275.5,399,275.5z"/>
	<path class="st4" d="M378.6,280.3c-1.1,1.2-2,2.5-2.9,3.9c-0.9,1.4-1.6,2.8-2.2,4.3c0,0,0,0.1,0.1,0c1.5-2.9,3.2-5.6,5.1-8.1
		C378.8,280.3,378.7,280.2,378.6,280.3z"/>
	<path class="st4" d="M392.4,279c-0.1,0.8-0.4,1.6-0.7,2.4c-0.3,0.7-0.8,1.4-1.2,2.1c0,0,0,0.1,0.1,0c1.1-1.3,1.8-2.8,2-4.5
		C392.6,278.9,392.4,278.9,392.4,279z"/>
	<path class="st7" d="M412.9,284.6c0,0,9-11.4,26.5-7.3c16.6,3.8,24.3,34.3,7.5,37.9s-13.8-24.5-19.9-29.3
		C422.5,282.4,416,283.1,412.9,284.6z"/>
	<path class="st4" d="M452.9,293.9c-1.1-1-2.3-1.9-3.6-2.8c-1.2-0.8-2.5-1.5-3.8-1.9c-1.9-2.9-4.5-5.4-7.5-7.1h0.5
		c0.9,0,1.9,0,2.8,0c1.9,0.1,3.7,0.6,5.4,1.4c0,0,0.1,0,0.1-0.1c0,0,0-0.1,0-0.1c-1.7-0.7-3.5-1.3-5.4-1.6c-0.9-0.2-1.8-0.2-2.7-0.2
		c-0.5,0-1,0-1.5,0.1h-0.3c-1.6-0.8-3.3-1.4-5-1.9l0.5-0.1c0.9-0.2,1.7-0.3,2.6-0.4c1.7-0.2,3.5-0.2,5.2,0.1c0.1,0,0.1-0.1,0-0.2
		c-1.8-0.2-3.5-0.3-5.3-0.2c-1.5,0-2.9,0.2-4.4,0.6c-1-0.2-2.1-0.3-3.2-0.4c-6.1-0.3-12.7,2-16.5,7s-4.5,11.7-5.1,17.7
		c-1,8.4-1.2,16.9-0.7,25.4c0,0.5,0.8,0.4,0.8-0.1c0.2-7.2,0.5-14.4,1.2-21.5c0.3-3.3,0.7-6.6,1.2-9.9c0.4-2.8,1.2-5.6,2.4-8.2
		c1.3-2.6,3.3-4.9,5.9-6.3c2.6-1.5,5.4-2.3,8.4-2.6c2.6-0.2,5.3,0,7.8,0.7c-0.1,0.5-0.1,1,0,1.5c0.1,0.6,0.2,1.3,0.4,1.9
		c0.2,0.6,0.4,1.2,0.7,1.7c0.3,0.6,0.7,1.1,1.1,1.7c0.1,0.1,0.2,0,0.1-0.1c-0.7-1-1.2-2.2-1.4-3.4c-0.1-0.6-0.2-1.2-0.2-1.8
		c0-0.5,0-0.9,0-1.4c2.8,0.8,5.4,2.2,7.6,4c0.4,0.3,0.8,0.7,1.2,1.1c-0.6,0.5-1.1,1.2-1.5,1.8c-0.6,0.9-1.1,1.8-1.5,2.8
		c-0.8,1.9-1.3,4-1.6,6.1c0,0.1,0.1,0.1,0.2,0c0.3-2,1-4,2-5.8c0.5-0.9,1-1.7,1.5-2.5c0.3-0.4,0.6-0.8,0.9-1.2
		c0.2-0.2,0.4-0.4,0.5-0.7c2.1,2,3.7,4.4,5,7l0,0c-0.8,0.9-1.5,1.9-2,2.9c-0.6,1.1-1.2,2.3-1.6,3.5c-0.8,2.3-1.5,4.7-2.1,7.1
		c0,0.1,0.1,0.1,0.2,0c0.5-2.4,1.4-4.8,2.5-7c0.5-1.1,1.1-2.2,1.6-3.2c0.6-1,1.2-2,1.6-3c1.2,2.5,1.8,5.3,2,8.1c0,0,0.1,0.1,0.1,0.1
		c0,0,0,0,0.1-0.1c-0.4-4.4-1.7-8.6-4-12.4c1.1,0.5,2.1,0.9,3.2,1.5c1.3,0.7,2.5,1.6,3.6,2.5C452.9,294.1,453,294,452.9,293.9z"/>
	<path class="st4" d="M440.1,294.5c-0.5,1.7-1.2,3.4-1.7,5.1c-0.5,1.7-0.7,3.4-0.8,5.1c0,0,0.1,0,0.1,0c0.5-3.5,1.3-6.9,2.5-10.2
		c0,0,0-0.1-0.1-0.1S440.1,294.5,440.1,294.5z"/>
	<path class="st4" d="M451.1,290.3c-0.7-0.7-1.5-1.2-2.3-1.6c-0.9-0.4-1.8-0.7-2.7-1c-0.1,0-0.1,0.1,0,0.2c0.9,0.2,1.8,0.6,2.6,1.1
		C449.6,289.3,450.4,289.8,451.1,290.3C451.1,290.4,451.2,290.4,451.1,290.3C451.2,290.3,451.2,290.3,451.1,290.3
		C451.2,290.3,451.2,290.3,451.1,290.3z"/>
	<path class="st7" d="M421.5,269.4c0,0,1.7-20.4,16.9-27c12.7-5.5,19.9,8.7,11,17.5C442.1,266.9,430.5,263.7,421.5,269.4z"/>
	<path class="st4" d="M446.5,246.4c-2.3,0.9-4.6,2-6.8,3.2c-1.8,1-3.6,2.2-5.2,3.5c0.3-0.5,0.5-1.1,0.7-1.6c0.4-0.8,0.8-1.6,1.3-2.3
		c0.9-1.5,2.1-3,3.4-4.2c0.1-0.1,0-0.2-0.1-0.1c-1.3,1.3-2.5,2.6-3.5,4.1c-0.5,0.7-1,1.5-1.4,2.3c-0.4,0.7-0.8,1.5-1,2.4l-0.2,0.1
		c-2.7,2.1-5.1,4.5-7.3,7.1c0-0.2,0.1-0.4,0.1-0.6c0.3-1,0.6-2,0.9-3c0.6-2.1,1.6-4.1,2.7-6c0.1-0.1-0.1-0.2-0.1-0.1
		c-1.2,1.9-2.2,3.8-3.2,5.8c-0.4,1-0.7,2-1,3c-0.2,0.7-0.4,1.4-0.5,2c-0.7,0.8-1.3,1.7-1.9,2.5c-6.5,9.3-9.8,20.5-10.6,31.7
		c-0.2,3.3-0.3,6.7-0.2,10.1c0,3.4,0.3,6.8,0.9,10.1c0,0.1,0.1,0.2,0.2,0.1c0.1,0,0.1-0.1,0.1-0.2c-0.1-3-0.4-5.9-0.4-8.8
		s0-5.9,0.3-8.9c0.4-5.9,1.5-11.7,3.2-17.3c1.8-5.8,4.4-11.3,7.8-16.4c0.6-0.1,1.3-0.3,1.9-0.5s1.5-0.4,2.3-0.6
		c1.5-0.4,2.9-0.9,4.2-1.5c0.1,0,0-0.2-0.1-0.1c-1.3,0.7-2.8,1.2-4.3,1.5c-1.2,0.2-2.4,0.4-3.6,0.7c1.1-1.6,2.3-3.2,3.5-4.6
		c2.9,0.3,5.8,0,8.6-0.6c1.5-0.4,3-0.8,4.4-1.4c1.5-0.6,3-1.3,4.5-2c0.1,0,0-0.2-0.1-0.1c-2.7,1.5-5.7,2.5-8.8,2.9
		c-2.7,0.4-5.4,0.7-8.2,0.7c1.1-1.2,2.2-2.4,3.4-3.6C436.6,251.8,441.3,248.3,446.5,246.4C446.7,246.5,446.6,246.3,446.5,246.4z"/>
	<path class="st4" d="M434.2,246.4c-0.7,0.9-1.3,1.8-1.9,2.7c-0.6,1-1,2.1-1.3,3.2c0,0,0,0.1,0.1,0c0.5-1,0.9-2,1.4-3
		c0.5-1,1.1-1.9,1.8-2.8C434.4,246.4,434.2,246.3,434.2,246.4z"/>
	<path class="st4" d="M448.3,253.2c-1,0.5-2,1-3.1,1.3c-1,0.3-2.1,0.6-3.2,0.9c0,0,0,0.1,0,0.1c1.1-0.1,2.2-0.4,3.3-0.7
		c1.1-0.4,2.1-0.9,3.1-1.4C448.5,253.3,448.4,253.2,448.3,253.2z"/>
	<path class="st7" d="M409.7,265.8c-0.1,0.9-2.3-7.4-15.1-14.8c-11.7-6.7-25.6-24.1-14.1-35.1C389.6,207,414,226.4,409.7,265.8z"/>
	<path class="st4" d="M418.5,313.3c-0.2-8.6-0.8-17.3-2-25.8c-1-7.9-2.8-15.6-5.4-23.1c-1-2.7-2-5.4-3.2-8c0.1-1,0.1-2,0-3
		c-0.1-1.3-0.2-2.6-0.3-3.9s-0.3-2.6-0.4-3.9s-0.4-2.6-0.5-3.9c0,0,0-0.1-0.1-0.1c0,0-0.1,0-0.1,0.1c0,0,0,0,0,0.1
		c0.3,1.4,0.4,2.7,0.5,4.1c0.1,1.3,0.2,2.5,0.2,3.8c0,1.3,0,2.5,0,3.8c0,0.5,0,0.9,0,1.4c-1.2-2.5-2.5-5.1-3.9-7.5
		c0.9-5.3-0.3-10.9-1.4-16.1c0-0.1-0.2-0.1-0.2,0c0.5,2.7,0.8,5.5,0.9,8.3c0,2.2,0,4.4-0.1,6.5l-0.9-1.6c-1.7-2.7-3.5-5.4-5.3-8
		c0.1-1.3,0.1-2.5-0.1-3.8c-0.2-1.4-0.5-2.8-0.9-4.1c-0.4-1.4-0.9-2.7-1.4-4s-1.3-2.6-1.8-4c0-0.1-0.2,0-0.2,0.1
		c0.7,1.3,1.2,2.6,1.6,4c0.4,1.3,0.7,2.6,1,4c0.3,1.4,0.5,2.7,0.7,4.1c0.1,0.9,0.2,1.8,0.4,2.8c-2.8-3.7-5.8-7.2-9-10.5
		c0,0-0.1,0-0.1,0c0,0,0,0.1,0,0.1c4.9,5.6,9.3,11.6,13.1,18c0.1,0.2,0.3,0.5,0.4,0.7c-0.7-0.4-1.5-0.8-2.2-1.2l-3.7-2.1
		c-1.2-0.6-2.4-1.3-3.6-2c-0.6-0.3-1.2-0.7-1.9-1c-0.8-0.3-1.5-0.7-2.2-1.2c-0.1-0.1-0.2,0.1-0.1,0.1c1.2,0.7,2.3,1.7,3.5,2.5
		s2.4,1.5,3.7,2.2c2.3,1.3,4.8,2.2,7,3.5c1.6,2.7,3,5.5,4.3,8.4c-1.3-0.9-2.7-1.7-4.2-2.5c-0.9-0.5-1.8-1-2.7-1.5
		c-0.9-0.4-1.8-0.9-2.6-1.6c0,0-0.1,0-0.1,0s0,0.1,0,0.1l0,0c1.5,1.3,3.2,2.5,4.9,3.4c1.6,1,3.3,1.9,5,2.7c1.4,3,2.6,6.1,3.7,9.2
		c5.4,15.3,7.4,31.5,8.3,47.7c0.3,4.8,0.4,9.6,0.5,14.4s-0.2,9.6-0.2,14.4c0,0.1,0.2,0.2,0.3,0c0.6-4.3,0.7-8.6,0.9-12.9
		S418.6,317.7,418.5,313.3z"/>
	<path class="st4" d="M395.2,244.1c-2.3-1-4.6-2.2-6.8-3.5c-2.2-1.3-4.4-2.6-6.5-4.1c0,0-0.1,0,0,0.1c2,1.6,4,3,6.2,4.4
		c2.3,1.3,4.6,2.4,7,3.4C395.2,244.3,395.3,244.1,395.2,244.1z"/>
	<path class="st4" d="M398.9,226.8c-0.2-0.7-0.4-1.5-0.7-2.2c0,0,0-0.1,0-0.1c-0.2-0.4-0.3-0.8-0.5-1.2l-0.1-0.1l-0.1-0.2
		c0,0-0.1,0,0,0s0.1,0.3,0.1,0.4c0,0.1,0,0.2,0.1,0.2c0.8,2.9,1.5,5.8,1.9,8.7c0,0.1,0.2,0.1,0.1,0
		C399.7,230.4,399.4,228.6,398.9,226.8z"/>
	<polygon class="st6" points="432.1,316.4 431.2,327.3 428.4,360.4 398.3,360.4 395.5,327.3 394.6,316.4 	"/>
	<polygon class="st4" points="432.1,316.4 431.2,327.3 395.5,327.3 394.6,316.4 	"/>
	<rect x="391.7" y="312.1" class="st6" width="43.4" height="10.4"/>
</g>
</svg>
