<?xml version="1.0" encoding="utf-8"?>
<!-- Generator: Adobe Illustrator 24.2.0, SVG Export Plug-In . SVG Version: 6.00 Build 0)  -->
<svg version="1.1" id="Layer_1" xmlns="http://www.w3.org/2000/svg" xmlns:xlink="http://www.w3.org/1999/xlink" x="0px" y="0px"
	 viewBox="0 0 127 126.9" style="enable-background:new 0 0 127 126.9;" xml:space="preserve">
<style type="text/css">
	.st0{fill:#FFFFFF;}
</style>
<g id="Layer_2_1_">
	<g id="Layer_1-2">
		<path class="st0" d="M0,90.3V36.5h11.4v53.8H0z"/>
		<path class="st0" d="M21.6,90.3l5.9-53.8H43l7.8,28.7l2.6,12.1l2.2-12.1l7.2-28.7h14.9l6.6,53.8h-11l-2.7-30.2L69.7,45l-3.5,15.5
			l-8.7,30.3h-9l-9.2-30.3L35.6,45l-1,15.2l-2.4,30.1H21.6z"/>
		<path class="st0" d="M108.1,91c-2.4,0-4.7-0.2-7.1-0.6c-1.9-0.3-3.9-0.7-5.8-1.3c-1.2-0.3-2.3-0.8-3.4-1.4l1.7-9
			c1.1,0.6,2.3,1.2,3.5,1.6c1.6,0.6,3.2,1,4.8,1.3c1.8,0.3,3.5,0.5,5.3,0.5c2.9,0,5-0.4,6.4-1.3c1.4-0.9,2.2-2.6,2.1-4.3
			c0-1.3-0.4-2.5-1.1-3.5c-1-1.2-2.3-2.1-3.6-2.8c-1.7-0.9-3.8-2-6.4-3.3c-2.2-1.1-4.4-2.4-6.3-3.9c-1.9-1.5-3.6-3.3-4.8-5.4
			c-1.3-2.2-1.9-4.7-1.8-7.3c0-2.2,0.5-4.5,1.5-6.5c0.9-1.8,2.3-3.3,4-4.5c1.8-1.2,3.9-2.1,6-2.6c2.4-0.6,4.8-0.8,7.2-0.8
			c3.1-0.1,6.2,0.3,9.2,1.1c1.7,0.5,3.4,1.1,5,2l-1.9,8.6c-1.5-1-3-1.7-4.7-2.2c-2.2-0.7-4.5-1-6.9-1c-1.5,0-3,0.1-4.5,0.6
			c-1.1,0.3-2.2,0.9-3,1.8c-0.7,0.8-1,1.8-1,2.9c0,1.2,0.3,2.4,1,3.5c0.9,1.1,1.9,2.1,3.2,2.8c1.5,0.9,3.3,1.9,5.7,3
			c2,0.9,3.9,2,5.8,3.1c1.7,1,3.3,2.2,4.7,3.5c1.3,1.2,2.4,2.7,3.2,4.4c0.8,1.8,1.2,3.7,1.1,5.7c0.1,2.9-0.7,5.8-2.3,8.3
			c-1.6,2.4-3.9,4.2-6.5,5.3C115,90.4,111.5,91,108.1,91z"/>
	</g>
</g>
<path class="st0" d="M63.5,11.6c16.8,0,31.8,8.1,41.3,20.6h7.3c-10.3-16-28.3-26.6-48.6-26.6c-20.4,0-38.3,10.6-48.6,26.6h7.3
	C31.7,19.7,46.7,11.6,63.5,11.6z M63.5,115.2c-16.6,0-31.4-7.8-40.9-20h-7.4c10.3,15.7,28.1,26,48.3,26s37.9-10.4,48.3-26h-7.4
	C94.9,107.4,80.1,115.2,63.5,115.2z"/>
</svg>
