<?xml version="1.0" encoding="utf-8"?>
<!-- Generator: Adobe Illustrator 24.2.0, SVG Export Plug-In . SVG Version: 6.00 Build 0)  -->
<svg version="1.1" id="Layer_1" xmlns="http://www.w3.org/2000/svg" xmlns:xlink="http://www.w3.org/1999/xlink" x="0px" y="0px"
	 viewBox="0 0 726 410" style="enable-background:new 0 0 726 410;" xml:space="preserve">
<style type="text/css">
	.st0{filter:url(#Inventory_Management_System);}
	.st1{enable-background:new    ;}
	.st2{fill:#FFFFFF;}
</style>
<filter  filterUnits="userSpaceOnUse" height="360" id="Inventory_Management_System" width="726" x="0" y="50">
	<feOffset  dy="3" input="SourceAlpha"></feOffset>
	<feGaussianBlur  result="blur" stdDeviation="3"></feGaussianBlur>
	<feFlood  flood-opacity="0"></feFlood>
	<feComposite  in2="blur" operator="in"></feComposite>
	<feComposite  in="SourceGraphic" operator="over"></feComposite>
</filter>
<g id="Component_1_1" transform="translate(9)">
	<g transform="matrix(1, 0, 0, 1, -9, 0)" class="st0">
		<g class="st1">
			<path class="st2" d="M19.8,161V81.5h12.6V161H19.8z"/>
			<path class="st2" d="M52.4,161v-59.5h11.1l0.1,6.3c1.5-1,3.3-2.1,5.5-3.2c2.2-1.1,4.6-2,7.2-2.8c2.6-0.8,5.2-1.2,7.7-1.3
				c6.4-0.2,11,1.5,13.7,4.9c2.8,3.5,4.2,9.6,4.2,18.3V161H89.6v-36.5c0-5-0.7-8.6-2-10.8c-1.3-2.2-4.2-3.1-8.7-2.9
				c-1.2,0-2.7,0.3-4.3,0.7c-1.6,0.4-3.3,1-5,1.8c-1.7,0.8-3.3,1.7-4.8,2.9V161H52.4z"/>
			<path class="st2" d="M135.2,161.9l-23.4-60.5H125l11.3,33.1l6,20h-3.2l5.5-20l10.9-33.1h13.1l-22.8,60.5H135.2z"/>
			<path class="st2" d="M200.5,161.9c-8.6,0-15.2-2.7-19.8-8.1c-4.6-5.4-7-12.9-7-22.6c0-5.8,1-10.9,3.1-15.5
				c2.1-4.6,5.1-8.2,9.1-10.9c4-2.7,8.9-4,14.8-4.1c3-0.1,5.8,0.4,8.5,1.3c2.6,0.9,5,2.3,7,4.2c2,1.9,3.6,4.2,4.8,7.1
				c1.2,2.9,1.8,6.2,2,10c0,2.2,0,4.3-0.1,6c0,1.8-0.2,3.3-0.5,4.7h-41.5l1.1-7.8h29.4c0.2-2.9,0-5.6-0.5-8.1
				c-0.5-2.5-1.6-4.6-3.3-6.2c-1.7-1.6-4.2-2.4-7.5-2.4c-2.8,0-5.3,0.8-7.5,2.3c-2.2,1.6-3.9,4.2-5.1,7.8c-1.2,3.7-1.7,8.7-1.5,15.1
				c0.2,4.5,1.1,8,2.7,10.6c1.6,2.6,3.7,4.5,6.3,5.6c2.6,1.1,5.5,1.7,8.7,1.7c1.4,0,3-0.2,5-0.5c2-0.3,3.9-0.7,5.7-1.2
				c1.8-0.5,3.2-1,4.2-1.6l2.4,7.1c-1.3,1.1-3.1,2-5.4,2.8c-2.3,0.8-4.7,1.5-7.4,1.9C205.6,161.6,203,161.9,200.5,161.9z"/>
			<path class="st2" d="M237.4,161v-59.5h11.1l0.1,6.3c1.5-1,3.3-2.1,5.5-3.2c2.2-1.1,4.6-2,7.2-2.8c2.6-0.8,5.2-1.2,7.7-1.3
				c6.4-0.2,11,1.5,13.7,4.9c2.8,3.5,4.2,9.6,4.2,18.3V161h-12.4v-36.5c0-5-0.7-8.6-2-10.8c-1.3-2.2-4.2-3.1-8.7-2.9
				c-1.2,0-2.7,0.3-4.3,0.7c-1.6,0.4-3.3,1-5,1.8c-1.7,0.8-3.3,1.7-4.8,2.9V161H237.4z"/>
			<path class="st2" d="M321.5,161.9c-2.8,0-5.3-0.4-7.4-1.3c-2.1-0.9-3.8-2.5-5-4.7c-1.2-2.3-1.8-5.5-1.8-9.7v-35.6h-7.7v-6.6
				c2.6-0.7,4.7-1.4,6-1.9c1.4-0.5,2.4-1.6,3-3.3c0.3-0.8,0.6-1.7,1-2.8c0.4-1.1,0.7-2.3,1.2-3.6c0.4-1.3,0.9-2.8,1.4-4.4h7.4v13.6
				h16.7v9.1h-16.7v29.1c0,3.9,0.2,6.7,0.5,8.4s1,2.9,1.9,3.4s2.3,0.7,4.2,0.7c1,0,2.1-0.1,3.5-0.3c1.3-0.2,2.5-0.5,3.7-0.9
				s2.1-0.7,2.8-1.1l2,7.1c-1.1,0.8-2.5,1.6-4.3,2.4c-1.8,0.8-3.8,1.4-5.9,1.9S323.7,161.9,321.5,161.9z"/>
			<path class="st2" d="M372.5,161.9c-4.9,0-9-0.9-12.4-2.6c-3.4-1.7-6.1-4-8.2-7c-2.1-3-3.6-6.4-4.6-10.2
				c-0.9-3.8-1.4-7.9-1.4-12.1c0.1-6.4,1.4-11.8,3.8-16.1c2.4-4.4,5.7-7.6,9.8-9.9c4.1-2.2,8.8-3.3,14-3.3c6.5,0,11.7,1.5,15.6,4.4
				s6.7,6.8,8.5,11.7c1.7,4.8,2.6,10.1,2.5,15.7c-0.1,6.4-1.4,11.8-3.8,16.1s-5.7,7.7-9.8,9.9C382.5,160.7,377.8,161.9,372.5,161.9z
				 M372.8,153.1c4.9,0.1,8.6-1.8,11-5.5c2.5-3.8,3.7-9,3.7-15.6c0-4.1-0.5-7.9-1.5-11.3c-1-3.4-2.6-6.1-4.7-8.1
				c-2.1-2-4.8-3.1-8.2-3.1c-4.9-0.1-8.5,1.6-11,5.2s-3.7,8.7-3.7,15.4c0,4.1,0.5,7.9,1.5,11.4c1,3.5,2.5,6.2,4.7,8.3
				S369.6,153.1,372.8,153.1z"/>
			<path class="st2" d="M413.2,161v-59.5h10.5l0.9,7.6l1,4.5V161H413.2z M424.9,117.2l-0.7-8.1c0.5-1.1,1.7-2.3,3.4-3.7
				c1.7-1.3,3.7-2.5,6.1-3.5s4.7-1.4,7.1-1.4c1.4,0,2.5,0.1,3.5,0.2c1,0.1,1.7,0.3,2.2,0.6v11.6c-0.5-0.3-1.3-0.6-2.4-0.9
				c-1.1-0.3-2.8-0.5-5.3-0.5c-2.2,0-4.2,0.3-6,0.9s-3.3,1.4-4.6,2.3C426.8,115.6,425.7,116.4,424.9,117.2z"/>
			<path class="st2" d="M455.6,186.7v-10.1c0.6,0.2,1.5,0.4,2.6,0.5c1.2,0.1,2,0.2,2.6,0.2c1.5,0,3.3-0.4,5.3-1.3s4.1-2.5,6-5.1
				c1.9-2.6,3.4-6.4,4.4-11.5l0.7,1.5h-5.1l-21.3-59.6h13.3l12.4,38.6l5,16.7h-3.2l4.4-16.7l10.6-38.6h13.3l-19.8,61.4
				c-2.4,7.2-5.2,12.7-8.4,16.5c-3.2,3.8-6.8,6.2-10.6,7.3c-0.7,0.2-1.7,0.5-2.9,0.7c-1.2,0.2-2.2,0.3-3,0.3c-0.5,0-1.2,0-2.1-0.1
				c-0.9-0.1-1.7-0.2-2.5-0.3C456.3,187,455.8,186.8,455.6,186.7z"/>
		</g>
		<g class="st1">
			<path class="st2" d="M15.4,265l8.2-79.5h17.7l14,44.7l4.1,17l3.7-17l13.3-44.7h16.9l9.5,79.5H90.3l-4.7-48.2l-1.5-21.9l-5.5,21.9
				l-15.7,49h-7.5l-16.5-49l-5.8-21.9l-1.6,21.9L27.4,265H15.4z"/>
			<path class="st2" d="M132.5,265.9c-3.6,0-6.7-0.7-9.5-2.1c-2.8-1.4-4.9-3.4-6.5-6c-1.6-2.6-2.4-5.6-2.4-9.2c0-3.8,1-7.1,3.1-9.7
				c2.1-2.7,4.8-4.7,8.3-6.2c2.3-0.9,4.8-1.7,7.4-2.2c2.7-0.6,5.3-0.9,8-1.2c2.7-0.2,5.2-0.3,7.4-0.3l2.6,3.3l-2.6,4.3
				c-1.4,0-3.1,0.1-5,0.3c-1.9,0.2-3.9,0.5-5.8,0.9c-1.9,0.4-3.5,0.9-4.8,1.6c-1.8,0.8-3.3,1.9-4.5,3.2c-1.2,1.3-1.8,3.1-1.8,5.4
				c0,3,0.8,5.3,2.5,6.8c1.7,1.5,4.1,2.3,7.4,2.3c1.7,0,3.4-0.2,5.1-0.7c1.7-0.5,3.2-1.1,4.5-1.7c1.3-0.6,2.1-1.2,2.5-1.7l2.5,2.6
				L149,260c-1.6,1.4-3.8,2.8-6.8,4C139.3,265.2,136,265.9,132.5,265.9z M160.7,265H149v-8.9h-0.7v-32.8c0-3.5-0.9-5.8-2.8-6.9
				c-1.8-1.1-4.4-1.7-7.8-1.7c-2.2,0-4.6,0.2-7,0.7c-2.4,0.4-4.6,1-6.6,1.7c-2,0.7-3.5,1.3-4.6,2l-2.9-8.9c0.8-0.5,2.4-1.2,4.7-2.1
				c2.3-0.9,5.1-1.7,8.2-2.4c3.1-0.7,6.2-1.1,9.3-1.1c4.5,0,8.3,0.5,11.6,1.6c3.3,1,5.8,3,7.5,5.8c1.8,2.8,2.6,6.9,2.6,12.2V265z"/>
			<path class="st2" d="M178.2,265v-59.5h11.1l0.1,6.3c1.5-1,3.3-2.1,5.5-3.2c2.2-1.1,4.6-2,7.2-2.8c2.6-0.8,5.2-1.2,7.7-1.3
				c6.4-0.2,11,1.5,13.7,4.9c2.8,3.5,4.2,9.6,4.2,18.3V265h-12.4v-36.5c0-5-0.7-8.6-2-10.8c-1.3-2.2-4.2-3.1-8.7-2.9
				c-1.2,0-2.7,0.3-4.3,0.7c-1.6,0.4-3.3,1-5,1.8c-1.7,0.8-3.3,1.7-4.8,2.9V265H178.2z"/>
			<path class="st2" d="M258.7,265.9c-3.6,0-6.7-0.7-9.5-2.1c-2.8-1.4-4.9-3.4-6.5-6c-1.6-2.6-2.4-5.6-2.4-9.2c0-3.8,1-7.1,3.1-9.7
				c2.1-2.7,4.8-4.7,8.3-6.2c2.3-0.9,4.8-1.7,7.4-2.2c2.7-0.6,5.3-0.9,8-1.2c2.7-0.2,5.2-0.3,7.4-0.3l2.6,3.3l-2.6,4.3
				c-1.4,0-3.1,0.1-5,0.3c-1.9,0.2-3.9,0.5-5.8,0.9c-1.9,0.4-3.5,0.9-4.8,1.6c-1.8,0.8-3.3,1.9-4.5,3.2c-1.2,1.3-1.8,3.1-1.8,5.4
				c0,3,0.8,5.3,2.5,6.8c1.7,1.5,4.1,2.3,7.4,2.3c1.7,0,3.4-0.2,5.1-0.7c1.7-0.5,3.2-1.1,4.5-1.7c1.3-0.6,2.1-1.2,2.5-1.7l2.5,2.6
				l-1.8,4.6c-1.6,1.4-3.8,2.8-6.8,4C265.5,265.2,262.3,265.9,258.7,265.9z M286.9,265h-11.7v-8.9h-0.7v-32.8c0-3.5-0.9-5.8-2.8-6.9
				c-1.8-1.1-4.4-1.7-7.8-1.7c-2.2,0-4.6,0.2-7,0.7c-2.4,0.4-4.6,1-6.6,1.7c-2,0.7-3.5,1.3-4.6,2l-2.9-8.9c0.8-0.5,2.4-1.2,4.7-2.1
				c2.3-0.9,5.1-1.7,8.2-2.4c3.1-0.7,6.2-1.1,9.3-1.1c4.5,0,8.3,0.5,11.6,1.6c3.3,1,5.8,3,7.5,5.8c1.8,2.8,2.6,6.9,2.6,12.2V265z"/>
			<path class="st2" d="M324.6,292c-7.8,0-14.1-1.4-18.6-4.3c-4.6-2.9-6.8-7.3-6.8-13.2c0-2.2,0.5-4.2,1.6-5.9
				c1.1-1.7,2.4-3.2,4-4.4c1.6-1.2,3.1-2.1,4.6-2.7l7.9,1.2c-0.8,0.7-1.6,1.4-2.5,2.1c-0.9,0.7-1.7,1.7-2.4,3c-0.7,1.2-1,2.9-1,4.9
				c0,2.4,0.5,4.4,1.4,6c0.9,1.7,2.4,2.9,4.4,3.8c2,0.9,4.7,1.3,8,1.3c3.1,0,5.9-0.3,8.5-1s4.7-1.7,6.3-3c1.6-1.3,2.4-3,2.4-5
				c0-2.1-0.4-3.9-1.2-5.3c-0.8-1.5-2.2-2.6-4.3-3.3c-2.1-0.8-5.1-1.2-9.1-1.2h-5.9c-2,0-3.8,0-5.4-0.1c-1.6-0.1-3-0.3-4.2-0.6
				c-0.4-0.1-0.8-0.3-1.2-0.6c-0.4-0.3-0.8-0.5-1.2-0.6c-2.7-1-4.5-2.5-5.4-4.3s-1.4-3.6-1.4-5.5c0-1.4,0.4-2.8,1.1-4.3
				c0.7-1.4,1.8-2.8,3.1-4.2c1.3-1.3,2.9-2.5,4.7-3.6l7.7,1.9c-1.3,0.5-2.5,1.4-3.5,2.6c-1.1,1.2-1.6,2.5-1.6,3.9
				c0,2.2,0.5,3.6,1.6,4.4c1.1,0.8,2.8,1.2,5.3,1.2h10.7c4.6,0,8.3,0.5,11.2,1.4s5.1,2.3,6.7,3.9c1.6,1.6,2.6,3.4,3.2,5.4
				c0.6,2,0.9,4,0.9,6.1c0,3.1-0.8,5.9-2.3,8.3c-1.5,2.4-3.7,4.5-6.4,6.2s-5.8,3-9.4,3.9C332.4,291.5,328.6,292,324.6,292z
				 M324.3,244.7c-4.5,0-8.5-0.8-12-2.5c-3.6-1.7-6.4-4-8.5-6.9c-2.1-2.9-3.1-6.3-3.1-10.2c0-4.6,1-8.5,3.1-11.4
				c2.1-3,4.9-5.2,8.5-6.7c3.6-1.5,7.7-2.2,12.2-2.3c4.4-0.1,8.5,0.5,12.1,1.9c3.7,1.4,6.6,3.6,8.8,6.5c2.2,2.9,3.3,6.7,3.3,11.4
				c0,4.4-1.1,8-3.2,11c-2.1,3-5,5.3-8.7,6.8S329,244.7,324.3,244.7z M324.6,236.6c3.7,0,6.6-0.8,8.8-2.5c2.2-1.7,3.3-4.8,3.3-9.3
				c0-3.9-0.9-6.9-2.8-9c-1.9-2.1-4.8-3.1-8.6-3.1c-2.2,0-4.3,0.3-6.2,1c-1.9,0.6-3.4,1.8-4.5,3.5c-1.1,1.7-1.7,4.2-1.7,7.3
				c0,3.2,0.9,6.1,2.8,8.5C317.5,235.5,320.5,236.6,324.6,236.6z M342.1,214.7l-3.4-5c0.8-1,2.3-2,4.7-3.1c2.3-1.1,4.9-1.6,7.7-1.6
				h6v9.7H342.1z"/>
			<path class="st2" d="M389.4,265.9c-8.6,0-15.2-2.7-19.8-8.1c-4.6-5.4-7-12.9-7-22.6c0-5.8,1-10.9,3.1-15.5
				c2.1-4.6,5.1-8.2,9.1-10.9s8.9-4,14.8-4.1c3-0.1,5.8,0.4,8.5,1.3c2.6,0.9,5,2.3,7,4.2c2,1.9,3.6,4.2,4.8,7.1s1.8,6.2,2,10
				c0,2.2,0,4.3-0.1,6s-0.2,3.3-0.5,4.7h-41.5l1.1-7.8h29.4c0.2-2.9,0-5.6-0.5-8.1c-0.5-2.5-1.6-4.6-3.3-6.2
				c-1.7-1.6-4.2-2.4-7.5-2.4c-2.8,0-5.3,0.8-7.5,2.3c-2.2,1.6-3.9,4.2-5.1,7.8c-1.2,3.7-1.7,8.7-1.5,15.1c0.2,4.5,1.1,8,2.7,10.6
				c1.6,2.6,3.7,4.5,6.3,5.6s5.5,1.7,8.7,1.7c1.4,0,3-0.2,5-0.5c2-0.3,3.9-0.7,5.7-1.2s3.2-1,4.2-1.6l2.4,7.1
				c-1.3,1.1-3.1,2-5.4,2.8c-2.3,0.8-4.7,1.5-7.4,1.9C394.5,265.6,391.9,265.9,389.4,265.9z"/>
			<path class="st2" d="M426.4,265v-59.5h11.1l0.1,6.3c1.5-1,3.3-2.1,5.5-3.2c2.2-1.1,4.6-2,7.1-2.8c2.6-0.8,5.1-1.2,7.7-1.3
				c4.3-0.1,7.7,0.5,10.3,2c2.6,1.5,4.5,3.9,5.7,7.3c1.2,3.4,1.8,8,1.8,13.9V265h-12.3v-36.5c0-3.2-0.3-5.9-0.8-7.9
				c-0.6-2.1-1.6-3.5-3.1-4.5s-3.7-1.3-6.6-1.2c-1.9,0-4.1,0.5-6.7,1.4c-2.6,0.9-5.1,2.2-7.4,3.9V265H426.4z M475,220.2l-2.6-7.8
				c1.4-1.2,3.2-2.4,5.5-3.5c2.3-1.2,4.8-2.2,7.6-3c2.8-0.8,5.6-1.3,8.4-1.3c4.2-0.1,7.7,0.6,10.4,2c2.7,1.4,4.6,3.8,5.9,7.2
				c1.3,3.4,1.9,8,1.9,13.8V265h-12.4v-36.5c0-3.2-0.3-5.9-0.8-7.9c-0.5-2.1-1.5-3.5-3-4.5s-3.7-1.3-6.7-1.2c-2.1,0-4.4,0.5-7.1,1.5
				C479.6,217.4,477.2,218.7,475,220.2z"/>
			<path class="st2" d="M552.8,265.9c-8.6,0-15.2-2.7-19.8-8.1c-4.6-5.4-7-12.9-7-22.6c0-5.8,1-10.9,3.1-15.5
				c2.1-4.6,5.1-8.2,9.1-10.9s8.9-4,14.8-4.1c3-0.1,5.8,0.4,8.5,1.3c2.6,0.9,5,2.3,7,4.2c2,1.9,3.6,4.2,4.8,7.1s1.8,6.2,2,10
				c0,2.2,0,4.3-0.1,6s-0.2,3.3-0.5,4.7h-41.5l1.1-7.8h29.4c0.2-2.9,0-5.6-0.5-8.1c-0.5-2.5-1.6-4.6-3.3-6.2
				c-1.7-1.6-4.2-2.4-7.5-2.4c-2.8,0-5.3,0.8-7.5,2.3c-2.2,1.6-3.9,4.2-5.1,7.8c-1.2,3.7-1.7,8.7-1.5,15.1c0.2,4.5,1.1,8,2.7,10.6
				c1.6,2.6,3.7,4.5,6.3,5.6s5.5,1.7,8.7,1.7c1.4,0,3-0.2,5-0.5c2-0.3,3.9-0.7,5.7-1.2s3.2-1,4.2-1.6l2.4,7.1
				c-1.3,1.1-3.1,2-5.4,2.8c-2.3,0.8-4.7,1.5-7.4,1.9C557.9,265.6,555.3,265.9,552.8,265.9z"/>
			<path class="st2" d="M589.7,265v-59.5h11.1l0.1,6.3c1.5-1,3.3-2.1,5.5-3.2c2.2-1.1,4.6-2,7.2-2.8c2.6-0.8,5.2-1.2,7.7-1.3
				c6.4-0.2,11,1.5,13.8,4.9c2.8,3.5,4.2,9.6,4.2,18.3V265h-12.4v-36.5c0-5-0.7-8.6-2-10.8c-1.3-2.2-4.2-3.1-8.7-2.9
				c-1.2,0-2.7,0.3-4.3,0.7c-1.6,0.4-3.3,1-5,1.8c-1.7,0.8-3.3,1.7-4.8,2.9V265H589.7z"/>
			<path class="st2" d="M673.8,265.9c-2.8,0-5.3-0.4-7.4-1.3c-2.1-0.9-3.8-2.5-5-4.7c-1.2-2.3-1.8-5.5-1.8-9.7v-35.6h-7.7v-6.6
				c2.6-0.7,4.7-1.4,6-1.9c1.4-0.5,2.4-1.6,3-3.3c0.3-0.8,0.6-1.7,1-2.8c0.4-1.1,0.7-2.3,1.2-3.6c0.4-1.3,0.9-2.8,1.4-4.4h7.4v13.6
				h16.7v9.1h-16.7v29.1c0,3.9,0.2,6.7,0.5,8.4s1,2.9,1.9,3.4s2.3,0.7,4.2,0.7c1,0,2.1-0.1,3.5-0.3c1.3-0.2,2.5-0.5,3.7-0.9
				s2.1-0.7,2.8-1.1l2,7.1c-1.1,0.8-2.5,1.6-4.3,2.4c-1.8,0.8-3.8,1.4-5.9,1.9S676,265.9,673.8,265.9z"/>
		</g>
		<g class="st1">
			<path class="st2" d="M38.5,369.9c-3.5,0-6.7-0.3-9.8-0.8c-3.1-0.5-5.7-1.1-7.9-1.8c-2.2-0.7-3.8-1.4-4.8-2l2.6-10.2
				c1.4,0.8,3,1.6,5.1,2.3c2,0.7,4.3,1.4,6.7,1.8c2.4,0.5,4.9,0.7,7.4,0.7c4.9,0,8.6-0.8,11.2-2.5c2.6-1.6,3.9-4.3,3.9-8
				c0-2.5-0.6-4.6-1.9-6.3c-1.3-1.7-3.2-3.3-5.8-4.8c-2.6-1.5-5.7-3.2-9.5-5c-3.2-1.6-6.4-3.5-9.4-5.8s-5.6-4.9-7.5-7.9
				c-2-3-2.9-6.5-2.9-10.4c0-3.9,0.8-7.1,2.3-9.7c1.5-2.6,3.6-4.7,6.1-6.3c2.6-1.6,5.4-2.8,8.6-3.5c3.2-0.7,6.4-1.1,9.7-1.1
				c4.9,0,8.9,0.5,12,1.4c3.2,0.9,5.5,1.9,6.8,2.8l-2.5,9.9c-1.8-1.1-4-2.2-6.4-3.1c-2.4-0.9-5.8-1.4-10-1.4c-2.6,0-5,0.3-7.2,1
				c-2.2,0.7-4,1.7-5.4,3.1c-1.4,1.4-2,3.2-2,5.3c0,2.5,0.5,4.5,1.5,6.2c1,1.7,2.7,3.2,4.9,4.7c2.3,1.4,5.3,3.1,9,5.1
				c2.7,1.4,5.3,2.9,7.9,4.4c2.6,1.6,5,3.3,7.1,5.2c2.1,1.9,3.8,4.1,5.1,6.5c1.3,2.4,1.9,5.2,1.9,8.4c0,4.9-1.1,8.9-3.4,12.1
				c-2.3,3.2-5.4,5.6-9.4,7.2C48.3,369.1,43.7,369.9,38.5,369.9z"/>
			<path class="st2" d="M76.8,394.7v-10.1c0.6,0.2,1.5,0.4,2.6,0.5c1.2,0.1,2,0.2,2.6,0.2c1.5,0,3.3-0.4,5.4-1.3
				c2.1-0.8,4.1-2.5,6-5.1c1.9-2.6,3.4-6.4,4.4-11.5l0.7,1.5h-5.1l-21.3-59.6h13.3L97.8,348l5,16.7h-3.2L104,348l10.6-38.6h13.3
				l-19.8,61.4c-2.4,7.2-5.2,12.7-8.4,16.5c-3.2,3.8-6.8,6.2-10.6,7.3c-0.7,0.2-1.7,0.5-2.9,0.7c-1.2,0.2-2.2,0.3-3,0.3
				c-0.5,0-1.2,0-2.1-0.1c-0.9-0.1-1.7-0.2-2.5-0.3C77.6,395,77.1,394.8,76.8,394.7z"/>
			<path class="st2" d="M134,365.5l1.7-9.1c0.5,0.4,1.6,0.9,3.3,1.6c1.7,0.7,3.7,1.3,6.1,1.8c2.4,0.6,4.8,0.8,7.4,0.9
				c3.4,0,6-0.6,7.8-1.8c1.8-1.2,2.7-2.9,2.7-5.1c0-1.5-0.5-2.9-1.6-4s-2.5-2.2-4.4-3.2c-1.9-1-4-2-6.4-3.1c-3.2-1.5-6-3-8.5-4.8
				s-4.4-3.7-5.8-6c-1.4-2.3-2-5.1-2-8.3c0.1-3.5,1.1-6.5,3.1-8.8c2-2.3,4.6-4.1,7.9-5.2c3.3-1.1,6.9-1.7,11-1.7
				c3.7,0,7,0.4,9.8,1.2c2.8,0.8,4.7,1.4,5.6,2l-1.8,9.3c-0.6-0.5-1.6-1.1-3-1.6c-1.3-0.5-2.9-0.9-4.6-1.3c-1.7-0.3-3.5-0.5-5.4-0.5
				c-3.6,0-6.4,0.5-8.2,1.6c-1.9,1.1-2.8,2.5-2.9,4.4c0,2.6,0.9,4.5,2.7,5.8c1.8,1.3,4,2.6,6.6,3.8c3.7,1.8,7,3.5,10,5.3
				c3,1.7,5.3,3.7,7,5.9c1.7,2.2,2.6,5,2.6,8.3c0,5.6-1.9,9.8-5.7,12.7c-3.8,2.9-9,4.3-15.7,4.3c-2.7,0-5.4-0.2-8-0.6
				c-2.6-0.4-4.9-1-6.8-1.7S134.9,366.2,134,365.5z"/>
			<path class="st2" d="M205.6,369.9c-2.8,0-5.3-0.4-7.4-1.3c-2.1-0.9-3.8-2.5-5-4.7c-1.2-2.3-1.8-5.5-1.8-9.7v-35.6h-7.7v-6.6
				c2.6-0.7,4.7-1.4,6-1.9c1.4-0.5,2.4-1.6,3-3.3c0.3-0.8,0.6-1.7,1-2.8c0.4-1.1,0.7-2.3,1.2-3.6c0.4-1.3,0.9-2.8,1.4-4.4h7.4v13.6
				h16.7v9.1h-16.7v29.1c0,3.9,0.2,6.7,0.5,8.4c0.3,1.8,1,2.9,1.9,3.4c0.9,0.5,2.3,0.7,4.2,0.7c1,0,2.1-0.1,3.5-0.3
				c1.3-0.2,2.5-0.5,3.7-0.9c1.2-0.4,2.1-0.7,2.8-1.1l2,7.1c-1.1,0.8-2.5,1.6-4.3,2.4c-1.8,0.8-3.8,1.4-5.9,1.9
				C209.8,369.6,207.7,369.9,205.6,369.9z"/>
			<path class="st2" d="M257,369.9c-8.6,0-15.2-2.7-19.8-8.1c-4.6-5.4-7-12.9-7-22.6c0-5.8,1-10.9,3.1-15.5
				c2.1-4.6,5.1-8.2,9.1-10.9c4-2.7,8.9-4,14.8-4.1c3-0.1,5.8,0.4,8.5,1.3c2.6,0.9,5,2.3,7,4.2c2,1.9,3.6,4.2,4.8,7.1
				c1.2,2.9,1.8,6.2,2,10c0,2.2,0,4.3-0.1,6c0,1.8-0.2,3.3-0.5,4.7h-41.5l1.1-7.8h29.4c0.2-2.9,0-5.6-0.5-8.1
				c-0.5-2.5-1.6-4.6-3.3-6.2c-1.7-1.6-4.2-2.4-7.5-2.4c-2.8,0-5.3,0.8-7.5,2.3c-2.2,1.6-3.9,4.2-5.1,7.8c-1.2,3.7-1.7,8.7-1.5,15.1
				c0.2,4.5,1.1,8,2.7,10.6c1.6,2.6,3.7,4.5,6.3,5.6c2.6,1.1,5.5,1.7,8.7,1.7c1.4,0,3-0.2,5-0.5c2-0.3,3.9-0.7,5.7-1.2
				c1.8-0.5,3.2-1,4.2-1.6l2.4,7.1c-1.3,1.1-3.1,2-5.4,2.8c-2.3,0.8-4.7,1.5-7.4,1.9C262.1,369.6,259.5,369.9,257,369.9z"/>
			<path class="st2" d="M293.9,369v-59.5H305l0.1,6.3c1.5-1,3.3-2.1,5.5-3.2c2.2-1.1,4.6-2,7.1-2.8c2.6-0.8,5.1-1.2,7.7-1.3
				c4.3-0.1,7.7,0.5,10.3,2c2.6,1.5,4.5,3.9,5.7,7.3c1.2,3.4,1.8,8,1.8,13.9V369h-12.3v-36.5c0-3.2-0.3-5.9-0.8-7.9
				c-0.6-2.1-1.6-3.5-3.1-4.5s-3.7-1.3-6.6-1.2c-1.9,0-4.1,0.5-6.7,1.4c-2.6,0.9-5.1,2.2-7.4,3.9V369H293.9z M342.6,324.2l-2.6-7.8
				c1.4-1.2,3.2-2.4,5.5-3.5c2.3-1.2,4.8-2.2,7.6-3c2.8-0.8,5.6-1.3,8.4-1.3c4.2-0.1,7.7,0.6,10.4,2c2.7,1.4,4.6,3.8,5.9,7.2
				c1.3,3.4,1.9,8,1.9,13.8V369h-12.4v-36.5c0-3.2-0.3-5.9-0.8-7.9c-0.5-2.1-1.5-3.5-3-4.5s-3.7-1.3-6.7-1.2c-2.1,0-4.4,0.5-7.1,1.5
				C347.2,321.4,344.7,322.7,342.6,324.2z"/>
		</g>
	</g>
	<g class="st1">
		<path class="st2" d="M23.3,56.7c-1.5,0-2.9-0.2-4.3-0.7c-1.4-0.4-2.7-1.2-3.8-2.2c-1.1-1-2-2.5-2.7-4.3c-0.7-1.9-1-4.2-1-7V19.7
			h1.8V42c0,3.3,0.5,5.9,1.4,7.8c1,1.9,2.2,3.2,3.7,4c1.5,0.8,3.2,1.2,5,1.2c1.8,0,3.5-0.4,5.1-1.2c1.6-0.8,2.9-2.1,3.8-4
			c1-1.9,1.5-4.5,1.5-7.8V19.7h1.6v22.8c0,2.8-0.3,5.1-1,7c-0.7,1.9-1.6,3.3-2.8,4.3S29,55.6,27.6,56C26.2,56.4,24.7,56.7,23.3,56.7
			z"/>
		<path class="st2" d="M45.9,56V29.7h1.4l0.2,4.2h0.1c1.4-1.4,2.8-2.5,4.3-3.5c1.4-0.9,3.1-1.4,4.9-1.4c2.7,0,4.7,0.8,6,2.4
			c1.3,1.6,1.9,4.2,1.9,7.6V56h-1.6V39.3c0-2.9-0.5-5.1-1.5-6.5c-1-1.4-2.6-2.1-4.9-2.1c-1.6,0-3.2,0.4-4.5,1.3
			c-1.4,0.9-2.9,2.2-4.6,4V56H45.9z"/>
		<path class="st2" d="M75.7,23c-0.5,0-0.9-0.2-1.2-0.5C74.2,22.1,74,21.6,74,21c0-0.5,0.2-1,0.5-1.3c0.3-0.3,0.8-0.5,1.2-0.5
			c0.5,0,0.9,0.2,1.3,0.5c0.3,0.3,0.5,0.8,0.5,1.3c0,0.6-0.2,1.1-0.5,1.4C76.7,22.8,76.3,23,75.7,23z M74.9,56V29.7h1.7V56H74.9z"/>
		<path class="st2" d="M92.5,56l-10-26.3h1.9l6.3,17c0.4,1.2,0.9,2.5,1.4,3.8c0.5,1.3,0.9,2.5,1.4,3.7h0.2c0.4-1.2,0.9-2.4,1.4-3.7
			c0.5-1.3,0.9-2.5,1.4-3.8l6.3-17h1.8L94.4,56H92.5z"/>
		<path class="st2" d="M120,56.7c-2.2,0-4.2-0.5-6-1.7c-1.8-1.1-3.3-2.7-4.3-4.7s-1.6-4.5-1.6-7.4c0-2.9,0.5-5.3,1.6-7.4
			s2.5-3.7,4.2-4.8c1.7-1.1,3.6-1.7,5.5-1.7c2,0,3.8,0.5,5.3,1.4c1.5,0.9,2.6,2.3,3.4,4.1c0.8,1.8,1.2,4,1.2,6.6c0,0.3,0,0.5,0,0.8
			c0,0.3,0,0.6-0.1,0.9h-19.9v-1.5h18.4c0-3.6-0.8-6.3-2.3-8.1c-1.5-1.8-3.5-2.7-6-2.7c-1.5,0-3,0.4-4.5,1.3
			c-1.5,0.9-2.7,2.3-3.6,4.1c-1,1.8-1.4,4.1-1.4,6.9c0,2.5,0.5,4.7,1.4,6.5c0.9,1.8,2.2,3.2,3.7,4.2c1.6,1,3.3,1.5,5.3,1.5
			c1.5,0,2.8-0.2,4-0.7c1.2-0.5,2.3-1,3.2-1.7l0.8,1.4c-1,0.6-2.1,1.2-3.3,1.7C123.5,56.4,121.9,56.7,120,56.7z"/>
		<path class="st2" d="M136.6,56V29.7h1.4l0.2,5h0.1c0.9-1.6,2-3,3.2-4c1.3-1.1,2.7-1.6,4.3-1.6c0.4,0,0.9,0,1.3,0.1
			c0.4,0.1,0.8,0.2,1.3,0.4l-0.4,1.5c-0.4-0.2-0.8-0.3-1.1-0.4c-0.3-0.1-0.7-0.1-1.2-0.1c-1.2,0-2.5,0.5-3.8,1.6
			c-1.3,1-2.5,2.9-3.6,5.5V56H136.6z"/>
		<path class="st2" d="M159.6,56.7c-2,0-3.8-0.4-5.4-1.1c-1.6-0.7-3-1.6-4.2-2.6l1.1-1.3c1.1,0.9,2.3,1.7,3.6,2.4c1.3,0.7,3,1,4.9,1
			c2.2,0,3.9-0.6,5-1.7c1.1-1.1,1.7-2.4,1.7-3.9c0-1.2-0.3-2.1-1-2.9c-0.7-0.8-1.5-1.4-2.5-1.9c-1-0.5-2-1-3.1-1.3
			c-1.4-0.5-2.7-1-4-1.6c-1.3-0.6-2.4-1.3-3.3-2.3c-0.9-0.9-1.3-2.1-1.3-3.6c0-1.8,0.7-3.4,2.1-4.8c1.4-1.4,3.5-2,6.1-2
			c1.3,0,2.6,0.2,3.9,0.7c1.3,0.5,2.4,1.1,3.3,1.9l-1,1.3c-0.9-0.7-1.8-1.2-2.8-1.7c-1-0.5-2.2-0.7-3.6-0.7c-2.2,0-3.8,0.5-4.8,1.6
			c-1,1.1-1.5,2.3-1.5,3.5c0,1.1,0.3,1.9,0.9,2.6c0.6,0.7,1.4,1.2,2.4,1.7c1,0.5,2,0.9,3.1,1.3c1.4,0.5,2.8,1.1,4.1,1.7
			c1.4,0.6,2.5,1.3,3.4,2.3c0.9,1,1.3,2.3,1.3,4c0,1.3-0.3,2.5-1,3.6c-0.7,1.1-1.6,2-2.9,2.7C162.9,56.3,161.4,56.7,159.6,56.7z"/>
		<path class="st2" d="M176.3,23c-0.5,0-0.9-0.2-1.2-0.5c-0.3-0.4-0.5-0.8-0.5-1.4c0-0.5,0.2-1,0.5-1.3c0.3-0.3,0.8-0.5,1.2-0.5
			c0.5,0,0.9,0.2,1.3,0.5c0.3,0.3,0.5,0.8,0.5,1.3c0,0.6-0.2,1.1-0.5,1.4C177.2,22.8,176.8,23,176.3,23z M175.4,56V29.7h1.7V56
			H175.4z"/>
		<path class="st2" d="M194.3,56.7c-2.4,0-4.1-0.7-4.9-2.1c-0.8-1.4-1.3-3.2-1.3-5.5V31.3H184v-1.3l4.2-0.2l0.2-7.7h1.4v7.7h7.8v1.5
			h-7.8v18c0,1.7,0.3,3.1,0.9,4.2c0.6,1.1,1.8,1.7,3.7,1.7c0.5,0,1.1-0.1,1.7-0.3c0.6-0.2,1.2-0.4,1.7-0.6l0.6,1.4
			c-0.8,0.3-1.5,0.5-2.3,0.7C195.4,56.6,194.8,56.7,194.3,56.7z"/>
		<path class="st2" d="M202.6,68.2c-0.4,0-0.9-0.1-1.3-0.2c-0.5-0.1-0.9-0.2-1.2-0.4l0.4-1.5c0.3,0.1,0.6,0.2,1,0.3
			c0.4,0.1,0.8,0.1,1.2,0.1c1.6,0,3.1-0.7,4.2-2.1c1.2-1.4,2.1-3.2,2.8-5.3l0.8-2.4l-10.9-27h1.9l6.7,17.3c0.4,1.1,0.9,2.3,1.5,3.6
			c0.5,1.3,1,2.6,1.5,3.7h0.2c0.4-1.2,0.9-2.4,1.3-3.7c0.4-1.3,0.8-2.5,1.2-3.6l5.9-17.3h1.8l-10.6,30c-0.4,1.4-1,2.7-1.8,4
			c-0.8,1.3-1.7,2.4-2.8,3.2C205.4,67.8,204.1,68.2,202.6,68.2z"/>
		<path class="st2" d="M247.9,56.7c-2.1,0-4-0.5-5.8-1.6c-1.8-1.1-3.2-2.6-4.3-4.7c-1.1-2.1-1.6-4.5-1.6-7.4c0-2.9,0.5-5.4,1.6-7.5
			c1.1-2.1,2.5-3.6,4.3-4.7c1.8-1.1,3.7-1.6,5.8-1.6c2.1,0,4,0.5,5.8,1.6c1.8,1.1,3.2,2.7,4.3,4.7c1.1,2.1,1.6,4.6,1.6,7.5
			c0,2.9-0.5,5.4-1.6,7.4c-1.1,2.1-2.5,3.6-4.3,4.7C251.9,56.1,250,56.7,247.9,56.7z M247.9,55.1c1.9,0,3.6-0.5,5.1-1.5
			c1.5-1,2.7-2.5,3.5-4.3c0.9-1.8,1.3-4,1.3-6.4s-0.4-4.6-1.3-6.4c-0.9-1.9-2-3.3-3.5-4.3c-1.5-1-3.2-1.6-5.1-1.6s-3.5,0.5-5,1.6
			c-1.5,1-2.7,2.5-3.5,4.3c-0.9,1.9-1.3,4-1.3,6.4s0.4,4.5,1.3,6.4c0.9,1.8,2.1,3.3,3.5,4.3C244.3,54.6,246,55.1,247.9,55.1z"/>
		<path class="st2" d="M264.4,31.3v-1.3l3.6-0.2h7.9v1.5H264.4z M268,56V23.2c0-1.7,0.2-3.1,0.7-4.3c0.5-1.1,1.2-2,2.1-2.5
			c0.9-0.5,2-0.8,3.2-0.8c0.6,0,1.1,0.1,1.8,0.2c0.6,0.1,1.3,0.4,1.8,0.7l-0.6,1.4c-0.5-0.3-1.1-0.5-1.6-0.6
			c-0.5-0.1-1.1-0.2-1.6-0.2c-1.5,0-2.5,0.5-3.2,1.7c-0.7,1.1-1,2.6-1,4.6V56H268z"/>
		<path class="st2" d="M305.4,56.7c-3,0-5.6-0.8-7.8-2.3c-2.3-1.6-4-3.8-5.3-6.6c-1.2-2.8-1.9-6.2-1.9-10c0-2.9,0.4-5.4,1.1-7.7
			c0.7-2.3,1.8-4.3,3.1-5.9c1.4-1.6,3-2.9,4.8-3.8c1.9-0.9,4-1.3,6.3-1.3c2.1,0,3.9,0.4,5.5,1.3c1.6,0.9,2.8,1.9,3.7,3l-1.1,1.2
			c-1-1.2-2.2-2.1-3.5-2.8c-1.4-0.7-2.9-1-4.6-1c-2.8,0-5.2,0.7-7.2,2.1c-2,1.4-3.5,3.4-4.6,5.9c-1.1,2.5-1.6,5.6-1.6,9
			s0.5,6.5,1.6,9.1c1.1,2.6,2.6,4.6,4.6,6c2,1.4,4.3,2.1,7,2.1c1.9,0,3.7-0.4,5.2-1.2c1.5-0.8,2.9-1.9,4.3-3.5l1.1,1.1
			c-1.4,1.6-2.9,2.8-4.6,3.8C309.8,56.2,307.8,56.7,305.4,56.7z"/>
		<path class="st2" d="M332.9,56.7c-2.1,0-4-0.5-5.8-1.6s-3.2-2.6-4.3-4.7c-1.1-2.1-1.6-4.5-1.6-7.4c0-2.9,0.5-5.4,1.6-7.5
			c1.1-2.1,2.5-3.6,4.3-4.7c1.8-1.1,3.7-1.6,5.8-1.6s4,0.5,5.8,1.6c1.8,1.1,3.2,2.7,4.3,4.7c1.1,2.1,1.6,4.6,1.6,7.5
			c0,2.9-0.5,5.4-1.6,7.4c-1.1,2.1-2.5,3.6-4.3,4.7C336.9,56.1,335,56.7,332.9,56.7z M332.9,55.1c1.9,0,3.6-0.5,5.1-1.5
			c1.5-1,2.7-2.5,3.5-4.3c0.9-1.8,1.3-4,1.3-6.4s-0.4-4.6-1.3-6.4s-2-3.3-3.5-4.3c-1.5-1-3.2-1.6-5.1-1.6s-3.5,0.5-5,1.6
			c-1.5,1-2.7,2.5-3.5,4.3s-1.3,4-1.3,6.4s0.4,4.5,1.3,6.4c0.9,1.8,2.1,3.3,3.5,4.3C329.4,54.6,331,55.1,332.9,55.1z"/>
		<path class="st2" d="M355.5,56.7c-0.5,0-1-0.1-1.4-0.4c-0.4-0.2-0.7-0.6-0.9-1.1c-0.2-0.5-0.3-1.2-0.3-2V16.3h1.6v37.2
			c0,0.5,0.1,1,0.3,1.2c0.2,0.3,0.5,0.4,0.8,0.4c0.1,0,0.2,0,0.4,0c0.1,0,0.3,0,0.6-0.1l0.3,1.4c-0.2,0-0.4,0.1-0.6,0.1
			C356.1,56.6,355.8,56.7,355.5,56.7z"/>
		<path class="st2" d="M374.8,56.7c-2.1,0-4-0.5-5.8-1.6s-3.2-2.6-4.3-4.7c-1.1-2.1-1.6-4.5-1.6-7.4c0-2.9,0.5-5.4,1.6-7.5
			c1.1-2.1,2.5-3.6,4.3-4.7c1.8-1.1,3.7-1.6,5.8-1.6s4,0.5,5.8,1.6c1.8,1.1,3.2,2.7,4.3,4.7c1.1,2.1,1.6,4.6,1.6,7.5
			c0,2.9-0.5,5.4-1.6,7.4c-1.1,2.1-2.5,3.6-4.3,4.7C378.8,56.1,376.9,56.7,374.8,56.7z M374.8,55.1c1.9,0,3.6-0.5,5.1-1.5
			c1.5-1,2.7-2.5,3.5-4.3c0.9-1.8,1.3-4,1.3-6.4s-0.4-4.6-1.3-6.4s-2-3.3-3.5-4.3c-1.5-1-3.2-1.6-5.1-1.6s-3.5,0.5-5,1.6
			c-1.5,1-2.7,2.5-3.5,4.3s-1.3,4-1.3,6.4s0.4,4.5,1.3,6.4c0.9,1.8,2.1,3.3,3.5,4.3C371.3,54.6,373,55.1,374.8,55.1z"/>
		<path class="st2" d="M394.7,56V29.7h1.4l0.2,4.2h0.1c1.2-1.4,2.5-2.5,4-3.5c1.5-0.9,2.9-1.4,4.3-1.4c2.2,0,3.8,0.5,4.9,1.5
			c1.1,1,1.9,2.3,2.3,4c1.5-1.7,3.1-3.1,4.6-4s3-1.5,4.5-1.5c2.6,0,4.6,0.8,5.9,2.4c1.3,1.6,2,4.2,2,7.6V56h-1.7V39.3
			c0-2.9-0.5-5.1-1.5-6.5c-1-1.4-2.6-2.1-4.8-2.1c-1.3,0-2.7,0.4-4,1.3s-2.8,2.2-4.3,4V56H411V39.3c0-2.9-0.5-5.1-1.5-6.5
			c-1-1.4-2.6-2.1-4.8-2.1c-2.5,0-5.3,1.8-8.4,5.3V56H394.7z"/>
		<path class="st2" d="M448.9,56.7c-1.2,0-2.6-0.3-4-0.9c-1.4-0.6-2.8-1.4-4-2.4h-0.1l-0.2,2.6h-1.4V16.3h1.6v11.8l-0.1,5.3
			c1.4-1.2,2.9-2.2,4.5-3c1.6-0.8,3.2-1.3,4.9-1.3c2.4,0,4.4,0.5,5.9,1.7c1.6,1.1,2.7,2.7,3.5,4.7c0.8,2,1.2,4.4,1.2,7.1
			c0,3-0.5,5.5-1.6,7.6c-1.1,2.1-2.5,3.7-4.3,4.9C452.9,56.1,450.9,56.7,448.9,56.7z M449,55.1c1.9,0,3.6-0.5,5.1-1.6
			c1.5-1.1,2.6-2.6,3.5-4.5c0.8-1.9,1.3-4.1,1.3-6.5c0-2.2-0.3-4.3-0.9-6c-0.6-1.8-1.5-3.2-2.8-4.3c-1.3-1-3-1.6-5.2-1.6
			c-1.4,0-2.8,0.4-4.3,1.2c-1.5,0.8-3.1,1.9-4.8,3.4v16.3c1.5,1.3,3,2.3,4.5,2.8C446.7,54.8,447.9,55.1,449,55.1z"/>
		<path class="st2" d="M478,56.7c-2.1,0-4-0.5-5.8-1.6s-3.2-2.6-4.3-4.7c-1.1-2.1-1.6-4.5-1.6-7.4c0-2.9,0.5-5.4,1.6-7.5
			c1.1-2.1,2.5-3.6,4.3-4.7c1.8-1.1,3.7-1.6,5.8-1.6s4,0.5,5.8,1.6c1.8,1.1,3.2,2.7,4.3,4.7c1.1,2.1,1.6,4.6,1.6,7.5
			c0,2.9-0.5,5.4-1.6,7.4c-1.1,2.1-2.5,3.6-4.3,4.7C482,56.1,480.1,56.7,478,56.7z M478,55.1c1.9,0,3.6-0.5,5.1-1.5
			c1.5-1,2.7-2.5,3.5-4.3c0.9-1.8,1.3-4,1.3-6.4s-0.4-4.6-1.3-6.4s-2-3.3-3.5-4.3c-1.5-1-3.2-1.6-5.1-1.6s-3.5,0.5-5,1.6
			c-1.5,1-2.7,2.5-3.5,4.3s-1.3,4-1.3,6.4s0.4,4.5,1.3,6.4c0.9,1.8,2.1,3.3,3.5,4.3C474.5,54.6,476.1,55.1,478,55.1z"/>
	</g>
</g>
</svg>
