<svg xmlns="http://www.w3.org/2000/svg" viewBox="0 0 127.01 54.95"><defs><style>.cls-1{fill:#fff;}</style></defs><g id="Layer_2" data-name="Layer 2"><g id="Layer_1-2" data-name="Layer 1"><path class="cls-1" d="M0,54.37V.58H11.44V54.37Z"/><path class="cls-1" d="M21.57,54.37,27.51.58H43l7.78,28.74,2.61,12.12,2.17-12.12L62.76.58H77.68l6.58,53.79h-11L70.58,24.22,69.71,9,66.2,24.47,57.51,54.76h-9L39.27,24.47,35.58,9l-1,15.24L32.18,54.37Z"/><path class="cls-1" d="M108.08,55A44,44,0,0,1,101,54.4a41.09,41.09,0,0,1-5.75-1.3,17,17,0,0,1-3.44-1.38l1.7-9a20.5,20.5,0,0,0,3.53,1.57,34.41,34.41,0,0,0,4.83,1.31,27.18,27.18,0,0,0,5.32.52q4.31,0,6.41-1.34a4.73,4.73,0,0,0,2.1-4.31A5.45,5.45,0,0,0,114.56,37a12.5,12.5,0,0,0-3.64-2.8c-1.65-.92-3.79-2-6.42-3.26A37.58,37.58,0,0,1,98.16,27a18.46,18.46,0,0,1-4.81-5.36,14,14,0,0,1-1.85-7.27A13.53,13.53,0,0,1,93,7.91a12.5,12.5,0,0,1,4-4.49,18.3,18.3,0,0,1,6-2.59A30.48,30.48,0,0,1,110.21,0a33.28,33.28,0,0,1,9.16,1.05,21.39,21.39,0,0,1,5,2l-1.92,8.62a17.73,17.73,0,0,0-4.71-2.23,21.9,21.9,0,0,0-6.87-1A14.51,14.51,0,0,0,106.4,9a6.57,6.57,0,0,0-3,1.79,4.19,4.19,0,0,0-1,2.88,5.93,5.93,0,0,0,1,3.46,10.42,10.42,0,0,0,3.17,2.75q2.18,1.32,5.65,3A64.37,64.37,0,0,1,118,26a26.8,26.8,0,0,1,4.71,3.53,13.93,13.93,0,0,1,3.15,4.38A13.42,13.42,0,0,1,127,39.56a14.75,14.75,0,0,1-2.28,8.31,14.35,14.35,0,0,1-6.53,5.27A25.88,25.88,0,0,1,108.08,55Z"/></g></g></svg>