<?xml version="1.0" encoding="utf-8"?>
<!-- Generator: Adobe Illustrator 24.2.0, SVG Export Plug-In . SVG Version: 6.00 Build 0)  -->
<svg version="1.1" id="Layer_1" xmlns="http://www.w3.org/2000/svg" xmlns:xlink="http://www.w3.org/1999/xlink" x="0px" y="0px"
	 viewBox="0 0 127 55" style="enable-background:new 0 0 127 55;" xml:space="preserve">
<g id="Layer_2_1_">
	<g id="Layer_1-2">
		<path d="M0,54.4V0.6h11.4v53.8H0z"/>
		<path d="M21.6,54.4l5.9-53.8H43l7.8,28.7l2.6,12.1l2.2-12.1l7.2-28.7h14.9l6.6,53.8h-11l-2.7-30.2L69.7,9l-3.5,15.5l-8.7,30.3h-9
			l-9.2-30.3L35.6,9l-1,15.2l-2.4,30.1H21.6z"/>
		<path d="M108.1,55c-2.4,0-4.7-0.2-7.1-0.6c-1.9-0.3-3.9-0.7-5.8-1.3c-1.2-0.3-2.3-0.8-3.4-1.4l1.7-9c1.1,0.6,2.3,1.2,3.5,1.6
			c1.6,0.6,3.2,1,4.8,1.3c1.8,0.3,3.5,0.5,5.3,0.5c2.9,0,5-0.4,6.4-1.3c1.4-0.9,2.2-2.6,2.1-4.3c0-1.3-0.4-2.5-1.1-3.5
			c-1-1.2-2.3-2.1-3.6-2.8c-1.7-0.9-3.8-2-6.4-3.3c-2.2-1.1-4.4-2.4-6.3-3.9c-1.9-1.5-3.6-3.3-4.8-5.4c-1.3-2.2-1.9-4.7-1.8-7.3
			c0-2.2,0.5-4.5,1.5-6.5c0.9-1.8,2.3-3.3,4-4.5c1.8-1.2,3.9-2.1,6-2.6c2.4-0.6,4.8-0.8,7.2-0.8c3.1-0.1,6.2,0.3,9.2,1
			c1.7,0.5,3.4,1.1,5,2l-1.9,8.6c-1.5-1-3-1.7-4.7-2.2c-2.2-0.7-4.5-1-6.9-1c-1.5,0-3,0.1-4.5,0.6c-1.1,0.3-2.2,0.9-3,1.8
			c-0.7,0.8-1,1.8-1,2.9c0,1.2,0.3,2.4,1,3.5c0.9,1.1,1.9,2.1,3.2,2.8c1.5,0.9,3.3,1.9,5.7,3c2,0.9,3.9,2,5.8,3.1
			c1.7,1,3.3,2.2,4.7,3.5c1.3,1.2,2.4,2.7,3.2,4.4c0.8,1.8,1.2,3.7,1.1,5.7c0.1,2.9-0.7,5.8-2.3,8.3c-1.6,2.4-3.9,4.2-6.5,5.3
			C115,54.4,111.5,55.1,108.1,55z"/>
	</g>
</g>
</svg>
